<svg xmlns="http://www.w3.org/2000/svg" id="Layer_1" data-name="Layer 1" viewBox="0 0 337.32 82.2"><defs><style>.cls-1{fill:#fff;}</style></defs><path class="cls-1" d="M216,45.66c-.95,3.74-1,7.31-1.44,10.83,0,.11,0,.22,0,.32-.27,2.74-.3,2.77-3.06,2.77H195.77c.93-7.31,1.85-14.47,2.75-21.63a38.43,38.43,0,0,0,.43-4.66c0-1.29.45-1.62,1.7-1.62,8.86.05,17.71,0,26.56.07,1.54,0,2-.5,2.19-1.94.31-3.25.36-3.24-2.86-3.24-8.37,0-16.74,0-25.1,0-1.39,0-1.6-.41-1.41-1.67.33-2.07.47-4.17.66-6.26.12-1.31.56-1.91,2.11-1.9,11.87.08,23.75.3,35.62-.06,6.23-.19,11.75,6.24,10.1,12.82a13.86,13.86,0,0,1-9.07,10.05l-2.78,1.07a28.64,28.64,0,0,0,4.85,2.73c3,1.56,6.15,3,9.16,4.65,1,.56,1.16.27,1.26-.62.48-3.9.92-7.81,1.46-11.7.77-5.55,1.13-11.14,2.1-16.66a3.13,3.13,0,0,0,.1-.8c-.17-1.28.47-1.47,1.6-1.46,8.53,0,17.06,0,25.58,0,5.83,0,11.66,0,17.49,0,1.14,0,1.47.23,1.25,1.45-.4,2.28-.63,4.59-.82,6.89-.09,1.19-.59,1.47-1.73,1.47-7.18-.06-14.36,0-21.54-.07-1.31,0-1.7.36-1.83,1.66-.35,3.53-.43,3.52,3,3.52,6.53,0,13.07,0,19.6,0,1.33,0,1.66.39,1.49,1.62-.38,2.72-.7,5.44-1,8.17-.13,1.13-.92,1-1.67,1-7.13,0-14.25.05-21.37,0-1.46,0-2,.44-2.12,1.84-.37,3.68-.41,3.68,3.31,3.68,6.42,0,12.85,0,19.27,0,1.35,0,1.87.09,1.54,1.76a69.57,69.57,0,0,0-.88,8.18c-.1,1.29-.46,1.81-1.93,1.81-14.19-.07-28.39,0-42.59-.08-1.36,0-2,.27-1.86,1.73a8.17,8.17,0,0,1-.23,1.76c-.42,3-.4,3-3,1.42Q235,57.15,222.89,49.87Z"></path><path class="cls-1" d="M126.06,59.58c-3,0-5.93,0-8.9,0-1.18,0-1.56-.17-1.36-1.5.61-4,1-8.12,1.57-12.17.17-1.15-.21-1.36-1.21-1.29s-1.94,0-2.92,0c-2.17,0-2.15,0-2.42,2.25-.47,3.85-1,7.69-1.41,11.54-.1.9-.42,1.15-1.3,1.14-6.15,0-12.3-.05-18.46,0-1.14,0-1.22-.47-1.11-1.34.84-6.4,1.69-12.8,2.48-19.21.73-6,1.37-12,2.08-18,.14-1.23.43-2.44.57-3.67.07-.64.43-.63.88-.63,6.37,0,12.74,0,19.1,0,.95,0,.87.51.78,1.15q-.75,5.68-1.48,11.37c0,.38,0,.76-.09,1.13-.17,1,.25,1.26,1.24,1.28,5.18.09,5.12.12,5.56-5.08.25-2.94,1-5.84,1-8.81,0-.82.47-1.05,1.27-1,6.2,0,12.41,0,18.61,0,1.17,0,1.19.51,1.08,1.36q-1,8.18-2,16.35c-.64,5.3-1.22,10.6-1.86,15.89-.33,2.73-.77,5.44-1.08,8.17-.11.94-.57,1.06-1.38,1.05C132.22,59.55,129.14,59.58,126.06,59.58Z"></path><path class="cls-1" d="M157.94,16.79c3.13,0,6.26,0,9.39,0,1,0,1.28.19,1.15,1.26-1,8-2.17,15.91-2.9,23.9-.1,1.18-.34,2.35-.54,3.52-.11.63.12.91.76.85H166c4.27.27,4.33.28,4.89-4,.71-5.45,1.41-10.89,2-16.35.28-2.67.85-5.31.95-8,0-.84.37-1.2,1.3-1.2,6.42,0,12.84,0,19.26,0,.74,0,1.22,0,1.09,1-1,7.42-1.64,14.9-3,22.27-1.47,8.29-6.28,14.35-13.79,18.29-6.79,3.56-13.95,4-21.15,2.09-7.67-2-12.37-7.77-13-16.08-.38-4.79.71-9.43,1.18-14.13.42-4.12,1-8.22,1.43-12.34.1-.95.4-1.14,1.26-1.13C151.57,16.82,154.76,16.79,157.94,16.79Z"></path><path class="cls-1" d="M65.53,47.67c-3.14-1.3-6.29-2.57-9.4-3.92-4-1.74-8.3-3-12.09-5.27a10.59,10.59,0,0,1-4.59-11,12.81,12.81,0,0,1,7.84-9.88,8.59,8.59,0,0,1,3.59-.77c12.09,0,24.18,0,36.27,0,1.18,0,1.47.31,1.3,1.46A42.21,42.21,0,0,0,87.56,25c0,1.24-.49,1.63-1.76,1.62-8.9-.05-17.81,0-26.71,0H57.83l-.11.33,7.87,3.4c5.34,2.33,10.72,4.58,16,7,4.52,2.07,6.13,6.47,4.58,11.91A14,14,0,0,1,72.43,59.58c-11.72,0-23.43,0-35.14,0-1.3,0-1.7-.34-1.51-1.61.46-3.09.89-6.18,1.24-9.28.11-.92.64-.83,1.23-.83h27.2Z"></path></svg>