<svg xmlns="http://www.w3.org/2000/svg" id="Layer_1" data-name="Layer 1" viewBox="0 0 337.32 82.2"><defs><style>.cls-1{fill:#fff;}</style></defs><path class="cls-1" d="M88.83,16.32h-10c-.06-.12-.11-.12-.17,0H57.6c.26-.63.51-1.22.77-1.81.77-1.79,1.55-3.58,2.3-5.38a.46.46,0,0,1,.52-.32l16.06,0h33a26.08,26.08,0,0,1,4,.4,21.44,21.44,0,0,1,3.47.85,13,13,0,0,1,6.46,4.41,10.89,10.89,0,0,1,2.12,6.33,13,13,0,0,1-4.81,10.38,23.79,23.79,0,0,1-7.13,4.26,38.84,38.84,0,0,1-4.94,1.57,47.57,47.57,0,0,1-6.15,1c-.81.1-1.64.12-2.46.18-.11,0-.23,0-.39.09a126,126,0,0,1,19.7,17.7c-.09.14-.21.09-.3.09H100.21a.82.82,0,0,1-.62-.26L87.78,44.13l-5.57-5.52a3.27,3.27,0,0,0-.36-.27l2.33-.68c1.13-.34,2.25-.69,3.38-1s2.23-.74,3.34-1.12c1.47-.51,2.94-1.05,4.39-1.63,1.66-.67,3.31-1.37,4.93-2.16a35.35,35.35,0,0,0,6.92-4.19,11.38,11.38,0,0,0,2.68-3,4.49,4.49,0,0,0-.16-4.9.86.86,0,0,1-.21-.4A8.28,8.28,0,0,0,107.61,17a16.89,16.89,0,0,0-3.16-2.14,20.73,20.73,0,0,0-4-1.7,4.27,4.27,0,0,1-1.14-.49h0a1,1,0,0,1-.45-.14v0h0L96,11.73a14,14,0,0,1-1.8-.47s.09,0,.08,0l-.08,0c-.12,0-.31.05-.32,0,0-.27-.23-.18-.36-.17a3.9,3.9,0,0,1-1.59-.25h0a2.55,2.55,0,0,1-.86-.15c.08,0,.17,0,.23-.09l-.23.09c-.09,0-.2,0-.26,0-.52-.39-1.12-.05-1.68-.17-.12,0-.32.12-.5.15s-.26.16-.11.28.2.46.2.72c0,.7,0,1.41,0,2.11A10.17,10.17,0,0,0,88.83,16.32Zm-.07-6c-.22,0-.45-.1-.67-.13a.62.62,0,0,0-.26,0c.18.15-.13.2,0,.28s.21,0,.32,0S88.53,10.43,88.76,10.3Z"></path><path class="cls-1" d="M139,19.62h6.22c.6,0,.58,0,.43.56-.29,1.16-.56,2.32-.85,3.48-.33,1.38-.67,2.76-1,4.14s-.69,2.85-1,4.28c-.4,1.59-.8,3.18-1.19,4.77-.34,1.37-.67,2.75-1,4.13-.28,1.16-.6,2.31-.86,3.48a3.73,3.73,0,0,0,.49,3.32,4,4,0,0,0,2.44,1.31,16.61,16.61,0,0,0,5.45,0,12.72,12.72,0,0,0,4-1.07,6.59,6.59,0,0,0,3.24-3.36,32.29,32.29,0,0,0,1.59-5c.48-1.79.9-3.58,1.32-5.38.3-1.32.58-2.65.87-4s.59-2.8.87-4.2.57-2.89.84-4.34c.12-.64.24-1.28.35-1.92,0-.2.13-.27.34-.27h12.65c.25,0,.29.05.22.32-.26,1.06-.48,2.13-.71,3.19-.34,1.51-.67,3-1,4.53s-.68,3-1,4.53c-.38,1.69-.77,3.37-1.17,5.06-.33,1.43-.66,2.87-1,4.29a48.55,48.55,0,0,1-2,7,10.16,10.16,0,0,1-6.16,5.75,28.09,28.09,0,0,1-6.73,1.4c-3.39.35-6.79.44-10.19.48-2.93,0-5.85.08-8.77,0a13.73,13.73,0,0,1-6.94-1.76,5.7,5.7,0,0,1-2.92-5.94,34,34,0,0,1,.74-3.47c.48-2.17,1-4.34,1.5-6.51l1-4.36c.29-1.22.56-2.44.84-3.65.34-1.47.69-2.94,1-4.41l1-4.45c.13-.57.3-1.13.41-1.71.05-.25.17-.29.39-.29H139Z"></path><path class="cls-1" d="M283.34,32.46a8.84,8.84,0,0,1-2.84,3.77A16.43,16.43,0,0,1,275.14,39a22.36,22.36,0,0,1-3.55.84c-1.29.21-2.58.49-3.87.72l-3,.52-3.18.58-3,.52-3.22.56c-.76.13-1.51.26-2.27.37-.29,0-.58.14-.88.18s-.07.3-.14.45a.94.94,0,0,1-1,.55H240.06a4.19,4.19,0,0,1-.5,0c-.11,0-.23-.15-.33,0s0,.25.08.36A10.41,10.41,0,0,0,241,47a13.46,13.46,0,0,0,5.55,3.39c1,.37,2.14.59,3.21.86l0,0,0,0c1.2.13,2.4.32,3.61.38a35,35,0,0,0,6.55-.32,37.45,37.45,0,0,0,8-2.12c1.16-.46,2.32-.94,3.44-1.49,1.62-.78,3.21-1.63,4.75-2.55a13.61,13.61,0,0,0,2-1.34l.82-.46c.12.34-.07.61-.13.88-.63,2.49-1.29,5-1.92,7.44a.77.77,0,0,1-.53.58c-1.64.64-3.29,1.23-5,1.72s-3.55.94-5.36,1.31a43.23,43.23,0,0,1-10.88.89,25.34,25.34,0,0,1-4.13-.58A23.19,23.19,0,0,1,246.17,54a14.85,14.85,0,0,1-5.81-4.57,12,12,0,0,1-2.47-8,17.86,17.86,0,0,1,2.27-7.71,21.17,21.17,0,0,1,2-3,26.56,26.56,0,0,1,3.06-3.21,31.17,31.17,0,0,1,3.1-2.39,31.77,31.77,0,0,1,5.84-3.18,30.42,30.42,0,0,1,4.08-1.34q1.69-.43,3.42-.72c1.37-.22,2.74-.38,4.11-.49a37.33,37.33,0,0,1,4.23-.08,22.58,22.58,0,0,1,4.62.66,15.15,15.15,0,0,1,4.07,1.58,10.89,10.89,0,0,1,4.13,4,8.42,8.42,0,0,1,1,2.75.48.48,0,0,0,0,.29l.05.26a2.9,2.9,0,0,0,0,1.31l0,.18a.61.61,0,0,0-.05.44l0,.27a.55.55,0,0,0-.13.51v0c-.09,0-.25,0-.24,0C283.44,31.88,283.05,32.15,283.34,32.46Zm-23.41-2.74s0,0,0,0c-.33-.09-.53,0-.54.36l-.53.35c-.16-.13-.32-.19-.49,0,0-.08,0-.19-.1-.21a.06.06,0,0,0-.05.05c0,.13.07.13.15.16a.34.34,0,0,1,0,.35c-.69.68-1.46,1.25-2.11,2A18.53,18.53,0,0,0,252.07,40c-.08.29,0,.32.26.28,1.6-.3,3.2-.58,4.79-.89s3.45-.72,5.19-1.05a20.45,20.45,0,0,0,3.15-.79,10.71,10.71,0,0,0,4.36-2.71,6.35,6.35,0,0,0,2-4.92,3.35,3.35,0,0,0-3.37-3.21A13.39,13.39,0,0,0,263.18,28,25.33,25.33,0,0,0,260,29.67Z"></path><path class="cls-1" d="M180.8,75.57h-.11c-.5,0-.48,0-.37-.46q.6-2.53,1.19-5.09c.08-.33.18-.65.25-1s.19-.32.43-.38a22.4,22.4,0,0,0,7-2.75A11.37,11.37,0,0,0,193.23,61a37.72,37.72,0,0,0,2.23-6.27c.54-1.9,1.09-3.79,1.62-5.7.36-1.31.7-2.64,1-4,.45-1.74.89-3.47,1.33-5.22s.79-3.25,1.17-4.89.81-3.36,1.2-5c.29-1.27.53-2.55.85-3.81.21-.83,0-.73.91-.87,1.5-.22,3-.49,4.5-.73,1.18-.18,2.37-.34,3.55-.51s2.52-.38,3.78-.59c.63-.11.7-.08.55.52-.31,1.33-.65,2.66-1,4s-.7,2.78-1,4.16c-.3,1.2-.61,2.39-.9,3.59s-.66,2.7-1,4l-1.17,4.69c-.4,1.58-.78,3.16-1.17,4.74-.33,1.32-.64,2.63-1,3.94a39.51,39.51,0,0,1-1.22,4.19A26.46,26.46,0,0,1,200.84,68a23.93,23.93,0,0,1-6.1,4A34,34,0,0,1,190,73.79,45,45,0,0,1,185.09,75C183.67,75.22,182.24,75.4,180.8,75.57Z"></path><path class="cls-1" d="M61.59,56.13H53.72c-.37,0-.4-.08-.28-.42.83-2.23,1.62-4.47,2.43-6.71l2.44-6.66c1-2.78,2-5.57,3-8.35l3-8.1c.53-1.47,1.07-2.93,1.58-4.4a.37.37,0,0,1,.42-.29H82.1c.27,0,.37,0,.25.34-.94,2.55-1.86,5.1-2.78,7.65-.81,2.24-1.6,4.47-2.41,6.71s-1.63,4.49-2.45,6.73L72,50.23c-.68,1.89-1.37,3.77-2,5.65-.08.25-.24.25-.45.25Z"></path><path class="cls-1" d="M237.43,7c1.76-.07,3.52-.14,5.28-.19,3.43-.1,6.86-.21,10.3-.13,2.83.07,5.66.08,8.48.23,2.06.11,4.12.21,6.17.39q2.77.24,5.55.58c1.88.23,3.74.54,5.6.83a2.33,2.33,0,0,1,.25.07v.13c-.57,0-1.15,0-1.72,0-2.08.08-4.15.15-6.22.26s-4.32.24-6.48.43c-1.73.15-3.48.25-5.22.41-2.18.19-4.35.41-6.53.63s-4.38.46-6.56.74c-1.82.24-3.64.44-5.45.73-1.3.21-2.61.34-3.91.52-.49.07-1,.2-1.46.24-1.15.1-2.28.36-3.42.53s-2.33.39-3.5.58c-.6.1-1.2.23-1.81.3-.78.09-1.55.32-2.34.37-.54-.59-.57-2.49,0-3a.87.87,0,0,0-.46.1l-1,.31c-.12,0-.26,0-.3-.12s.09-.18.19-.24.34,0,.5-.17a.81.81,0,0,0-.57,0,2.7,2.7,0,0,1-.83.19h0a10.4,10.4,0,0,1-1.2.28c-.91.33-1.87.43-2.79.69-1.71.48-3.44.87-5.15,1.34-5.41,1.49-10.76,3.14-16,5.14-3.32,1.26-6.62,2.58-9.83,4.14-.18.09-.4.11-.53.3-.87.37-1.8.57-2.69.87-.6.2-1.22.36-1.82.57-.22.08-.29,0-.25-.19.13-.64.25-1.27.38-1.91l1.05-5.29c.15-.76.31-1.52.46-2.29a.33.33,0,0,1,.28-.28c1.28-.3,2.54-.66,3.8-1,1.58-.41,3.17-.79,4.76-1.17,1.3-.31,2.61-.56,3.92-.83s2.87-.61,4.31-.89c1-.19,2-.35,3-.52l3.23-.56,3.35-.52c1-.15,2-.28,2.94-.41l4.06-.53L221,8.25a2.46,2.46,0,0,1,.54,0c.63.07,1.23-.22,1.85-.17.31,0,.64.1.92-.13l6-.49h.39c.51,0,1.05.15,1.55-.14l.64,0a4.43,4.43,0,0,0,1.7-.13l1.12,0c.45,0,.9,0,1.36,0C237.16,7.1,237.32,7.12,237.43,7Zm-12.92,4.28s0,0-.06,0l0,0c0,.05,0,.05.07,0A.1.1,0,0,0,224.51,11.26Zm1,0h0v0Zm-1.49.16h0v0Z"></path><path class="cls-1" d="M223.24,56.21H217.4c-.56,0-.55,0-.42-.54.46-1.91.9-3.82,1.35-5.73.28-1.21.58-2.41.87-3.61.39-1.67.77-3.34,1.17-5,.32-1.39.65-2.78,1-4.18l1.05-4.4q.6-2.52,1.19-5.05c.39-1.66.78-3.31,1.16-5,.09-.37.2-.57.66-.61,1.5-.14,3-.38,4.5-.56l3.45-.36,3.69-.41.43,0c.51,0,.5,0,.38.51-.36,1.45-.7,2.91-1.05,4.36L235.76,30c-.33,1.39-.65,2.79-1,4.18s-.72,3-1.07,4.44c-.38,1.65-.75,3.31-1.14,5-.34,1.42-.7,2.83-1,4.25s-.66,2.86-1,4.29-.62,2.57-.92,3.87c-.06.26-.23.19-.38.19Z"></path><path class="cls-1" d="M180.65,56.2h-6c-.28,0-.35-.05-.27-.35q.78-3.2,1.54-6.41l1.17-4.94c.34-1.4.69-2.8,1-4.2.39-1.65.77-3.29,1.16-4.94.34-1.39.69-2.77,1-4.16.13-.55.27-1.09.37-1.64.05-.26.16-.35.43-.39,1-.17,1.94-.37,2.91-.55l3-.54,3.14-.59,3.5-.61c.25-.05.18.1.16.22l-.54,2.32c-.34,1.46-.69,2.91-1,4.37-.3,1.24-.6,2.48-.89,3.72-.34,1.44-.66,2.89-1,4.33s-.7,2.88-1,4.32c-.29,1.22-.55,2.43-.84,3.65-.33,1.41-.67,2.81-1,4.21-.14.6-.28,1.19-.41,1.79,0,.27-.16.4-.46.39h-6Z"></path><path class="cls-1" d="M278.09,43.76a13.61,13.61,0,0,1-2,1.34c-1.54.92-3.13,1.77-4.75,2.55-1.12.55-2.28,1-3.44,1.49a37.45,37.45,0,0,1-8,2.12,35,35,0,0,1-6.55.32c-1.21-.06-2.41-.25-3.61-.38h0c-1.07-.27-2.16-.49-3.21-.86A13.46,13.46,0,0,1,241,47a10.41,10.41,0,0,1-1.66-2.35c-.06-.11-.18-.24-.08-.36s.22,0,.33,0a4.19,4.19,0,0,0,.5,0H251a.94.94,0,0,0,1-.55c.22.62.34,1.25.61,1.85a5.66,5.66,0,0,0,3.11,3,12.82,12.82,0,0,0,6.5.53,28.05,28.05,0,0,0,3-.53c.81-.18,1.61-.41,2.4-.65,1.19-.36,2.36-.77,3.52-1.2q2.4-.9,4.72-2Z"></path><path class="cls-1" d="M221.93,11.73a2.7,2.7,0,0,0,.83-.19.81.81,0,0,1,.57,0c-.16.14-.35.09-.5.17s-.24.1-.19.24.18.15.3.12l1-.31a.87.87,0,0,1,.46-.1c-.55.46-.52,2.36,0,3a5.76,5.76,0,0,1-1.37.29c-1.3.28-2.62.51-3.94.76l-2.75.52c-1.13.23-2.25.48-3.38.72l-2.51.52-2.73.59-2.86.68-3.55.87-3.31.83c-1.3.34-2.6.7-3.9,1.05s-2.45.65-3.66,1c-1,.28-2,.59-2.94.88l-1.12.29c.13-.19.35-.21.53-.3,3.21-1.56,6.51-2.88,9.83-4.14,5.25-2,10.6-3.65,16-5.14,1.71-.47,3.44-.86,5.15-1.34.92-.26,1.88-.36,2.79-.69a10.4,10.4,0,0,0,1.2-.28Z"></path><path class="cls-1" d="M91.9,10.79a3.9,3.9,0,0,0,1.59.25c.13,0,.31-.1.36.17,0,.1.2,0,.32,0h0a14,14,0,0,0,1.8.47l2.89.77,0,0a1,1,0,0,0,.45.14h0a4.27,4.27,0,0,0,1.14.49,20.73,20.73,0,0,1,4,1.7A16.89,16.89,0,0,1,107.61,17a8.28,8.28,0,0,1,1.84,2.23c-.4-.32-.77-.66-1.18-.95a8.64,8.64,0,0,0-2.61-1.17l-1.57-.42a7.34,7.34,0,0,0-1-.16,26.15,26.15,0,0,0-3.19-.21c-3.51,0-7,0-10.53,0l-.51,0a10.17,10.17,0,0,1-.15-2.64c0-.7,0-1.41,0-2.11,0-.26,0-.52-.2-.72s0-.25.11-.28.38-.18.5-.15c.56.12,1.16-.22,1.68.17.06.05.17,0,.26,0h0a2.55,2.55,0,0,0,.86.15Z"></path><path class="cls-1" d="M283.34,32.46c-.29-.31.1-.58.06-.88,0-.08.15,0,.24,0A2.49,2.49,0,0,1,283.34,32.46Z"></path><path class="cls-1" d="M283.88,30.12a2.9,2.9,0,0,1,0-1.31A3.4,3.4,0,0,1,283.88,30.12Z"></path><path class="cls-1" d="M237.43,7c-.11.14-.27.12-.42.12-.46,0-.91,0-1.36,0Z"></path><path class="cls-1" d="M232.19,7.28c-.5.29-1,.1-1.55.14A13.32,13.32,0,0,1,232.19,7.28Z"></path><path class="cls-1" d="M234.53,7.13a4.43,4.43,0,0,1-1.7.13Z"></path><path class="cls-1" d="M224.27,7.91c-.28.23-.61.13-.92.13Z"></path><path class="cls-1" d="M283.65,31.52a.55.55,0,0,1,.13-.51Z"></path><path class="cls-1" d="M283.81,30.74a.61.61,0,0,1,.05-.44Z"></path><path class="cls-1" d="M78.65,16.33c.06-.12.11-.12.17,0Z"></path><path class="cls-1" d="M283.83,28.55a.48.48,0,0,1,0-.29A.42.42,0,0,1,283.83,28.55Z"></path><path class="cls-1" d="M88.76,10.3c-.23.13-.46.06-.66.16s-.22.14-.32,0,.23-.13,0-.28a.62.62,0,0,1,.26,0C88.31,10.2,88.54,10.26,88.76,10.3Z"></path><path class="cls-1" d="M91,10.63l.23-.09c-.06.13-.15.07-.23.09Z"></path><path class="cls-1" d="M94.17,11.26l.08,0c0,.07-.06,0-.08,0Z"></path><path class="cls-1" d="M91.89,10.78h0Z"></path><polygon class="cls-1" points="98.86 12.5 98.88 12.49 98.88 12.52 98.86 12.5"></polygon><path class="cls-1" d="M99.33,12.66h0Z"></path><path class="cls-1" d="M258.84,30.46a.74.74,0,0,1-.47.34.34.34,0,0,0,0-.35h0C258.52,30.27,258.68,30.33,258.84,30.46Z"></path><path class="cls-1" d="M259.91,29.75l-.54.36C259.38,29.74,259.58,29.66,259.91,29.75Z"></path><path class="cls-1" d="M258.35,30.45c-.08,0-.19,0-.15-.16a.06.06,0,0,1,.05-.05c.12,0,.07.13.1.21Z"></path><path class="cls-1" d="M249.74,51.2l0,0,0,0Z"></path><path class="cls-1" d="M260,29.67l-.06,0Z"></path><path class="cls-1" d="M224.51,11.26a.1.1,0,0,1,0,.05s-.07,0-.07,0l0,0S224.49,11.25,224.51,11.26Z"></path><polygon class="cls-1" points="225.47 11.25 225.45 11.28 225.44 11.25 225.47 11.25"></polygon><polygon class="cls-1" points="223.98 11.41 223.96 11.43 223.95 11.4 223.98 11.41"></polygon><path class="cls-1" d="M221.92,11.73h0Z"></path></svg>