<svg xmlns="http://www.w3.org/2000/svg" id="Layer_1" data-name="Layer 1" viewBox="0 0 337.32 82.2"><defs><style>.cls-1{fill:#fff;}</style></defs><path class="cls-1" d="M105.42,42.14c.47-2.36.93-4.57,1.35-6.8.48-2.56.47-2.57,3-2.57h10.26c-.38,2-.73,3.84-1.09,5.7-.65,3.3-1.33,6.6-2,9.91-.11.58-.34.73-.9.73-4.51,0-9,0-13.54,0a1.88,1.88,0,0,1-1.06-.38q-5.59-4.26-11.17-8.56c-.25-.19-.54-.36-.89-.59-.54,2.71-1.07,5.31-1.57,7.92-.31,1.63-.29,1.63-2,1.63H75.14c.49-2.57,1-5.08,1.46-7.59.53-2.68,1.09-5.36,1.59-8,.1-.53.3-.71.83-.71,4.82,0,9.64,0,14.46,0a1.93,1.93,0,0,1,1.12.47q5,4.13,10,8.28C104.82,41.74,105.07,41.89,105.42,42.14Z"></path><path class="cls-1" d="M262.35,49.11c-4.36,0-8.72,0-13.08,0a2.38,2.38,0,0,1-1.13-.47c-2.69-1.79-5.35-3.61-8-5.41a7.76,7.76,0,0,0-.72-.37c-.34,2.11-.68,4.14-1,6.22h-11.5c.22-1.45.41-2.85.64-4.25.58-3.65,1.2-7.3,1.74-11,.11-.7.34-.91,1-.9,6.92,0,13.84,0,20.77.13a22,22,0,0,1,8.21,1.43,8.21,8.21,0,0,1,2.23,1.37,2.3,2.3,0,0,1,.12,3.54,7.66,7.66,0,0,1-4.13,2.17c-1.86.42-3.75.72-5.84,1.1l10.77,6.25Zm-22.6-8.56c1.15,0,2.19.06,3.21,0A48.18,48.18,0,0,0,248.2,40c1.35-.23,2-.95,1.94-1.72s-.71-1.46-2-1.6c-2.5-.26-5-.37-7.63-.55Z"></path><path class="cls-1" d="M284.87,49.06l1.27-6.1c.65-3.09,1.29-6.18,2-9.25.06-.28.38-.71.59-.72,3.59,0,7.19,0,11,0-.5,2.45-1,4.79-1.5,7.35l5-2.43,9.5-4.64a2.51,2.51,0,0,1,1-.27c4,0,8,0,12,0a.62.62,0,0,1,.47.21l-16.83,7.65,15.22,8.23c-.45,0-.67.06-.89.06-4.24,0-8.48,0-12.72,0a2.59,2.59,0,0,1-1.27-.36c-3.63-2.11-7.24-4.25-10.85-6.37-.29-.17-.58-.31-1-.51-.53,2.47-1,4.86-1.55,7.21Z"></path><path class="cls-1" d="M135.69,38.72h14.73l-.68,4h-1c-4.18,0-8.37,0-12.55,0-1,0-1.55.2-1.53,1.28a6,6,0,0,1-.11.91h19.19L153,49.07H123.27c.76-4.36,1.52-8.68,2.27-13,.15-.84.36-1.67.43-2.52,0-.66.35-.81.94-.78s1.28,0,1.92,0H155l-.67,3.93H137.53C135.73,36.7,135.73,36.7,135.69,38.72Z"></path><path class="cls-1" d="M170.89,33.13c-.29,1.56-.58,3.16-.88,4.76-.26,1.43-.55,2.86-.77,4.3-.29,1.89.38,2.89,2.26,3.3a17.36,17.36,0,0,0,8.23-.18,3.44,3.44,0,0,0,2.66-2.72c.61-2.78,1.12-5.59,1.67-8.38.08-.39.15-.77.24-1.2h10.29c-.28,1.54-.55,3.05-.84,4.55-.36,1.81-.71,3.63-1.1,5.43a6.2,6.2,0,0,1-3.58,4.34,17.33,17.33,0,0,1-6.66,1.75c-3.82.24-7.66.39-11.5.36a25.55,25.55,0,0,1-8.17-1.23c-.32-.1-.63-.22-.94-.35-2.55-1.15-3.42-2.63-3-5.37.49-3,1.07-6,1.65-9a.91.91,0,0,1,.64-.55c3.17,0,6.35,0,9.52,0C170.68,33,170.73,33,170.89,33.13Z"></path><path class="cls-1" d="M225.81,33c-.21,1.22-.38,2.32-.64,3.4,0,.17-.53.32-.81.32-2.35,0-4.7,0-7.05,0-.65,0-.95.14-1.08.86-.69,3.84-1.45,7.67-2.19,11.53H203.53c.78-4.11,1.55-8.18,2.35-12.37H197.2c.22-1.2.4-2.3.64-3.39,0-.15.35-.31.55-.33.51,0,1,0,1.55,0h25.87Z"></path><path class="cls-1" d="M266.66,49.11l3-16.27h12.28c-.3,1.68-.57,3.28-.86,4.88q-1,5.37-2,10.73c-.05.25-.36.63-.54.63C274.59,49.12,270.65,49.11,266.66,49.11Z"></path><path class="cls-1" d="M34.4,30.82a2.43,2.43,0,0,1-.63.41,11.29,11.29,0,0,0-3.48,1.44,1.72,1.72,0,0,1-2,0,2.25,2.25,0,0,1-.28-.38c.3.06.46.07.61.12a1.72,1.72,0,0,0,1.54-.2,10.68,10.68,0,0,1,4.11-1.54Z"></path><path class="cls-1" d="M60.24,34.68a28.39,28.39,0,0,0-2.78-6.63,22.65,22.65,0,0,0-3.64-4.64A26.09,26.09,0,0,0,48,19.08a24.35,24.35,0,0,0-4.63-1.93,23.91,23.91,0,0,0-4.17-.85,21.18,21.18,0,0,0-4.64-.12,1.82,1.82,0,0,0-.33,0,25.52,25.52,0,0,0-9.35,2.64,23.35,23.35,0,0,0-3.26,2,22.86,22.86,0,0,0-3.45,3L18,24l-.06.1a1.08,1.08,0,0,0-.18.11A24,24,0,0,0,13.3,31c.1,0,.18.06.17.17a.12.12,0,0,1-.09.1c-.09,0-.09-.09-.1-.15a1,1,0,0,0-.24.52,22.28,22.28,0,0,0-1.5,5.18,25.38,25.38,0,0,0-.21,7.07A14.35,14.35,0,0,0,12,47.26a.21.21,0,0,1,.08.23h0a14.61,14.61,0,0,0,.92,2.9A24.65,24.65,0,0,0,24.62,63.26a24.34,24.34,0,0,0,16.69,2.27,24.24,24.24,0,0,0,13.38-7.71,24.51,24.51,0,0,0,6.44-16.39A24.89,24.89,0,0,0,60.24,34.68Zm-4.56,11a19.36,19.36,0,0,1-3.17,7,19.88,19.88,0,0,1-9.83,7.34,20.26,20.26,0,0,1-15.76-1.13,18,18,0,0,1-3.79-2.57.19.19,0,0,1-.21-.15l-.09,0a6.13,6.13,0,0,0-1-1.08,16.48,16.48,0,0,1-2-2.42l-.16-.29c-.09,0-.18,0-.17-.14-.3-.47-.6-.94-.89-1.41-.32-.94-.94-1.74-1.22-2.71A1,1,0,0,0,17.3,48a0,0,0,0,0,0-.06.14.14,0,0,1-.07-.17s0,0,0-.06c-.27-1-.58-2.07-.78-3.14a19.1,19.1,0,0,1-.25-4.95c.29-.54.08-1.14.21-1.7a22.09,22.09,0,0,1,1.23-4.38,25.9,25.9,0,0,1,2-3.73,20,20,0,0,1,3.79-4.12,20.51,20.51,0,0,1,3.68-2.42c.69-.35,1.43-.57,2.09-1a21.69,21.69,0,0,1,4.57-1.07c1.22-.14,2.45,0,3.67-.1l.44,0c.08-.1.15-.1.21,0l2.24.34.12,0,0-.05.1.09v0l.11,0,.21,0,.12,0,.33.1a16.59,16.59,0,0,1,4.24,1.65c.11,0,.2.15.34.12a2.32,2.32,0,0,0,.63.4l.1.08A19.59,19.59,0,0,1,52,28.82,19.83,19.83,0,0,1,55.7,36.6,20.39,20.39,0,0,1,55.68,45.73Z"></path><path class="cls-1" d="M58.77,16.32a2,2,0,0,0-2,2.06,2.07,2.07,0,1,0,4.13,0A2.07,2.07,0,0,0,58.77,16.32Zm0,3.85a1.79,1.79,0,1,1,0-3.58,1.79,1.79,0,1,1,0,3.58Z"></path><path class="cls-1" d="M13.47,31.17a.12.12,0,0,1-.09.1c-.09,0-.09-.09-.1-.15a.5.5,0,0,0,0-.12C13.4,31,13.48,31.06,13.47,31.17Z"></path><path class="cls-1" d="M12.06,47.49c-.11,0-.07-.14-.08-.23A.21.21,0,0,1,12.06,47.49Z"></path><path class="cls-1" d="M19.65,52.38c-.09,0-.18,0-.17-.14S19.64,52.27,19.65,52.38Z"></path><path class="cls-1" d="M40.6,21.54l-.13,0h0l0-.05Z"></path><path class="cls-1" d="M40.7,21.59c0,.06-.08.05-.11,0Z"></path><path class="cls-1" d="M38.09,21.13h-.21C38,21,38,21,38.09,21.13Z"></path><path class="cls-1" d="M40.47,21.51l-.14,0,.12,0Z"></path><path class="cls-1" d="M17.28,47.91a.14.14,0,0,1-.07-.17S17.25,47.85,17.28,47.91Z"></path><path class="cls-1" d="M52.74,44c0-.26-.06-.53.12-.77C52.85,43.51,52.93,43.79,52.74,44Z"></path><path class="cls-1" d="M52.9,42.73a.19.19,0,0,1,.05-.25A.23.23,0,0,1,52.9,42.73Z"></path><path class="cls-1" d="M52.66,44.35a.2.2,0,0,1,.07-.25A.23.23,0,0,1,52.66,44.35Z"></path><path class="cls-1" d="M23.13,56.36a.19.19,0,0,1-.21-.15C23,56.23,23.1,56.26,23.13,56.36Z"></path><path class="cls-1" d="M41.92,56.92a.23.23,0,0,1-.25.1A.22.22,0,0,1,41.92,56.92Z"></path><path class="cls-1" d="M52.87,43.16V43C52.94,43.06,52.93,43.11,52.87,43.16Z"></path><path class="cls-1" d="M37.34,23.92H35A6.2,6.2,0,0,1,37.34,23.92Z"></path><path class="cls-1" d="M38.32,24A.38.38,0,0,1,38,24,.29.29,0,0,1,38.32,24Z"></path><path class="cls-1" d="M39,24.12a.19.19,0,0,1-.22-.06A.19.19,0,0,1,39,24.12Z"></path><path class="cls-1" d="M34.42,24l-.23.07A.17.17,0,0,1,34.42,24Z"></path><path class="cls-1" d="M59.76,19.25c-.18.1-.28,0-.37-.12s-.19-.3-.29-.45a.53.53,0,0,0-.65-.24c-.26.07-.09.3-.14.46s.12.38-.15.37-.1-.23-.1-.35c0-.4,0-.79,0-1.19s.05-.44.37-.4.55,0,.81,0c.42.06.62.57.29.8s-.2.41,0,.64A4.12,4.12,0,0,1,59.76,19.25Zm-1-1.69c-.2,0-.5-.13-.5.32s.22.34.46.33.6,0,.61-.35S59.05,17.56,58.8,17.56Z"></path><path class="cls-1" d="M53,37.73a21.55,21.55,0,0,0-1-3.52c0-.06-.09-.1-.13-.15-.16-.34-.29-.69-.47-1a16.13,16.13,0,0,0-2.65-3.7,2.76,2.76,0,0,0-.82-.74,2.31,2.31,0,0,0-.72-.67c-.23-.18-.58-.27-.67-.61l-.36-.23a14,14,0,0,0-3.87-2.05A17.52,17.52,0,0,0,39,24.12a.19.19,0,0,1-.22-.06l-.43,0A.38.38,0,0,1,38,24l-.64,0H35l-.53,0-.23.07a14,14,0,0,0-3.22.65,17.25,17.25,0,0,0-7.5,4.83A17,17,0,0,0,19,40.15a18.51,18.51,0,0,0,.8,6.36,14.55,14.55,0,0,0,2.1,4.32,21,21,0,0,0,3,3.37c.18.16.31.41.6.42l.1.11a.69.69,0,0,0,.11.13A17.2,17.2,0,0,0,27.49,56c.44.23.85.48,1.3.68a19.19,19.19,0,0,0,3.09,1.08,8.6,8.6,0,0,0,2.75.44,8,8,0,0,0,2,.07,14.18,14.18,0,0,0,4.57-.72c.33-.09.45-.24.44-.55h.07a.22.22,0,0,1,.25-.1A14.78,14.78,0,0,0,46,54.76a16.76,16.76,0,0,0,6.66-10.41.2.2,0,0,1,.07-.25V44c0-.26-.06-.53.12-.77,0,0,0-.06,0-.09V43l0-.28a.19.19,0,0,1,.05-.25c.21,0,.4,0,.4-.28A16.36,16.36,0,0,0,53,37.73Zm-20.37.41a1.47,1.47,0,0,1-1.94,1.18c-.28-.18-.57-.36-.85-.56-1-.68-1.92-1.37-2.9-2-.12-.08-.25-.37-.46-.09a10.49,10.49,0,0,0,1,10.76,1.54,1.54,0,0,1,.2,1.74,1.43,1.43,0,0,1-1.69.63l-.64-.43a19.43,19.43,0,0,1-1.61-2.7,15.25,15.25,0,0,1-1-3.85c-.08-.62-.07-1.25-.1-1.88a13.72,13.72,0,0,1,1.15-5.21c.5-1.09.87-2.32,2.18-2.79l1,.27c1,.73,2,1.48,3,2.17A24,24,0,0,0,32.32,37C32.42,37.37,32.72,37.69,32.66,38.14Zm4.92-7V47q0,3.2,0,6.39a1.35,1.35,0,0,1-1,1.41,1.49,1.49,0,0,1-1.63-.5l-.15-.3a11,11,0,0,1-.11-2.15q0-10.61,0-21.21a.78.78,0,0,0-.58,0,10.94,10.94,0,0,0-3.64,1.45,1.6,1.6,0,0,1-1.81.07,1.72,1.72,0,0,1-.53-.87A1.6,1.6,0,0,1,29,29.62c.56-.24,1.07-.59,1.63-.84a5.69,5.69,0,0,0,1.36-.6,15,15,0,0,1,5.88-.47,3,3,0,0,0,.43,0,.13.13,0,0,0,.09,0c.19,0,.39-.07.55.11a6.43,6.43,0,0,0,1.31.32l.55.22a11.36,11.36,0,0,1,3,1.62,1.45,1.45,0,0,1-.05,2,1.43,1.43,0,0,1-1.9.1,12.89,12.89,0,0,0-3.68-1.47C37.6,30.44,37.58,30.49,37.58,31.12Zm9.51,18a1.43,1.43,0,0,1-2.24.34l-2.9-2-2-1.44c-.19-.31-.18-.74-.57-.93-.13-.07-.07-.24,0-.36a1.6,1.6,0,0,1,.64-1c.24-.17.43-.31.77-.1a2.66,2.66,0,0,0,1,.16,22.17,22.17,0,0,0,2.37,1.74c.45.3.8.77,1.38.85a9.87,9.87,0,0,0,1.36-5.54,11.85,11.85,0,0,0-.56-3A9.36,9.36,0,0,0,44.84,35l-.06-.7a1.79,1.79,0,0,1,.89-1.3,3.62,3.62,0,0,1,.87,0l.53.26a4.53,4.53,0,0,1,.43.55,13,13,0,0,1,2,5.23A13.34,13.34,0,0,1,47.09,49.08Z"></path><path class="cls-1" d="M39,27.86a.94.94,0,0,1-.55-.11C38.61,27.75,38.81,27.68,39,27.86Z"></path></svg>