<svg xmlns="http://www.w3.org/2000/svg" id="Layer_1" data-name="Layer 1" viewBox="0 0 337.32 82.2"><defs><style>.cls-1{fill:#fff;}</style></defs><path class="cls-1" d="M50.71,45.38c1.73,0,3.41,0,5.09,0,.32,0,.29.22.33.38.69,2.7,1.37,5.4,2.06,8.09L60.53,63a2.87,2.87,0,0,0,.12.34l1.69-6.47q1.45-5.56,2.89-11.13c.09-.34.23-.41.56-.41,1.81,0,3.63,0,5.44,0,.23,0,.38,0,.46.3,1.46,5.69,3,11.37,4.43,17,0,0,0,0,.11.14.15-.58.3-1.11.43-1.65q2-7.77,4-15.56c0-.19.11-.28.32-.28h4.61c-.33,1.27-.64,2.51-1,3.75q-2.72,10.32-5.41,20.64c-.06.27-.15.34-.41.34q-2.77,0-5.55,0c-.27,0-.39-.06-.46-.35-1.21-4.78-2.44-9.54-3.67-14.31a25.71,25.71,0,0,0-.77-2.65c-.17.62-.35,1.24-.51,1.86Q66,61.46,64.25,68.24c-.14.54-.29,1.06-.42,1.6a.29.29,0,0,1-.34.27q-3,0-6.05,0c-.29,0-.32-.16-.37-.36Q56,65.66,55,61.58q-1.86-7.11-3.73-14.2C51.05,46.73,50.89,46.08,50.71,45.38Z"></path><path class="cls-1" d="M186.48,57.7c0-4,0-7.9,0-11.85,0-.42.13-.49.51-.48,2.88,0,5.76,0,8.63,0a15,15,0,0,1,6,1.17,9.43,9.43,0,0,1,5.5,6.29,17.24,17.24,0,0,1,0,9.76,9.59,9.59,0,0,1-7.28,6.94,16.56,16.56,0,0,1-4.14.54c-2.91,0-5.82,0-8.73,0-.39,0-.43-.13-.43-.46Q186.49,63.68,186.48,57.7Zm5.32,0v7.88c0,.21-.05.42.31.41,1.42,0,2.85,0,4.28-.11a5.83,5.83,0,0,0,5.33-4.48,14.26,14.26,0,0,0,.11-6.78,5.94,5.94,0,0,0-5.53-5c-1.35-.17-2.7-.05-4.05-.1-.36,0-.46.08-.46.44C191.81,52.53,191.8,55.11,191.8,57.69Z"></path><path class="cls-1" d="M229.91,67.42a8.14,8.14,0,0,1-1.13,1.21,5.93,5.93,0,0,1-3.89,1.12c-4.23-.06-6.25-3-6.82-6.16a12.38,12.38,0,0,1,.56-6.87,6.58,6.58,0,0,1,6.82-4.28,5.73,5.73,0,0,1,3.37,1.17A15.88,15.88,0,0,1,230,54.78c0-.53,0-1.05,0-1.58,0-.27.09-.33.34-.33q2.22,0,4.44,0c.27,0,.33.09.33.35,0,5.1,0,10.21,0,15.31a9.61,9.61,0,0,1-.85,4,7,7,0,0,1-5.2,4.11,10.47,10.47,0,0,1-7.09-.74,6.05,6.05,0,0,1-2.63-2.55c-.13-.23-.14-.35.12-.49.92-.52,1.84-1,2.74-1.59.28-.17.38-.11.57.13a4.26,4.26,0,0,0,5.31,1.3,3.5,3.5,0,0,0,1.9-2.9A16,16,0,0,0,229.91,67.42Zm-.08-6.51a7.48,7.48,0,0,0-.56-3,3,3,0,0,0-5.51,0,6.91,6.91,0,0,0-.57,2.54,9.06,9.06,0,0,0,.42,3.76,2.9,2.9,0,0,0,2.86,2,3,3,0,0,0,2.89-1.82A7.71,7.71,0,0,0,229.83,60.91Z"></path><path class="cls-1" d="M247.16,12.23c0,1.17,0,2.34,0,3.51a5.24,5.24,0,0,0,5.36,5.39c2.57-.05,5.14,0,7.71,0A2.81,2.81,0,0,1,263.17,24c0,2.1,0,4.21,0,6.32A2.65,2.65,0,0,1,261.54,33a2.7,2.7,0,0,1-3.12-.54c-.82-.76-1.61-1.56-2.4-2.35L238.14,12.44l-2.41-2.36a2.62,2.62,0,0,1-.7-2.95,2.58,2.58,0,0,1,2.44-1.81c2.33-.08,4.67-.1,7,0a2.76,2.76,0,0,1,2.68,2.9Z"></path><path class="cls-1" d="M264.8,12.21v3.64A5.14,5.14,0,0,0,270,21.11c2.62,0,5.23,0,7.85,0a2.79,2.79,0,0,1,3,2.83c0,2.18,0,4.36,0,6.55a2.59,2.59,0,0,1-1.8,2.57,2.76,2.76,0,0,1-3.05-.7l-4.63-4.57q-5.06-5-10.12-10l-7.81-7.71a2.58,2.58,0,0,1-.68-3,2.63,2.63,0,0,1,2.6-1.76c2.21,0,4.41,0,6.61,0a2.81,2.81,0,0,1,2.87,2.94Z"></path><path class="cls-1" d="M165.74,55a9.24,9.24,0,0,1,1-1.25,6,6,0,0,1,4.6-1.43,6.31,6.31,0,0,1,2.82.75,5.31,5.31,0,0,1,2.8,4.53c.22,2.65.06,5.31.09,8,0,1.37,0,2.74,0,4.11,0,.35-.1.42-.44.42-1.41,0-2.83,0-4.25,0-.36,0-.45-.09-.45-.46q0-5,0-10a3.28,3.28,0,0,0-1-2.62,3.15,3.15,0,0,0-3.29-.53,2.77,2.77,0,0,0-1.83,2.34,7,7,0,0,0-.09,1.29c0,3.15,0,6.3,0,9.45,0,.43-.12.5-.5.49-1.39,0-2.77,0-4.16,0-.38,0-.44-.11-.44-.46q0-8.16,0-16.33c0-.36.08-.46.45-.46,1.39,0,2.77,0,4.16,0,.29,0,.39.07.4.38C165.63,53.79,165.69,54.34,165.74,55Z"></path><path class="cls-1" d="M140,62.91H134.3c-.18,0-.43-.09-.38.27a4.24,4.24,0,0,0,2.57,3.58,4.15,4.15,0,0,0,4.95-1.64c.15-.28.26-.24.47-.11.9.53,1.79,1.07,2.71,1.56.32.18.32.32.15.59a6.88,6.88,0,0,1-4.32,3.13A9.39,9.39,0,0,1,132,68.82a8.2,8.2,0,0,1-3-5.25,10.21,10.21,0,0,1,.72-6.33,8,8,0,0,1,6.92-4.76A8.54,8.54,0,0,1,142.56,54a8.64,8.64,0,0,1,3.38,5.6,30.32,30.32,0,0,1,.23,3.16c0,.35-.22.19-.33.19-1.71,0-3.42,0-5.13,0Zm-2.64-3.31h3.32c.14,0,.32.08.3-.24A3.5,3.5,0,0,0,137.54,56a3.53,3.53,0,0,0-3.72,3.32c0,.26.05.3.28.3Z"></path><path class="cls-1" d="M95.28,62.91c-1.93,0-3.85,0-5.77,0-.3,0-.39,0-.33.37a4.28,4.28,0,0,0,2.26,3.37,4.2,4.2,0,0,0,5.23-1.49c.15-.25.25-.3.51-.14.89.54,1.78,1.07,2.7,1.56.34.18.29.34.14.59a6.92,6.92,0,0,1-3.8,3A9.67,9.67,0,0,1,89,69.88a8.17,8.17,0,0,1-4.87-6.71,9.9,9.9,0,0,1,1.2-6.71,8,8,0,0,1,6.55-4,8.31,8.31,0,0,1,9.32,7.36c.15.9.09,1.81.18,2.71,0,.31-.06.38-.36.38Zm-2.56-3.32H96c.21,0,.32,0,.31-.29a3.59,3.59,0,0,0-7.14-.23c-.09.47,0,.54.47.52C90.69,59.57,91.7,59.59,92.72,59.59Z"></path><path class="cls-1" d="M267.31,68.45a6,6,0,0,1-2.28,1.7,6.48,6.48,0,0,1-7-1.18c-2.05-2.12-2.42-7.08,1.87-8.84a14.94,14.94,0,0,1,5.73-.87,11,11,0,0,1,1.15,0c.37,0,.42-.13.41-.45a2.88,2.88,0,0,0-2.62-2.74,4.57,4.57,0,0,0-4.51,1.43c-.14.18-.23.12-.37,0-.81-.62-1.61-1.23-2.43-1.82-.24-.18-.18-.29,0-.47a6.43,6.43,0,0,1,3.4-2.32,11.14,11.14,0,0,1,8,.49,5.78,5.78,0,0,1,3.54,5.52c.05,3.61,0,7.22,0,10.84,0,.3-.11.34-.37.34-1.38,0-2.77,0-4.15,0-.33,0-.39-.11-.37-.39S267.31,68.87,267.31,68.45Zm-1.6-6.2h0c-.35,0-.71,0-1.06,0a4.39,4.39,0,0,0-2,.54,2.25,2.25,0,0,0-.05,3.8,3,3,0,0,0,4.07-1,4.4,4.4,0,0,0,.55-2.48c-.06-.9-.08-.9-1-.9Z"></path><path class="cls-1" d="M110,52.43A9.37,9.37,0,0,1,115.54,54a6.54,6.54,0,0,1,1.37,1.41c.12.17.11.24-.06.36-.95.62-1.9,1.25-2.83,1.89-.18.12-.25.09-.37-.06a4.13,4.13,0,0,0-4.38-1.53c-.91.15-1.38.7-1.31,1.43a1.32,1.32,0,0,0,.8,1.05,14.67,14.67,0,0,0,2.66.84,15.52,15.52,0,0,1,3.35,1.37,4.87,4.87,0,0,1,2.61,4.85,4.63,4.63,0,0,1-3.12,4.19,10.83,10.83,0,0,1-9.87-.59,5.52,5.52,0,0,1-1.86-1.89c-.14-.23-.12-.35.14-.48,1-.48,1.91-1,2.85-1.5.25-.14.37-.11.55.12a4.8,4.8,0,0,0,5.47,1.31,1.35,1.35,0,0,0,1-1.21,1.31,1.31,0,0,0-.9-1.26,26.22,26.22,0,0,0-3.56-1.22,9.29,9.29,0,0,1-3.22-1.61,4.83,4.83,0,0,1,.8-8A8.87,8.87,0,0,1,110,52.43Z"></path><path class="cls-1" d="M119.56,57.45c0-2.81,0-5.63,0-8.44,0-.35.07-.48.46-.47,1.38,0,2.76,0,4.15,0,.31,0,.39.09.38.39,0,1.18,0,2.37,0,3.55,0,.33.1.4.41.4,1,0,2.09,0,3.14,0,.28,0,.41,0,.4.37q0,1.38,0,2.76c0,.27-.09.34-.34.34-1.08,0-2.16,0-3.23,0-.17,0-.38-.07-.38.25,0,2.73,0,5.47,0,8.2,0,1.62,1.12,2.67,3,2.44.77-.1.77-.1.77.69,0,.63,0,1.26,0,1.89,0,.2,0,.33-.26.4a9.52,9.52,0,0,1-4.82.3,4.39,4.39,0,0,1-3.58-3.94,11.8,11.8,0,0,1-.15-2Z"></path><path class="cls-1" d="M246.68,57.33c0-2.78,0-5.56,0-8.34,0-.33.06-.45.43-.45,1.38,0,2.77,0,4.15,0,.35,0,.44.1.43.44,0,1.09,0,2.19,0,3.28,0,.61,0,.61.59.61,1,0,2,0,3,0,.28,0,.36.08.36.36,0,.91,0,1.81,0,2.72,0,.29-.06.39-.38.39-1,0-2.09,0-3.14,0-.32,0-.4.09-.4.41,0,2.61,0,5.23,0,7.84a2.43,2.43,0,0,0,3,2.66c.84-.09.84-.1.84.74v1.84c0,.19,0,.32-.23.38a9,9,0,0,1-5.61.09,4.42,4.42,0,0,1-2.82-3.83,27.24,27.24,0,0,1-.13-4.14C246.67,60.65,246.68,59,246.68,57.33Z"></path><path class="cls-1" d="M280.84,57.74c0,4,0,7.93,0,11.89,0,.38-.08.49-.47.48-1.46,0-2.93,0-4.39,0-.3,0-.37-.09-.37-.38v-24c0-.29.06-.39.37-.38,1.48,0,2.95,0,4.43,0,.35,0,.43.08.43.43Q280.83,51.77,280.84,57.74Z"></path><path class="cls-1" d="M153,55.69c.19-.33.36-.67.57-1a5.23,5.23,0,0,1,3.57-2.14c.51-.09,1-.1,1.55-.15.24,0,.36,0,.36.31,0,1.1,0,2.19,0,3.28,0,.32-.16.32-.39.33a5.26,5.26,0,0,0-4.14,1.87,4.72,4.72,0,0,0-1,3c0,2.83,0,5.66,0,8.49,0,.35-.07.46-.44.45-1.43,0-2.87,0-4.3,0-.31,0-.37-.09-.37-.38q0-8.22,0-16.42c0-.34.06-.45.42-.45,1.22,0,2.44,0,3.65,0,.41,0,.48.13.47.5,0,.77,0,1.54,0,2.3Z"></path><path class="cls-1" d="M274.65,5.41c1,0,2,0,3,0a2.9,2.9,0,0,1,3.24,3.11c0,2.11.06,4.23,0,6.34A2.83,2.83,0,0,1,276,16.74c-2.3-2.26-4.59-4.51-6.84-6.8a2.4,2.4,0,0,1-.44-2.79,2.59,2.59,0,0,1,2.35-1.72c1.18,0,2.37,0,3.55,0Z"></path><path class="cls-1" d="M238.25,61.47c0-2.7,0-5.41,0-8.11,0-.37.07-.5.47-.5,1.46,0,2.92,0,4.38,0,.31,0,.39.08.39.38q0,8.24,0,16.47c0,.29-.06.39-.37.39q-2.22,0-4.44,0c-.34,0-.43-.07-.43-.43C238.26,67,238.25,64.21,238.25,61.47Z"></path><path class="cls-1" d="M215.57,61.48c0,2.7,0,5.41,0,8.11,0,.45-.14.53-.54.52-1.45,0-2.89,0-4.34,0-.31,0-.38-.09-.38-.38q0-8.22,0-16.43c0-.34.09-.44.44-.44q2.19,0,4.38,0c.36,0,.44.11.43.45C215.56,56,215.57,58.75,215.57,61.48Z"></path><path class="cls-1" d="M243.57,47.77A2.77,2.77,0,1,1,240.82,45,2.77,2.77,0,0,1,243.57,47.77Z"></path><path class="cls-1" d="M210.12,47.74a2.78,2.78,0,0,1,5.55.06,2.78,2.78,0,0,1-5.55-.06Z"></path><path class="cls-1" d="M285.91,32.44c.11-.32.18-.56.27-.8a.25.25,0,0,1,.28-.18c.21,0,.14.17.14.27,0,.28,0,.56,0,.83,0,.1.09.28-.12.28s-.13-.17-.14-.28v-.3c-.25.15-.15.55-.4.57s-.22-.38-.4-.53c0,0-.05,0-.06,0s.12.49-.16.48-.08-.33-.1-.51a3,3,0,0,1,0-.6c0-.09-.05-.22.12-.24a.22.22,0,0,1,.28.17C285.7,31.88,285.79,32.12,285.91,32.44Z"></path><path class="cls-1" d="M285.11,31.56c0,.13-.05.17-.13.15-.37-.06-.29.19-.34.41s.25.7-.19.7-.12-.44-.15-.68,0-.49-.37-.43a.1.1,0,0,1-.1-.12s.05-.1.07-.1H285S285.1,31.55,285.11,31.56Z"></path></svg>