<svg xmlns="http://www.w3.org/2000/svg" id="Layer_1" data-name="Layer 1" viewBox="0 0 337.32 82.2"><defs><style>.cls-1{fill:#fff;}</style></defs><path class="cls-1" d="M89.84,53l.61-2.18-2.63,1.72a19.35,19.35,0,0,1-4.13,2l-7,2.43,2-4.87-7.57,4.67L85.37,37.41s-.35,5.83,1.42,7.15,10.82.82,10.82.82l2.94,1.72Z"></path><path class="cls-1" d="M115.82,47.55a9.81,9.81,0,0,1-2.22,5.7l-.69-2.17L112.8,51c-4.18,6-11.26,10.86-20,13-16,3.91-31.46-3-34.48-15.35a18.6,18.6,0,0,1,.1-9l-7.11,1,9.45-6.69a29.18,29.18,0,0,1,8.33-9L65.4,20.63,72,23.11c.6-.35,1.22-.69,1.86-1l-11-5,11.87,3.51h0l1.43.43.17-.07a37.17,37.17,0,0,1,5.58-1.82c16-3.9,31.46,3,34.48,15.35a18.81,18.81,0,0,1-.65,10.86l0-.18A12,12,0,0,0,112,38.85a15.8,15.8,0,0,0-.35-5.34c-2.62-10.75-16.23-16.67-30.4-13.22q-1.76.43-3.42,1l11.52,2.55h.15a19.21,19.21,0,0,0-2.6-2.56s7.87,1.12,10.83,2.4c1.2.52,3.94,3.53,5.27,4.76s3.12,2.19,4.09,3.52a12.74,12.74,0,0,1,1.73,4l-.32-.35a8.26,8.26,0,0,0-3.23-2.1L99,31.32l4.5.66-27-10.14h0c-.8.32-1.58.68-2.34,1.05l-.69.76L73,23.48l-.08.05,23.53,7-3.7,1.06A50.5,50.5,0,0,1,79,33.5,51.35,51.35,0,0,1,72.15,33l6.41,2.76L60.47,38.18c-.1.39-.19.77-.26,1.16A15.92,15.92,0,0,0,60.36,46C63,56.76,76.59,62.67,90.76,59.22c7.87-1.92,14.25-6.32,17.93-11.7L113.18,49s.09.55.22,1.15c0,.15.07.3.1.45l.06.22a4.07,4.07,0,0,0,.22.65,1.34,1.34,0,0,0,.06.12l0,0A8.47,8.47,0,0,0,115.82,47.55Z"></path><path class="cls-1" d="M78.56,35.79,60.47,38.18A19.6,19.6,0,0,1,63,32.53h0a2.75,2.75,0,0,0,.19-.28l.08-.05,5.21-5.68c.65-.53,1.33-1,2-1.51s1.57-1,2.4-1.47l23.53,7-3.7,1.06A50.5,50.5,0,0,1,79,33.5,51.35,51.35,0,0,1,72.15,33Z"></path><path class="cls-1" d="M97.61,45.38l2.94,1.72L89.84,53l.61-2.18-2.63,1.72a19.35,19.35,0,0,1-4.13,2l-7,2.43,2-4.87-7.57,4.67L85.37,37.41s-.35,5.83,1.42,7.15S97.61,45.38,97.61,45.38Z"></path><path class="cls-1" d="M108.84,36l-.32-.35a8.26,8.26,0,0,0-3.23-2.1L99,31.32l4.5.66-27-10.14,1-.4.36-.13h0l11.52,2.55h.15a19.21,19.21,0,0,0-2.6-2.56s7.87,1.12,10.83,2.4c1.2.52,3.94,3.53,5.27,4.76s3.12,2.19,4.09,3.52A12.74,12.74,0,0,1,108.84,36Z"></path><path class="cls-1" d="M68.46,26.51l-5.21,5.68-.07.05A25.59,25.59,0,0,1,68.46,26.51Z"></path><path class="cls-1" d="M74.12,22.89l-.69.76L73,23.48Z"></path><path class="cls-1" d="M89.84,53l.61-2.18-2.63,1.72a19.35,19.35,0,0,1-4.13,2l-7,2.43,2-4.87-7.57,4.67L85.37,37.41s-.35,5.83,1.42,7.15,10.82.82,10.82.82l2.94,1.72Z"></path><path class="cls-1" d="M96.44,30.54l-3.7,1.06A50.5,50.5,0,0,1,79,33.5,51.35,51.35,0,0,1,72.15,33l6.41,2.76L60.47,38.18l-6,.79L63,32.53h0l8.47-6.42L70.51,25,68,22.06l4.91,1.47Z"></path><path class="cls-1" d="M108.84,36l-.32-.35a8.26,8.26,0,0,0-3.23-2.1L99,31.32l4.5.66-27-10.14h0l-5.39-2,3.65.8h0l1.6.36,1.53.33h0l11.52,2.55h.15a19.21,19.21,0,0,0-2.6-2.56s7.87,1.12,10.83,2.4c1.2.52,3.94,3.53,5.27,4.76s3.12,2.19,4.09,3.52A12.74,12.74,0,0,1,108.84,36Z"></path><path class="cls-1" d="M168.67,53.49h-1.92V56h1.95c1,0,1.48-.5,1.48-1.24v0C170.18,53.92,169.6,53.49,168.67,53.49Zm0,0h-1.92V56h1.95c1,0,1.48-.5,1.48-1.24v0C170.18,53.92,169.6,53.49,168.67,53.49Zm0,0h-1.92V56h1.95c1,0,1.48-.5,1.48-1.24v0C170.18,53.92,169.6,53.49,168.67,53.49Zm0,0h-1.92V56h1.95c1,0,1.48-.5,1.48-1.24v0C170.18,53.92,169.6,53.49,168.67,53.49Zm0,0h-1.92V56h1.95c1,0,1.48-.5,1.48-1.24v0C170.18,53.92,169.6,53.49,168.67,53.49Zm0,0h-1.92V56h1.95c1,0,1.48-.5,1.48-1.24v0C170.18,53.92,169.6,53.49,168.67,53.49Zm0,0h-1.92V56h1.95c1,0,1.48-.5,1.48-1.24v0C170.18,53.92,169.6,53.49,168.67,53.49Zm0,0h-1.92V56h1.95c1,0,1.48-.5,1.48-1.24v0C170.18,53.92,169.6,53.49,168.67,53.49Zm0,0h-1.92V56h1.95c1,0,1.48-.5,1.48-1.24v0C170.18,53.92,169.6,53.49,168.67,53.49Zm0,0h-1.92V56h1.95c1,0,1.48-.5,1.48-1.24v0C170.18,53.92,169.6,53.49,168.67,53.49Zm0,0h-1.92V56h1.95c1,0,1.48-.5,1.48-1.24v0C170.18,53.92,169.6,53.49,168.67,53.49Zm0,0h-1.92V56h1.95c1,0,1.48-.5,1.48-1.24v0C170.18,53.92,169.6,53.49,168.67,53.49Zm0,0h-1.92V56h1.95c1,0,1.48-.5,1.48-1.24v0C170.18,53.92,169.6,53.49,168.67,53.49Zm0,0h-1.92V56h1.95c1,0,1.48-.5,1.48-1.24v0C170.18,53.92,169.6,53.49,168.67,53.49ZM129,47.71a5.59,5.59,0,0,0-5.59,5.58V64.56h157A5.58,5.58,0,0,0,286,59V47.71Zm22.55,10.22c0,1.74-1.32,2.72-3.22,2.72a5.62,5.62,0,0,1-3.72-1.4l1.14-1.37A4,4,0,0,0,148.34,59c.79,0,1.26-.32,1.26-.83v0c0-.48-.29-.74-1.76-1.11-1.77-.46-2.91-.94-2.91-2.69v0c0-1.6,1.28-2.65,3.07-2.65a5.05,5.05,0,0,1,3.26,1.12l-1,1.45a4.12,4.12,0,0,0-2.29-.87c-.73,0-1.12.35-1.12.77v0c0,.58.38.76,1.89,1.15,1.78.46,2.78,1.1,2.78,2.63Zm10.26-1.23c0,2.66-1.49,4-3.85,4s-3.8-1.32-3.8-3.9v-5h1.94v5c0,1.43.71,2.17,1.89,2.17s1.89-.71,1.89-2.11v-5h1.93Zm8.37,3.82-1.89-2.81h-1.51v2.81h-1.93V51.75h4a3.49,3.49,0,0,1,2.56.89,2.77,2.77,0,0,1,.75,2v0a2.73,2.73,0,0,1-1.88,2.72l2.14,3.13Zm9.36.07h-1.7l-3.55-8.84h2.13l2.3,6.18L181,51.75h2.08Zm13.06-.07h-6.68V51.75h6.62v1.71h-4.7v1.78H192V57h-4.14v1.84h4.76Zm6,0h-1.93V51.75h1.93Zm10.05,0h-5.85V51.75h1.93v7h3.92Zm9.23,0H212V51.75H214v7h3.88Zm10.94,0-.81-2-.68-1.7L226.13,54,225,56.84h1l.61,1.67h-2.29l0,0-.8,2h-2l.86-2h-1.63l.88-1.67h1.46l2.19-5.16H227l3.77,8.84Zm5.81,0V54.87l1.87,2.48,0,3.17Zm8.63,0h-1.64l-4.25-5.58-2.42-3.18h2.29l4.12,5.4v-5.4h1.9Zm8.14.15a4.43,4.43,0,0,1-4.5-4.51v0a4.46,4.46,0,0,1,4.57-4.54A4.52,4.52,0,0,1,254.9,53l-1.22,1.42a3.23,3.23,0,0,0-2.25-1,2.6,2.6,0,0,0-2.54,2.73v0a2.6,2.6,0,0,0,2.54,2.75,3.2,3.2,0,0,0,2.31-1L255,59.11A4.52,4.52,0,0,1,251.37,60.67Zm13.42-.15H258.1V51.75h6.62v1.71H260v1.78h4.14V57H260v1.84h4.77Zm-96.12-7h-1.92V56h1.95c1,0,1.48-.5,1.48-1.24v0C170.18,53.92,169.6,53.49,168.67,53.49Zm0,0h-1.92V56h1.95c1,0,1.48-.5,1.48-1.24v0C170.18,53.92,169.6,53.49,168.67,53.49Zm0,0h-1.92V56h1.95c1,0,1.48-.5,1.48-1.24v0C170.18,53.92,169.6,53.49,168.67,53.49Zm0,0h-1.92V56h1.95c1,0,1.48-.5,1.48-1.24v0C170.18,53.92,169.6,53.49,168.67,53.49Zm0,0h-1.92V56h1.95c1,0,1.48-.5,1.48-1.24v0C170.18,53.92,169.6,53.49,168.67,53.49Zm0,0h-1.92V56h1.95c1,0,1.48-.5,1.48-1.24v0C170.18,53.92,169.6,53.49,168.67,53.49Zm0,0h-1.92V56h1.95c1,0,1.48-.5,1.48-1.24v0C170.18,53.92,169.6,53.49,168.67,53.49Zm0,0h-1.92V56h1.95c1,0,1.48-.5,1.48-1.24v0C170.18,53.92,169.6,53.49,168.67,53.49Zm0,0h-1.92V56h1.95c1,0,1.48-.5,1.48-1.24v0C170.18,53.92,169.6,53.49,168.67,53.49Zm0,0h-1.92V56h1.95c1,0,1.48-.5,1.48-1.24v0C170.18,53.92,169.6,53.49,168.67,53.49Zm0,0h-1.92V56h1.95c1,0,1.48-.5,1.48-1.24v0C170.18,53.92,169.6,53.49,168.67,53.49Zm0,0h-1.92V56h1.95c1,0,1.48-.5,1.48-1.24v0C170.18,53.92,169.6,53.49,168.67,53.49Zm0,0h-1.92V56h1.95c1,0,1.48-.5,1.48-1.24v0C170.18,53.92,169.6,53.49,168.67,53.49Z"></path><path class="cls-1" d="M139.28,26.68a5.61,5.61,0,0,0-.62-.47c-2.1-1.48-5.08-.76-5.15-3.37a2.11,2.11,0,0,1,2.12-2.11,2.46,2.46,0,0,1,2.36,2l2.29-1.64a4.95,4.95,0,0,0-9.45,2.05c0,4.52,4.3,4.89,5.27,5.11a2.69,2.69,0,0,1,2.27,2.34c0,.11,0,.21,0,.32a2.65,2.65,0,0,1-2.69,2.69c-2.67-.1-2.76-2.89-2.75-3l-2.77.58a5.48,5.48,0,1,0,9.1-4.54Z"></path><polygon class="cls-1" points="249.89 30.06 246.59 21.47 245.55 18.76 244.83 18.76 243.79 21.47 240.49 30.05 236.15 18.76 233.34 18.76 239.09 33.7 240.07 36.27 240.9 36.27 241.89 33.7 245.19 25.12 248.49 33.7 249.47 36.27 250.3 36.27 251.29 33.7 257.03 18.76 254.23 18.76 249.89 30.06"></polygon><polygon class="cls-1" points="221.49 18.7 221.02 17.64 220.53 18.7 219.57 20.72 215.55 29.26 212.99 29.26 211.7 32.06 214.23 32.06 212.27 36.22 215.07 36.22 217.03 32.06 221.61 32.06 220.43 29.26 218.35 29.26 220.92 23.81 226.34 36.22 229.14 36.22 222.37 20.72 221.49 18.7"></polygon><polygon class="cls-1" points="201.41 25.49 194.29 25.49 194.29 18.76 191.49 18.76 191.49 36.27 194.29 36.27 194.29 28.3 201.41 28.3 201.41 36.27 204.21 36.27 204.21 18.76 201.41 18.76 201.41 25.49"></polygon><polygon class="cls-1" points="177.66 23.41 179.3 25.93 183.69 18.76 180.47 18.76 177.66 23.41"></polygon><polygon class="cls-1" points="169.59 18.76 175.14 29.01 175.14 36.27 177.95 36.27 177.95 28.39 172.39 18.76 169.59 18.76"></polygon><polygon class="cls-1" points="160.02 18.76 153.19 25.74 153.19 18.76 150.39 18.76 150.39 36.27 153.19 36.27 153.19 27.96 160.02 36.27 163.24 36.27 155.56 26.64 163.24 18.76 160.02 18.76"></polygon><polygon class="cls-1" points="278.33 18.76 275.11 18.76 268.31 25.72 268.31 18.76 268.29 18.76 265.51 18.76 265.49 18.76 265.49 36.27 265.51 36.27 268.29 36.27 268.31 36.27 268.31 27.99 275.11 36.27 278.33 36.27 270.66 26.64 278.33 18.76"></polygon></svg>