<svg xmlns="http://www.w3.org/2000/svg" id="Layer_1" data-name="Layer 1" viewBox="0 0 337.32 82.2"><defs><style>.cls-1{fill:#fff;}</style></defs><path class="cls-1" d="M130.47,30a4.82,4.82,0,0,0,.92-1.69q1.49-4.62,3-9.24c1.07-3.3,2.16-6.59,3.21-9.89a.75.75,0,0,1,.87-.61q6.15,0,12.28,0c.6,0,.74.09.53.72-1.77,5.39-3.49,10.8-5.24,16.19q-2.43,7.52-4.89,15a49.55,49.55,0,0,1-3,8.09,19.37,19.37,0,0,1-4.49,5.53,19.06,19.06,0,0,1-7.14,4,18.8,18.8,0,0,1-8.53.59,5.51,5.51,0,0,1-1.84-.31c1.09-1.08,2.22-2,3.26-3.1A30.75,30.75,0,0,0,125,47.45,31.44,31.44,0,0,0,128.08,38a24.86,24.86,0,0,0-1-13.13,19.47,19.47,0,0,0-6.56-8.57,25.31,25.31,0,0,0-15.35-4.94,37.19,37.19,0,0,0-8.43.71,44.31,44.31,0,0,0-12.42,4.67,46.85,46.85,0,0,0-9.23,6.65,41.89,41.89,0,0,0-7.84,9.73,34.7,34.7,0,0,0-3.08,6.77,25,25,0,0,0-.36,15.74,19.39,19.39,0,0,0,6.06,9,24.12,24.12,0,0,0,9.5,4.75,32.65,32.65,0,0,0,10.87.79,37.58,37.58,0,0,0,10.68-2.49,54.32,54.32,0,0,0,5.34-2.39c.47-.24.53-.07.51.33a.22.22,0,0,0,0,.08c.25,1.38-.33,2.12-1.61,2.77a59.89,59.89,0,0,1-9.7,4.1,47.68,47.68,0,0,1-8.11,1.77,39.5,39.5,0,0,1-11.44-.14,27.34,27.34,0,0,1-11-4.26,22.57,22.57,0,0,1-8.18-9.61,23,23,0,0,1-1.9-8.13A30.94,30.94,0,0,1,56.1,41.62a41.8,41.8,0,0,1,3.95-8.92A48.67,48.67,0,0,1,70.63,20.16,53.72,53.72,0,0,1,85.53,11,50.63,50.63,0,0,1,97.46,7.73a38.12,38.12,0,0,1,9.84-.14A31,31,0,0,1,118,10.66a22.28,22.28,0,0,1,11.49,13.6,47.76,47.76,0,0,1,1,5.06A2.33,2.33,0,0,1,130.47,30Z"></path><path class="cls-1" d="M174.23,58.87c-2.06,0-4.12,0-6.18,0-.64,0-.72-.16-.53-.75q3.31-10.06,6.57-20.14c.2-.61.41-1.22.57-1.84a3.48,3.48,0,0,0-4-4.28,9.38,9.38,0,0,0-7.77,6.74q-3.1,9.72-6.18,19.45a1,1,0,0,1-1.13.82q-6,0-12,0c-.72,0-.78-.17-.58-.82q7.32-22.82,14.58-45.64c.37-1.15.76-2.29,1.09-3.45.14-.5.42-.6.89-.6,4.07,0,8.13,0,12.2,0,.77,0,.76.25.57.84-1.35,4.21-2.67,8.42-4,12.64l-1.38,4.41c-.08.26-.26.62,0,.76s.5-.15.71-.35A19.53,19.53,0,0,1,181,21.47a8.7,8.7,0,0,1,7.26,3.08,7.66,7.66,0,0,1,1.62,6.5,63.35,63.35,0,0,1-2.36,7.89c-2,6.41-4.15,12.8-6.2,19.21a.88.88,0,0,1-1,.74C178.29,58.85,176.26,58.87,174.23,58.87Z"></path><path class="cls-1" d="M97,53.84c-1.39.9-2.72,1.75-4.12,2.48a23.27,23.27,0,0,1-12.48,2.5,12.54,12.54,0,0,1-4.07-.76,7.88,7.88,0,0,1-4.41-9.84c1.26-4,4.08-6.56,7.8-8.24,3.25-1.47,6.75-2,10.21-2.62A90.15,90.15,0,0,0,102,34.48a3,3,0,0,0,1.33-3.65,1.48,1.48,0,0,0-.74-.52A9.12,9.12,0,0,0,91.35,33a1.11,1.11,0,0,1-1.22.5c-3.81-.44-7.62-.84-11.43-1.23-.63-.07-.67-.21-.33-.72A22.7,22.7,0,0,1,96.84,21.27a63.36,63.36,0,0,1,12.54.55,9.59,9.59,0,0,1,7.9,12.56q-3.23,10-6.49,20.09a4.71,4.71,0,0,0-.17,2.8c.17.62-.06.67-.58.67-3.47,0-6.94,0-10.42,0h-.69c-1.48,0-1.68-.17-1.92-1.64A8.86,8.86,0,0,1,97,55.14C96.94,54.75,97,54.37,97,53.84Zm-7.75-2.7A9.51,9.51,0,0,0,90.88,51c5.64-.89,8.44-4.57,9.7-9.47.13-.49-.11-.51-.47-.4l-1.92.57c-2.64.72-5.33,1.24-7.92,2.14a6.73,6.73,0,0,0-4.13,3.08,2.78,2.78,0,0,0,.79,3.68A3.39,3.39,0,0,0,89.2,51.14Z"></path><path class="cls-1" d="M261.91,53.78a47.7,47.7,0,0,1-5.11,3,23.16,23.16,0,0,1-14.32,1.7c-4.75-.92-7.32-5.84-5.66-10.58a13.19,13.19,0,0,1,6.9-7.52,33.75,33.75,0,0,1,9.6-2.75,107.77,107.77,0,0,0,13.31-3,3,3,0,0,0,1.64-3.64,1.21,1.21,0,0,0-.63-.55,9.13,9.13,0,0,0-11.17,2.32,1.74,1.74,0,0,1-1.85.8c-3.7-.46-7.41-.84-11.12-1.23-.58-.06-.63-.21-.32-.67a21.92,21.92,0,0,1,14.63-9.83,48.22,48.22,0,0,1,16.9.17,9.34,9.34,0,0,1,7.34,12.32c-2.18,6.8-4.31,13.61-6.47,20.41a4.82,4.82,0,0,0-.1,2.66c.09.41.09.61-.43.61q-6.06,0-12.12,0a.7.7,0,0,1-.71-.46,5,5,0,0,1-.42-2.4C261.81,54.67,261.86,54.27,261.91,53.78ZM265.59,41c-2,.51-3.86,1-5.75,1.47s-3.48.92-5.17,1.51a6.31,6.31,0,0,0-3.31,2.26,3.28,3.28,0,0,0-.5,3.4,3,3,0,0,0,3,1.69,12.43,12.43,0,0,0,5-1.15C262.78,48.36,264.73,45.11,265.59,41Z"></path><path class="cls-1" d="M214.09,53.3a1.94,1.94,0,0,0-1,.55,20.36,20.36,0,0,1-13.67,5,8.43,8.43,0,0,1-7-3.17A7.82,7.82,0,0,1,191,49.15,82.78,82.78,0,0,1,193.74,40c1.86-5.93,3.82-11.83,5.71-17.74a1,1,0,0,1,1.13-.83q6,0,12,0c.72,0,.8.19.59.83-2.33,7.18-4.66,14.36-6.94,21.56-.9,2.86,1,5,4,4.56a9.58,9.58,0,0,0,2.5-.74c3-1.32,4.48-3.72,5.41-6.72,1.92-6.23,4-12.42,6-18.64a1,1,0,0,1,1.18-.85c4,0,8.08,0,12.12,0,.63,0,.79.11.58.77q-4.8,14.6-9.55,29.21c-.63,1.93-1.27,3.85-1.87,5.79a.84.84,0,0,1-1,.72q-6.06,0-12.12,0c-.7,0-.77-.2-.55-.79.33-.89.61-1.8.88-2.71C213.94,54.08,214,53.71,214.09,53.3Z"></path><path class="cls-1" d="M159.41,71.57c.13-1.8.09-3.55.05-5.29,0-.68.29-.7.82-.73s.71.23.7.76c0,2.52,0,5,0,7.55,0,.29.23.78-.26.83s-1.07.25-1.47-.34c-1-1.47-2-2.92-3-4.37-.25-.36-.47-1-.91-.9s-.24.81-.25,1.26c0,1.2,0,2.41,0,3.61,0,.6-.13.79-.76.8s-.71-.32-.71-.84c0-2.47,0-4.93,0-7.39,0-.32-.25-.83.25-.92s1.09-.19,1.5.44c1,1.49,2,2.93,3,4.4A3.54,3.54,0,0,0,159.41,71.57Z"></path><path class="cls-1" d="M189.28,70.19a4.49,4.49,0,1,1-9,0c0-2.25,1.53-4.85,4.45-4.8A4.49,4.49,0,0,1,189.28,70.19Zm-7.21-.12c0,.23,0,.46,0,.69A2.89,2.89,0,0,0,184,73.31a2.53,2.53,0,0,0,2.83-.87,3.88,3.88,0,0,0,.31-4.14,2.51,2.51,0,0,0-2.95-1.37C182.77,67.26,182.06,68.31,182.07,70.07Z"></path><path class="cls-1" d="M163,70.26a4.52,4.52,0,1,1,4.55,4.6A4.45,4.45,0,0,1,163,70.26Zm7.25-.12c0-.23,0-.46,0-.69a2.7,2.7,0,0,0-5.38-.31,4,4,0,0,0-.05,1.68,2.75,2.75,0,0,0,1.91,2.47,2.5,2.5,0,0,0,2.75-.73A3.41,3.41,0,0,0,170.28,70.14Z"></path><path class="cls-1" d="M199.37,72.34c0,.57,0,1.13,0,1.7s-.64,1.06-1.16.62-.79-.18-1.18-.06a4.48,4.48,0,0,1-4.82-1.12,5.54,5.54,0,0,1-.38-6.27,4.72,4.72,0,0,1,5.33-1.56,3,3,0,0,1,1.74,1.54c.12.24.49.62.07.77s-.85.54-1.28-.08a2.75,2.75,0,0,0-3.75-.72c-1.27.8-1.38,2.09-1.3,3.41a2.71,2.71,0,0,0,1.71,2.68,3.83,3.83,0,0,0,3.34-.35c.51-.29.44-.77.37-1.22s-.52-.41-.86-.43a3.31,3.31,0,0,0-.77,0c-.72.12-.88-.22-.82-.86,0-.37.15-.49.51-.49.93,0,1.85,0,2.78,0,.37,0,.5.18.49.52v1.92Z"></path><path class="cls-1" d="M125,70.11c0-1.31,0-2.62,0-3.93,0-.46.14-.63.62-.62,1.77,0,3.55,0,5.32,0,.51,0,.61.2.59.64s.05.76-.57.74c-1.16,0-2.32,0-3.47,0-.66,0-1,.2-.91.88a4.28,4.28,0,0,1,0,.62c0,.58.25.83.83.82,1,0,2.11,0,3.16,0,.55,0,.63.22.63.69s-.06.71-.63.68c-1.05,0-2.11,0-3.16,0-.58,0-.82.21-.84.81-.08,2-.1,2,1.92,2,.85,0,1.7,0,2.55,0,.51,0,.67.15.65.65s0,.73-.61.71c-1.82,0-3.65,0-5.48,0-.47,0-.62-.14-.61-.62,0-1.33,0-2.67,0-4Z"></path><path class="cls-1" d="M151.1,70.22c0,1.28,0,2.57,0,3.85,0,.68-.34.67-.82.66s-.87,0-.83-.65c.06-.89,0-1.79,0-2.69,0-.55-.24-.79-.79-.78-.93,0-1.85,0-2.78,0-.62,0-.89.22-.87.85,0,.9,0,1.8,0,2.7,0,.69-.42.56-.82.56s-.81.1-.8-.58q0-4,0-8c0-.68.43-.55.82-.56s.85-.12.81.57,0,1.54,0,2.31c0,.52.18.82.76.81,1,0,1.95,0,2.93,0,.51,0,.75-.23.74-.74,0-.8,0-1.59,0-2.39s.42-.56.82-.56.83-.12.81.57C151.07,67.5,151.1,68.86,151.1,70.22Z"></path><path class="cls-1" d="M133,70.26c0-3.55,2.66-5.54,5.88-4.65a3.45,3.45,0,0,1,2.23,1.87c.17.33.12.49-.27.59-.68.16-1.21.37-1.73-.48-.65-1.07-2.47-1.06-3.43-.16a4,4,0,0,0-.05,5.32,2.3,2.3,0,0,0,3.77-.56c.12-.22.09-.64.5-.56a2.8,2.8,0,0,1,1.3.44c.22.18,0,.43-.12.62a3.68,3.68,0,0,1-3.39,2.15,4.11,4.11,0,0,1-3.83-1.71A4.53,4.53,0,0,1,133,70.26Z"></path><path class="cls-1" d="M200.21,65.66c1.72-.24,1.72-.24,2.5,1.11l1,1.66c.48.79.67.8,1.12,0,.34-.58.65-1.17,1-1.75.72-1.26.8-1.3,2.42-1a25.84,25.84,0,0,1-1.49,2.41A7.4,7.4,0,0,0,205,73.93c.09.65-.18.82-.81.81s-.93-.14-.83-.8a7.41,7.41,0,0,0-1.67-5.87A27.59,27.59,0,0,1,200.21,65.66Z"></path><path class="cls-1" d="M120.21,70.94c0,1,0,2,0,3,0,.71-.28.79-.86.8s-.82-.1-.81-.76c0-2,0-4,0-6.08,0-.71-.21-1.06-1-1-.3,0-.61,0-.92,0-.46,0-.83,0-.84-.64s.3-.74.84-.73c1.83,0,3.65,0,5.48,0,.51,0,.73.1.72.67s-.13.71-.68.71c-2,0-2,0-2,2Z"></path><path class="cls-1" d="M175.37,69.42c0,1,0,2,0,3.08,0,.62.24.89.86.88.9,0,1.81,0,2.7,0,.57,0,.61.25.62.69s-.11.69-.65.67c-1.51,0-3,0-4.55,0-.47,0-.62-.15-.61-.62,0-2.62,0-5.23,0-7.85,0-.82.55-.54,1-.6s.72,0,.7.61c0,1,0,2.1,0,3.15Z"></path></svg>