<svg xmlns="http://www.w3.org/2000/svg" id="Layer_1" data-name="Layer 1" viewBox="0 0 337.32 82.2"><defs><style>.cls-1{fill:#fff;}</style></defs><path class="cls-1" d="M171.77,10.74h38.85c.37,0,.74,0,1.11,0a2,2,0,0,1,1.92,1.76,6.7,6.7,0,0,1,.07,1.1c0,1.74,0,3.47,0,5.2,0,2.35-.66,3-3,3H148.33c-1.43,0-2,.6-2,2.06,0,2.18,0,4.37,0,6.55,0,1.36.6,1.92,2,2,.41,0,.82,0,1.24,0h51.34a21.63,21.63,0,0,1,3.94.27c4.7.85,7.43,3.82,8.73,8.25a29.19,29.19,0,0,1,.9,10.65,22.23,22.23,0,0,1-1.36,6.5c-1.78,4.51-5.18,6.76-9.94,7.1-.7,0-1.4,0-2.1,0H125c-.25,0-.5,0-.75,0a2.38,2.38,0,0,1-2.36-2.41c0-1.94,0-3.88,0-5.81a2.17,2.17,0,0,1,2.48-2.41c4.37,0,8.74,0,13.11,0h49.61c1.63,0,2.22-.59,2.23-2.25,0-2.15,0-4.29,0-6.43,0-1.85-.58-2.41-2.47-2.41H134.25a16.85,16.85,0,0,1-4.53-.46,10.12,10.12,0,0,1-6.44-5,16.7,16.7,0,0,1-1.87-5.85A32.26,32.26,0,0,1,121.83,20,15.29,15.29,0,0,1,123,16.84a10.4,10.4,0,0,1,9-6c.82-.08,1.65-.06,2.47-.06Z"></path><path class="cls-1" d="M67.12,10.74h34.15a19.11,19.11,0,0,1,6.92,1.08,8.89,8.89,0,0,1,5.79,6,9.78,9.78,0,0,1,.41,2.8c0,11.58,0,23.16,0,34.74A9,9,0,0,1,108,64.19a17.25,17.25,0,0,1-5.82,1H93.85c-.95,0-1,0-1,1,0,1.11,0,2.22,0,3.33,0,2.07,0,2.07-2,2.07H75.52c-1.06,0-1.22-.18-1.24-1.22,0-1.24,0-2.48,0-3.71,0-1.6.15-1.42-1.49-1.43-1.27,0-2.55,0-3.83,0q-18.2,0-36.37,0a14.76,14.76,0,0,1-4.76-.65,12.35,12.35,0,0,1-6.08-4.47,23.54,23.54,0,0,1-3.85-8.89,48.69,48.69,0,0,1-1.24-9.91,73.1,73.1,0,0,1,.48-12.46A32.2,32.2,0,0,1,20.3,18.1a13.25,13.25,0,0,1,7.44-6.7,13.44,13.44,0,0,1,4.37-.67Zm2.79,10.42H43.2a10.22,10.22,0,0,0-1.24,0,2.67,2.67,0,0,0-2.33,2.36c0,.41,0,.82,0,1.24V43.45c0,2.55,0,5.1,0,7.66A2.7,2.7,0,0,0,42.36,54c.32,0,.66,0,1,0H72.53a6.06,6.06,0,0,1,.74,0c.62.06.78-.25.77-.81,0-1.44,0-2.88,0-4.33,0-1.14.13-1.25,1.3-1.25H91.41c1.1,0,1.21.11,1.22,1.19,0,1.48,0,3,0,4.45,0,.52.18.75.72.75,1.4,0,2.8,0,4.2,0a2.7,2.7,0,0,0,2.71-2.91V24.49a8.42,8.42,0,0,0,0-.87,2.7,2.7,0,0,0-2.53-2.45c-.37,0-.74,0-1.11,0Z"></path><path class="cls-1" d="M273,10.74c12.58,0,25.15,0,37.73,0,2.17,0,2.69.75,2.63,2.58-.07,2.06,0,4.12,0,6.18,0,1.55-.61,2.13-2.19,2.16-.7,0-1.4,0-2.11,0q-31.1,0-62.21,0c-2.39,0-2.64.89-2.63,2.56,0,9.19,0,18.38,0,27.57a8,8,0,0,0,0,1,1.63,1.63,0,0,0,1.61,1.57c.41,0,.82,0,1.23,0q31.72,0,63.45,0c2.45,0,2.9.75,2.83,2.77s0,4,0,6.06c0,1.5-.6,2.06-2.11,2.08H236.86a17.16,17.16,0,0,1-4.17-.41,12.65,12.65,0,0,1-8.18-6.48,27,27,0,0,1-3-8.86,72.71,72.71,0,0,1-.47-19.82,33.18,33.18,0,0,1,2.64-10.49,18.15,18.15,0,0,1,1.93-3.3,12.24,12.24,0,0,1,9.72-5.09c.58,0,1.16,0,1.74,0Z"></path><path class="cls-1" d="M320.73,13.13a2.4,2.4,0,0,1-4.79-.06,2.4,2.4,0,1,1,4.79.06ZM319.5,14.5c.41-.12.54-.48.66-.83a2,2,0,0,0-1-2.38,1.88,1.88,0,0,0-2.39.63,2.08,2.08,0,0,0,.24,2.59,1.8,1.8,0,0,0,2.5,0Z"></path><path class="cls-1" d="M319.51,14.48c-.52,0-.63-.44-.87-.76s-.25-.46-.55-.4-.23.38-.26.61a.41.41,0,0,1-.35.43V12.19a.47.47,0,0,1,.2-.42,2.24,2.24,0,0,1,1.53.16c.2.22.39.58.16.77-.83.69,0,1.21.13,1.8Zm-.54-2c-.07-.39-.36-.39-.65-.39s-.47.08-.48.4.2.51.54.47S318.94,12.8,319,12.44Z"></path></svg>