<svg xmlns="http://www.w3.org/2000/svg" id="Layer_1" data-name="Layer 1" viewBox="0 0 337.32 82.2"><defs><style>.cls-1{fill:#fff;}</style></defs><path class="cls-1" d="M133.82,46l1.51-2c.88-1.15,1.74-2.32,2.65-3.45a1.06,1.06,0,0,0,.22-1c-.84-3.56-1.65-7.13-2.5-10.68-.1-.42,0-.46.38-.46,3.74,0,7.48,0,11.22,0,.38,0,.5.14.58.48,1,4.23,2,8.47,2.94,12.7.3,1.3.6,2.59.91,3.88,0,.13.08.26.13.43a4,4,0,0,0,.82-1q6.19-8.07,12.36-16.14a.93.93,0,0,1,.83-.4h15.64c.62,0,.62,0,.47.58q-1.53,5.73-3,11.45-1.71,6.41-3.4,12.81c-.08.3-.21.39-.49.39h-10.5c-.33,0-.35-.09-.27-.39q1.15-4.29,2.29-8.6l3.12-11.7a28,28,0,0,0,.66-2.84c-.34.42-.69.84-1,1.28-4.16,5.43-8.31,10.88-12.48,16.3a27.41,27.41,0,0,1-2.44,3,10.17,10.17,0,0,1-6.67,2.83,9.07,9.07,0,0,1-4.28-.58,4.45,4.45,0,0,1-2.9-3.26c-.22-1.06-.48-2.11-.73-3.22-.24.11-.32.3-.44.45a36.58,36.58,0,0,1-3.46,4.2,9.28,9.28,0,0,1-5.83,2.4,10.92,10.92,0,0,1-4.35-.45,5,5,0,0,1-3.44-4.12c-1-4.76-2.14-9.48-3.23-14.22-.13-.54-.27-1.07-.38-1.61a.39.39,0,0,0-.45-.37c-5.28,0-10.56,0-15.84,0A1.32,1.32,0,0,0,101,33.81c-.43,1.55-.8,3.11-1.22,4.66-.07.26,0,.3.24.29h14.86c.59,0,.6,0,.45.59-.29,1.12-.6,2.23-.87,3.35-.09.37-.25.44-.6.44-4.9,0-9.8,0-14.7,0-.52,0-.69.17-.8.64-.34,1.37-.73,2.73-1.11,4.1-.24.86.06,1.28,1,1.28h14.12c.27,0,.35.12.27.4-.34,1.22-.65,2.44-1,3.66a.43.43,0,0,1-.51.38c-.57,0-1.14,0-1.72,0h-18a10.34,10.34,0,0,1-5-1.07,1.81,1.81,0,0,1-1-2.35q2.48-9.27,4.93-18.55a3.16,3.16,0,0,1,1.82-2,10.9,10.9,0,0,1,4.89-1.2c10.75,0,21.5,0,32.25-.05.36,0,.43.16.49.43.76,3.28,1.54,6.55,2.3,9.83.54,2.35,1.07,4.7,1.61,7.05A2.54,2.54,0,0,0,133.82,46Z"></path><path class="cls-1" d="M149.27,74.37a46.42,46.42,0,0,1-11.63-1.17,25.55,25.55,0,0,1-9.43-4.13,13.85,13.85,0,0,1-5.71-8.71,13,13,0,0,1-.28-2.72c0-.43.16-.64.61-.63,1.1,0,2.21,0,3.32,0a.47.47,0,0,1,.5.27,14.08,14.08,0,0,0,7.1,5.94,29.33,29.33,0,0,0,8.06,2,46.8,46.8,0,0,0,10,.07,76.64,76.64,0,0,0,14.71-2.84,94.26,94.26,0,0,0,13.88-5.3,1.6,1.6,0,0,1,.75-.15H201.9c.18,0,.44-.09.52.13s-.2.32-.37.42a110.46,110.46,0,0,1-15.31,8.13,110.74,110.74,0,0,1-17,5.86,88.7,88.7,0,0,1-10.36,2.06c-2.29.31-4.59.55-6.9.68C151.31,74.36,150.1,74.32,149.27,74.37Z"></path><path class="cls-1" d="M230.31,28.38c2.77,0,5.54-.07,8.31,0a16.39,16.39,0,0,1,8.86,2.7,10.38,10.38,0,0,1,3.91,4.39,8.45,8.45,0,0,1-.09,6.6,14.25,14.25,0,0,1-5.16,6.35,26.12,26.12,0,0,1-11.77,4.84,28.47,28.47,0,0,1-4.23.31h-15c-.6,0-.6,0-.44-.6L218,40.64q1.56-5.85,3.1-11.7c.13-.47.35-.58.8-.58,2.82,0,5.64,0,8.46,0Zm.36,20.77a13.92,13.92,0,0,0,2.1-.07A6.48,6.48,0,0,0,237.1,46a20.1,20.1,0,0,0,2.18-5.84,13.88,13.88,0,0,0,.51-3.84,3.22,3.22,0,0,0-2.9-3.47,28.63,28.63,0,0,0-4-.07c-.27,0-.26.22-.31.4l-1.68,6.3c-.82,3.08-1.64,6.17-2.48,9.25-.12.44,0,.49.39.47C229.36,49.14,230,49.15,230.67,49.15Z"></path><path class="cls-1" d="M204,53.51a8.58,8.58,0,0,1-2.37-.2,4.32,4.32,0,0,1-2.33-1.45c-2.29-2.66-4.6-5.3-6.9-8-.75-.86-1.47-1.74-2.22-2.61-.11-.13-.2-.39-.42-.32s-.14.29-.18.45c-1,3.93-2,7.84-3.09,11.76-.08.31-.18.41-.51.41q-3.16,0-6.33,0c-.36,0-.44-.08-.35-.43,1-3.76,2-7.53,3-11.3.81-3,1.64-6,2.43-9.09a4.31,4.31,0,0,1,1.68-2.42,9.82,9.82,0,0,1,5.84-2,9.54,9.54,0,0,1,3.23.33,3.88,3.88,0,0,1,1.76,1.13l6,7,3.33,3.9c.1.11.18.31.36.24s.13-.23.16-.36c.92-3.93,2.08-7.8,3-11.71.09-.4.27-.5.67-.49q3.07,0,6.17,0c.35,0,.5,0,.39.44-1.4,5.16-2.77,10.33-4.15,15.49-.37,1.37-.8,2.72-1.08,4.11a5.57,5.57,0,0,1-3.32,4A9.64,9.64,0,0,1,204,53.51Z"></path><path class="cls-1" d="M219.39,25.3h-8c-.28,0-.46,0-.47-.38a11.17,11.17,0,0,0-4.72-9,21.44,21.44,0,0,0-9.13-3.74,39.72,39.72,0,0,0-8.71-.7,68.17,68.17,0,0,0-11.82,1.36c-1.84.38-3.67.8-5.48,1.31a8.52,8.52,0,0,0-2.45,1.31,13.43,13.43,0,0,0-3.82,3.69,6,6,0,0,0-1.13,3.33c0,.15,0,.33-.18.39s-.19-.08-.22-.2c-.48-1.89-1.91-2.7-3.63-3.14a12.16,12.16,0,0,0-4.54-.13c-.17,0-.44.2-.53-.1s.13-.43.36-.55a14.9,14.9,0,0,0,5.83-4.93,5.81,5.81,0,0,0,1.06-3.25c0-.16,0-.34.17-.39s.19.16.22.26a4.18,4.18,0,0,0,3.28,3A10.82,10.82,0,0,0,172,13.2a96.23,96.23,0,0,1,15.66-4.11,78.29,78.29,0,0,1,11.12-1.21,55.31,55.31,0,0,1,10.45.51,29.13,29.13,0,0,1,12.09,4.33,14.24,14.24,0,0,1,6.3,9,14.61,14.61,0,0,1,.26,3.3c0,.41-.26.32-.48.32Z"></path></svg>