<svg xmlns="http://www.w3.org/2000/svg" id="Layer_1" data-name="Layer 1" viewBox="0 0 337.32 82.2"><defs><style>.cls-1{fill:#fff;}</style></defs><rect class="cls-1" x="147.2" y="24.29" width="7.9" height="40.01"></rect><rect class="cls-1" x="158.96" y="35.71" width="7.99" height="28.59"></rect><rect class="cls-1" x="158.96" y="28.58" width="7.99" height="5.81"></rect><path class="cls-1" d="M195.2,42.31v22h-6V43.36c0-2.4-1.83-3.61-5.49-3.61a5.74,5.74,0,0,0-3.84,1.67,6.49,6.49,0,0,0-1.4,2.19V64.3h-8.07V35.71h8.07V38l1.15-.76a10.73,10.73,0,0,1,2.76-1.19,14.12,14.12,0,0,1,4.16-.55q4.47,0,6.57,2a6.4,6.4,0,0,1,2.11,4.73"></path><polygon class="cls-1" points="199.14 64.3 199.14 24.29 207.12 24.29 207.12 46.96 220.1 35.71 226.78 35.71 214.61 45.91 228.33 64.3 219.57 64.3 209.28 50.65 207.12 52.62 207.12 64.3 199.14 64.3"></polygon><path class="cls-1" d="M128.74,81.78c-.18.68-.72-.44-1.61-2.85-5.45-14.75-8.17-16.36-13.62-8.06-.89,1.35-1.41,2.07-1.54,1.58a116.91,116.91,0,0,1-2-36.32c.08-.48.67-.14,1.79.7,6.81,5.1,10.31,4.11,17.7-5,1.21-1.48,1.87-2,2-1.36a158.85,158.85,0,0,1-2.73,51.27"></path><path class="cls-1" d="M110.36,9.06a62.58,62.58,0,0,0,6.73,34.5c5.09,8.5,12.07,11.57,14.6,22.1A85.43,85.43,0,0,0,130,26.82c-7.51,22-19.42-17-19.68-17.76"></path><path class="cls-1" d="M131.89,73.82c-.48-14.77-8.81-16.75-14.77-27.62C108.8,31,109.65,17.63,109,.23c0-.13,17,54.5,22.16,22.87,3.93,18.14,4.16,32.48.74,50.72m-20-57.32c3.57,22.09,9.12,25.15,18.93,42.59,1.39-11.7.94-17.56-1.95-29.27-6.72,9.44-10.11,6.78-17-13.32"></path><path class="cls-1" d="M110.36,9.06a62.58,62.58,0,0,0,6.73,34.5c5.09,8.5,12.07,11.57,14.6,22.1A85.43,85.43,0,0,0,130,26.82c-7.51,22-19.42-17-19.68-17.76"></path><path class="cls-1" d="M132,18.21a7.74,7.74,0,0,1-15.46,0,7.74,7.74,0,0,1,15.46,0"></path><path class="cls-1" d="M131.81,18.21a7.59,7.59,0,0,1-15.16,0,7.59,7.59,0,0,1,15.16,0"></path><path class="cls-1" d="M131.66,18.21a7.44,7.44,0,0,1-14.86,0,7.44,7.44,0,0,1,14.86,0"></path><path class="cls-1" d="M131.51,18.21a7.29,7.29,0,0,1-14.56,0,7.29,7.29,0,0,1,14.56,0"></path><path class="cls-1" d="M131.36,18.21a7.14,7.14,0,0,1-14.26,0,7.14,7.14,0,0,1,14.26,0"></path><path class="cls-1" d="M131.21,18.21a7,7,0,0,1-14,0,7,7,0,0,1,14,0"></path><path class="cls-1" d="M131.06,18.21a6.84,6.84,0,0,1-13.66,0,6.84,6.84,0,0,1,13.66,0"></path><path class="cls-1" d="M130.91,18.21a6.69,6.69,0,0,1-13.36,0,6.69,6.69,0,0,1,13.36,0"></path><path class="cls-1" d="M130.76,18.21a6.54,6.54,0,0,1-13.06,0,6.54,6.54,0,0,1,13.06,0"></path><path class="cls-1" d="M130.61,18.21a6.39,6.39,0,0,1-12.76,0,6.39,6.39,0,0,1,12.76,0"></path><path class="cls-1" d="M130.46,18.21a6.24,6.24,0,0,1-12.46,0,6.24,6.24,0,0,1,12.46,0"></path><path class="cls-1" d="M130.31,18.21a6.09,6.09,0,0,1-12.16,0,6.09,6.09,0,0,1,12.16,0"></path><path class="cls-1" d="M130.16,18.21a5.94,5.94,0,0,1-11.86,0,5.94,5.94,0,0,1,11.86,0"></path><path class="cls-1" d="M130,18.21a5.79,5.79,0,0,1-11.56,0,5.79,5.79,0,0,1,11.56,0"></path><path class="cls-1" d="M129.86,18.21a5.64,5.64,0,0,1-11.26,0,5.64,5.64,0,0,1,11.26,0"></path><path class="cls-1" d="M129.71,18.21a5.49,5.49,0,0,1-11,0,5.49,5.49,0,0,1,11,0"></path><path class="cls-1" d="M129.56,18.21a5.34,5.34,0,0,1-10.66,0,5.34,5.34,0,0,1,10.66,0"></path><path class="cls-1" d="M129.41,18.21a5.19,5.19,0,0,1-10.36,0,5.19,5.19,0,0,1,10.36,0"></path><path class="cls-1" d="M129.26,18.21a5,5,0,0,1-10.06,0,5,5,0,0,1,10.06,0"></path><path class="cls-1" d="M129.11,18.21a4.89,4.89,0,0,1-9.76,0,4.89,4.89,0,0,1,9.76,0"></path><path class="cls-1" d="M129,18.21a4.74,4.74,0,0,1-9.46,0,4.74,4.74,0,0,1,9.46,0"></path><path class="cls-1" d="M128.81,18.21a4.59,4.59,0,0,1-9.16,0,4.59,4.59,0,0,1,9.16,0"></path><path class="cls-1" d="M128.66,18.21a4.43,4.43,0,0,1-8.86,0,4.43,4.43,0,0,1,8.86,0"></path><path class="cls-1" d="M128.51,18.21a4.28,4.28,0,0,1-8.56,0,4.28,4.28,0,0,1,8.56,0"></path><path class="cls-1" d="M128.36,18.21a4.13,4.13,0,0,1-8.26,0,4.13,4.13,0,0,1,8.26,0"></path><path class="cls-1" d="M128.21,18.21a4,4,0,1,1-4-3.8,3.89,3.89,0,0,1,4,3.8"></path><path class="cls-1" d="M128.07,18.21a3.84,3.84,0,0,1-7.68,0,3.84,3.84,0,0,1,7.68,0"></path><path class="cls-1" d="M127.92,18.21a3.69,3.69,0,1,1-3.69-3.51,3.61,3.61,0,0,1,3.69,3.51"></path><path class="cls-1" d="M127.77,18.21a3.54,3.54,0,0,1-7.08,0,3.54,3.54,0,0,1,7.08,0"></path><path class="cls-1" d="M127.62,18.21A3.39,3.39,0,1,1,124.23,15a3.32,3.32,0,0,1,3.39,3.23"></path><path class="cls-1" d="M127.47,18.21a3.24,3.24,0,1,1-3.24-3.09,3.17,3.17,0,0,1,3.24,3.09"></path><path class="cls-1" d="M127.32,18.21a3.09,3.09,0,1,1-3.09-2.94,3,3,0,0,1,3.09,2.94"></path><path class="cls-1" d="M127.17,18.21a2.94,2.94,0,1,1-2.94-2.8,2.87,2.87,0,0,1,2.94,2.8"></path><path class="cls-1" d="M127,18.21a2.79,2.79,0,1,1-2.79-2.66A2.73,2.73,0,0,1,127,18.21"></path><path class="cls-1" d="M126.87,18.21a2.64,2.64,0,1,1-2.64-2.52,2.58,2.58,0,0,1,2.64,2.52"></path><path class="cls-1" d="M126.72,18.21a2.49,2.49,0,1,1-2.49-2.37,2.43,2.43,0,0,1,2.49,2.37"></path><path class="cls-1" d="M126.57,18.21A2.34,2.34,0,1,1,124.23,16a2.29,2.29,0,0,1,2.34,2.23"></path><path class="cls-1" d="M126.42,18.21a2.19,2.19,0,1,1-2.19-2.09,2.14,2.14,0,0,1,2.19,2.09"></path><path class="cls-1" d="M126.27,18.21a2,2,0,1,1-2-1.95,2,2,0,0,1,2,1.95"></path><path class="cls-1" d="M126.12,18.21a1.89,1.89,0,1,1-1.89-1.8,1.85,1.85,0,0,1,1.89,1.8"></path><path class="cls-1" d="M126,18.21a1.74,1.74,0,1,1-1.74-1.66A1.7,1.7,0,0,1,126,18.21"></path><path class="cls-1" d="M125.82,18.21a1.59,1.59,0,1,1-1.59-1.52,1.55,1.55,0,0,1,1.59,1.52"></path><path class="cls-1" d="M125.67,18.21a1.44,1.44,0,1,1-1.44-1.37,1.4,1.4,0,0,1,1.44,1.37"></path><path class="cls-1" d="M125.52,18.21A1.29,1.29,0,1,1,124.23,17a1.26,1.26,0,0,1,1.29,1.23"></path><path class="cls-1" d="M125.37,18.21a1.14,1.14,0,1,1-1.14-1.09,1.12,1.12,0,0,1,1.14,1.09"></path><path class="cls-1" d="M125.22,18.21a1,1,0,1,1-1-.95,1,1,0,0,1,1,.95"></path><path class="cls-1" d="M125.07,18.21a.84.84,0,1,1-.84-.8.82.82,0,0,1,.84.8"></path><path class="cls-1" d="M124.92,18.21a.69.69,0,1,1-.69-.66.67.67,0,0,1,.69.66"></path><path class="cls-1" d="M124.77,18.21a.54.54,0,1,1-.54-.52.53.53,0,0,1,.54.52"></path><path class="cls-1" d="M124.62,18.21a.39.39,0,1,1-.39-.38.38.38,0,0,1,.39.38"></path><path class="cls-1" d="M124.47,18.21a.23.23,0,0,1-.24.23.23.23,0,1,1,0-.46.23.23,0,0,1,.24.23"></path><path class="cls-1" d="M124.32,18.21a.09.09,0,0,1-.09.09.09.09,0,1,1,0-.18.09.09,0,0,1,.09.09"></path><polygon class="cls-1" points="142.8 50.7 136.71 50.7 136.71 44.77 142.8 50.21 142.8 50.7"></polygon></svg>