<svg xmlns="http://www.w3.org/2000/svg" id="Layer_1" data-name="Layer 1" viewBox="0 0 337.32 82.2"><defs><style>.cls-1{fill:#fff;}</style></defs><path class="cls-1" d="M129.53,65h18.61l1.08-2.88a1.92,1.92,0,0,1-1.38-1.28,3.52,3.52,0,0,1,.3-2.57l4.17-9.93a3.89,3.89,0,0,0,0-3c-.36-.93-1.49-2.78-2.52-3a18.1,18.1,0,0,0,6.27-5,25.14,25.14,0,0,0,3.5-4.89,13.44,13.44,0,0,0,1.65-4,14.65,14.65,0,0,0,.46-4A8.46,8.46,0,0,0,160,19.87a7.1,7.1,0,0,0-6.12-3.35H123.41l-3.34,7.92L118,29.53l-1.9,4.53L113,41.51h0L103.2,65h15l7.45-17.79,5.51.26a3.7,3.7,0,0,1,3.23,1.85,3.93,3.93,0,0,1,.31,3.39ZM130,36.78l2.83-6.68H142a1.83,1.83,0,0,1,1.49,1,2.47,2.47,0,0,1,.36,1.28,4.2,4.2,0,0,1-1.59,3.24,4.75,4.75,0,0,1-3,1.18H130ZM151.33,65h13.53l11.26-26.89.1-.26-.82,5.35L172.06,65h10.13L198,41.46h0l2.42-3.65v0h0l-2.11,5.3-9.1,21.75h13.88l9.62-23.45h0l3.85-9.15h.06l6.63-15.84H204l-5.56,7.92L187.64,39.56h-.16l2.78-17.84.87-5.2H171.44l-3.29,7.92-2.37,5.76-1.64,3.91-3.81,9.15Zm24.94-27.2Zm-112,5.45-1.91,4.58c-1.64,4-1.95,7.51.21,11.36,2.62,4.68,7.3,5.86,12.75,5.86h5c7.2,0,12-1.38,17.48-6,4-3.29,5.66-6.12,7.61-10.9l2.68-6.58,3.8-9.16L115.85,23l2.73-6.43H103.05L100.48,23l-.72,1.54-3.24,7.92-.72,1.7-3.09,7.46L90.5,46.81c-1.54,3.6-5.45,5.91-8.9,5.3-2.67-.41-3.95-3.55-3-5.81l1.29-3,3.8-9.15,4.06-9.62,3.19-7.91H75.38l-3.29,7.91-4,9.62ZM219.93,65l7.15-9.25h13.73l-1,9.25h15.73l1.65-23.5.62-9.15,1.08-15.84H242.55L237.67,23l-1.18,1.54-6,7.92-1.34,1.7-5.81,7.46-18,23.49h14.55Zm18-23.5,4.88-6.22L242,43.21l-.21,2.11H235ZM30.49,64.7l6.38-15.22h16.2l3.54-7.91,2.16-4.89H42.42l1.75-4.27.93-2.26H64.94L67.88,23h.05l2.62-6.43H33.94L31.37,23h.05l-3.91,9.46h0l-1.39,3.4L23.7,41.57h.06L14.35,64.76H30.49ZM304.77,23l-.72,1.54-3.24,7.92-2.93,7.15-1.74-7.15L293.82,23l-1.7-6.43h-14L275.52,23l-.72,1.54-3.24,7.92-3.86,9.16L267,43.26,257.88,65h15.37l9.88-23.5.82-2.16.51,2.16.31,1.7L289.4,65h13.37l9.82-23.5,3.86-9.15,4-9.46L323,16.42H307.6Z"></path><path class="cls-1" d="M311.61,57.87a4,4,0,1,1-4,4,4,4,0,0,1,4-4m0,7.4a3.4,3.4,0,1,0-3.34-3.39,3.32,3.32,0,0,0,3.34,3.39m-.92-1.13h-.57V59.46h1.8c1.08,0,1.6.46,1.6,1.34a1.25,1.25,0,0,1-1.19,1.28l1.39,2.06H313l-1.28-2.06h-1Zm1.08-2.57c.72,0,1.08-.26,1.08-.77s-.41-.77-1.08-.77h-1v1.49h1Z"></path></svg>