<svg xmlns="http://www.w3.org/2000/svg" id="Layer_1" data-name="Layer 1" viewBox="0 0 337.32 82.2"><defs><style>.cls-1{fill:#fff;}</style></defs><path class="cls-1" d="M103.52,75.45H23.21c-1.11,0-1.11,0-1.11-1.13q0-33.22,0-66.46c0-.86.17-1.11,1.08-1.11q80.27,0,160.52,0c1.32,0,1.15-.16,1.15,1.17q0,33.18,0,66.37c0,1.27.18,1.13-1.1,1.13ZM31.17,41.1c0,7.38,0,14.77,0,22.15,0,.7.13,1,.9.94,1.75-.06,3.5-.06,5.26,0,.73,0,.91-.2.91-.92,0-5.78,0-11.56,0-17.34,0-1.77,0-1.74,1.81-1.76.6,0,.76.21.86.78,1.07,6.17,2.18,12.34,3.26,18.52.09.54.27.73.83.71,1.6,0,3.21,0,4.82,0,.58,0,.78-.16.89-.75,1-5.89,2.06-11.77,3.1-17.66.28-1.59.28-1.54,1.91-1.6.81,0,1,.22,1,1,0,6.07,0,12.14,0,18.21,0,.64.14.85.82.84,1.81,0,3.62,0,5.43,0,.58,0,.81-.09.81-.75q0-22.32,0-44.65c0-.57-.17-.74-.74-.73-2.84,0-5.67,0-8.51,0-.7,0-.86.26-1,.88q-2,11.5-4.06,23c-.4,2.21-.41,2.17-2.65,2.21-.7,0-.88-.26-1-.87C44.3,35.1,42.83,27,41.39,18.8c-.1-.59-.32-.76-.89-.75-2.78,0-5.55,0-8.33,0-.78,0-1,.17-1,1C31.18,26.39,31.17,33.75,31.17,41.1Zm65.29,1.43c0,6.91,0,13.83,0,20.74,0,.73.2.92.92.92,6.66,0,13.32,0,20,0,2.55,0,4-1.41,4-4V37.88c0-.39.06-.74-.55-.74-3.41,0-6.83,0-10.25,0-.39,0-.59.09-.58.53,0,2,0,4,0,6,0,.51.23.57.64.56,1,0,1.93,0,2.89,0,.6,0,.81.13.8.76q0,5.7,0,11.38c0,.69-.24.82-.86.81-3,0-6,0-8.94,0-.75,0-.92-.21-.92-.93q0-15.1,0-30.2c0-.74.21-.91.93-.91,5.28,0,10.57,0,15.86,0,.84,0,1-.26,1-1q-.09-2.58,0-5.16c0-.75-.23-.91-.93-.9-6.61,0-13.21,0-19.81,0-2.77,0-4.12,1.36-4.12,4.16ZM68.2,41.11q0,11.12,0,22.23c0,.5,0,.87.69.87q11.18,0,22.35,0c.53,0,.71-.14.7-.69,0-1.83-.05-3.67,0-5.51,0-.76-.24-.9-.94-.9-4.91,0-9.82,0-14.72,0-.77,0-1-.14-1-1,.05-3.67,0-7.35,0-11,0-.76.18-1,1-1,3.82,0,7.65,0,11.48,0,.61,0,.8-.19.78-.8,0-1.83,0-3.67,0-5.51,0-.66-.18-.84-.84-.83-3.86,0-7.71,0-11.57,0-.67,0-.83-.2-.82-.84,0-3.38,0-6.77,0-10.15,0-.76.17-1,1-1,5,0,9.94,0,14.9,0,.66,0,.85-.17.84-.83,0-1.78-.06-3.56,0-5.34,0-.78-.19-1-1-1q-10.9,0-21.82,0c-.76,0-1,.18-1,1C68.21,26.34,68.2,33.72,68.2,41.11ZM139,64.21c1.44,0,2.87,0,4.3,0,.61,0,.89-.11,1-.81q2.46-14.31,5-28.6,1.39-8,2.8-15.94c.1-.56.08-.85-.63-.83-1.84,0-3.68,0-5.52-.05-.64,0-.86.19-1,.8Q143,30.52,141,42.24c-.32,1.87-.31,1.87-2.21,1.87-1.27,0-1.25,0-1.47-1.28-1.39-8-2.8-16-4.18-24-.09-.53-.24-.75-.81-.74q-2.85,0-5.7,0c-.61,0-.7.16-.59.76q2.36,13.35,4.67,26.7c1,6,2.09,11.89,3.1,17.84.12.69.37.91,1.06.88C136.22,64.18,137.62,64.21,139,64.21Zm17.82-23.15c0,7.42,0,14.83,0,22.24,0,.67.14.91.86.89,1.81-.06,3.62,0,5.43,0,.59,0,.8-.13.8-.76q0-22.29,0-44.57c0-.65-.25-.75-.82-.75-1.75,0-3.5,0-5.25,0-.78,0-1,.16-1,1C156.86,26.41,156.84,33.74,156.84,41.06Zm11.62,0q0,11.11,0,22.24c0,.65.13.91.85.89,1.81-.06,3.63,0,5.44,0,.59,0,.79-.13.79-.76q0-22.29,0-44.56c0-.65-.23-.77-.81-.76-1.75,0-3.5,0-5.25,0-.78,0-1,.16-1,1C168.47,26.41,168.46,33.74,168.46,41.06Z"></path><path class="cls-1" d="M197.94,38.28c0-6.68,0-13.36,0-20,0-.67.15-.89.86-.89q8.81,0,17.62,0c.69,0,.87.18.87.87,0,11.38,0,22.76,0,34.14a6.67,6.67,0,0,1-6.83,6.8c-3.86,0-7.71,0-11.57.07-.71,0-.93-.17-.93-.91C198,51.64,197.94,45,197.94,38.28Zm12.72-8.85c0-1.61,0-3.21,0-4.81,0-.57-.17-.75-.74-.73-1.61,0-3.21,0-4.82,0-.54,0-.69.16-.69.69q0,4.91,0,9.79c0,.54.16.7.7.69,1.6,0,3.21,0,4.81,0,.59,0,.75-.18.74-.75C210.64,32.69,210.66,31.06,210.66,29.43Zm0,17.1c0-1.43,0-2.86,0-4.29,0-.46-.09-.67-.62-.66-1.67,0-3.33,0-5,0-.53,0-.62.2-.62.67q0,4.81,0,9.63c0,.49.15.66.65.65,1.19,0,2.39,0,3.59,0,1.42,0,2-.55,2-2S210.66,47.87,210.66,46.53Z"></path><path class="cls-1" d="M279.44,48.58l-5.62-5.38c-.24.31-.14.63-.14.92q0,12,0,24.07c0,.78-.19,1-1,1-1.57-.06-3.15-.06-4.73,0-.77,0-1-.15-1-1,0-6.88,0-13.77,0-20.66V46.4l-1.12.7A31,31,0,0,1,259.81,50c-.5.17-.66.12-.66-.45,0-2.18,0-4.37,0-6.56,0-.6.36-.71.75-.9a23.07,23.07,0,0,0,12.24-14.26c.32-1,.3-1-.72-1-3.88,0-7.77,0-11.65,0-.75,0-.94-.22-.91-.93,0-1.58.06-3.16,0-4.73,0-.81.26-1,1-.94,2.13,0,4.26,0,6.39,0,.6,0,.81-.15.8-.78,0-1.92,0-3.85,0-5.77,0-.68.2-.83.84-.82,1.66,0,3.33.05,5,0,.74,0,.87.24.86.89,0,1.93,0,3.86,0,5.78,0,.53.15.71.69.7,1.49,0,3,0,4.47,0,.35,0,.63,0,.62.49-.1,2.94.26,5.9-.38,8.81A22.6,22.6,0,0,1,276.49,36a.75.75,0,0,0,.14,1.12c.8.73,1.53,1.53,2.32,2.26a1.59,1.59,0,0,1,.56,1.29c0,2.45,0,4.91,0,7.36C279.49,48.12,279.47,48.26,279.44,48.58Z"></path><path class="cls-1" d="M228.46,40.72c0,4,0,8,0,12a16.74,16.74,0,0,1-13.8,16.35c-.55.09-.72,0-.71-.59,0-1.73,0-3.45,0-5.17,0-.47.18-.64.6-.79a10.68,10.68,0,0,0,7.25-10.4c0-10.27,0-20.54,0-30.81,0-.82.16-1.09,1-1.08,4.2.06,8.41,0,12.62,0,.7,0,.95-.13.93-.89-.06-1.92,0-3.85,0-5.78,0-.53.14-.71.68-.7,1.76,0,3.51,0,5.26,0,.58,0,.76.16.74.74,0,1.9,0,3.8,0,5.69,0,.81.24.95,1,.94,3.22,0,6.43,0,9.64,0,.64,0,.87.14.85.81,0,1.64-.06,3.27,0,4.9,0,.78-.26.89-.95.89-8,0-16,0-24,0-.85,0-1.07.21-1.06,1.06,0,4.29,0,8.58,0,12.87Z"></path><path class="cls-1" d="M281.79,31.49c0-5.22,0-10.44,0-15.66,0-.74.2-.92.92-.92,7.68,0,15.37,0,23.05,0,4.38,0,7.19,2.81,7.19,7.17,0,8.32,0,16.63,0,24.95,0,.8-.21,1-1,1-1.6-.07-3.21-.06-4.81,0-.67,0-.83-.18-.83-.83,0-5.28,0-10.56,0-15.84q0-3.9,0-7.79c0-1.46-.54-2-2-2-4.94,0-9.87,0-14.81,0-.77,0-1,.15-1,1,0,8.17,0,16.34,0,24.51,0,.83-.16,1.1-1,1.06-1.57-.08-3.15-.06-4.73,0-.72,0-.93-.16-.92-.9C281.81,42,281.79,36.75,281.79,31.49Z"></path><path class="cls-1" d="M295.61,56.54c-.41.2-.51.53-.68.78a32.47,32.47,0,0,1-13.76,11.46c-.77.34-.9.17-.88-.61,0-1.72,0-3.44,0-5.16a.88.88,0,0,1,.51-.9c8.93-5.25,12.66-13.36,12.8-23.4.06-3.94,0-7.88,0-11.82,0-.66.19-.84.84-.82,1.78,0,3.57,0,5.35,0,.53,0,.71.14.69.7-.17,4.63-.05,9.27-.3,13.91a33.84,33.84,0,0,1-.47,4.26c-.09.49,0,.67.53.67s1.53-.32,1.92.15.12,1.34.13,2c0,4.12,0,8.23,0,12.35,0,1.83.5,2.33,2.35,2.33.73,0,1.46,0,2.19,0a1.64,1.64,0,0,0,1.76-1.84c0-1.34,0-2.68,0-4,0-.54.1-.77.71-.76,1.75,0,3.51,0,5.26,0,.53,0,.7.16.7.7,0,2.1,0,4.2,0,6.3a6.52,6.52,0,0,1-6.09,6.24c-2.42.09-4.85.09-7.27,0a6.5,6.5,0,0,1-6.25-6.54C295.59,60.54,295.61,58.57,295.61,56.54Z"></path></svg>