<svg xmlns="http://www.w3.org/2000/svg" viewBox="0 0 337.32 82.2"><defs><style>.cls-1{fill:#fff;}</style></defs><g id="&#x56FE;&#x5C42;_1" data-name="&#x56FE;&#x5C42; 1"><path class="cls-1" d="M131.17,66.14a22.17,22.17,0,0,1-8.09,1.28c-6.07,0-9.2-2.82-9.2-8.69V28.22l-13.22,0,4,2.56V58.56c0,11.5,6.42,16.52,18.4,16.52,6.91,0,13.57-1.36,17.28-3.24V28.24h-9.19Z"></path><path class="cls-1" d="M169,27.31a45.71,45.71,0,0,0-17.45,3.24V74.14h9.19v-38a23.85,23.85,0,0,1,8.35-1.35c6.32,0,9.53,3.31,9.53,8.68V74.14h9.27V42.64c0-9.7-6.15-15.33-18.89-15.33"></path><path class="cls-1" d="M216.67,58.9c-1,3.33-1.76,7.16-1.76,7.16h-.17a70.18,70.18,0,0,0-1.86-7.16l-9.61-30.66h-14l4.83,2.88,15.39,43h10.62l16.53-45.9H226.37Z"></path><path class="cls-1" d="M197,21.28a37.35,37.35,0,0,0-58.56,0,55.46,55.46,0,0,1,58.56,0"></path></g></svg>