<svg xmlns="http://www.w3.org/2000/svg" id="Layer_1" data-name="Layer 1" viewBox="0 0 337.32 82.2"><defs><style>.cls-1{fill:#fff;}</style></defs><path class="cls-1" d="M233.89,21.89c0,2.11.18,4.17.19,6.22.08,8.14,0,16.28.09,24.42,0,.59-.09.83-.77.82-2.56-.05-5.13,0-7.69,0-.56,0-.77-.11-.77-.73q0-22,0-43.95c0-.55.14-.7.7-.7,2.81,0,5.63,0,8.45,0a.81.81,0,0,1,.83.41c4.28,7.24,8.63,14.44,12.83,21.72,1.64,2.83,3,5.84,4.45,8.77.07.14.15.28.31.57,0-1.39.05-2.63,0-3.87-.38-9-.12-18-.21-26.94,0-.51.12-.67.65-.67,2.62,0,5.24,0,7.86,0,.64,0,.72.22.71.77q0,8.54,0,17.07c0,8.88,0,17.75,0,26.62,0,.76-.19.94-.93.93-2.68-.05-5.35,0-8,0a1,1,0,0,1-1-.5c-4.32-7.35-8.86-14.57-13-22-1.52-2.74-2.82-5.59-4.22-8.4C234.2,22.23,234.16,22,233.89,21.89Z"></path><path class="cls-1" d="M178.76,30.72a27.69,27.69,0,0,1,2.75-13.06,18.91,18.91,0,0,1,13-10.43,22.8,22.8,0,0,1,9.05-.39A19.62,19.62,0,0,1,214.49,12a22.25,22.25,0,0,1,5.91,10.57,30.16,30.16,0,0,1,1,8.23c-.11,5.44-1.11,10.68-4.28,15.29a18.77,18.77,0,0,1-12.31,8.08,23.21,23.21,0,0,1-12.58-.84,19.09,19.09,0,0,1-11.39-11.21A27.79,27.79,0,0,1,178.76,30.72ZM212,31.77a24.6,24.6,0,0,0-2-10.88A11,11,0,0,0,194.65,16c-3.13,1.73-4.74,4.63-5.67,7.93a25,25,0,0,0-.71,9.58,18.15,18.15,0,0,0,2.92,8.65,10.62,10.62,0,0,0,7.75,4.5,10,10,0,0,0,3.3-.22,10.31,10.31,0,0,0,7-4.81A19.12,19.12,0,0,0,212,31.77Z"></path><path class="cls-1" d="M170.6,21.36c-1.35,0-2.71,0-4.06,0-.4,0-.55-.07-.62-.53-.53-3.87-2.83-5.73-6.77-6.24a13.09,13.09,0,0,0-6,.35c-2,.68-3.52,1.85-3.84,4.12a3.7,3.7,0,0,0,1.63,3.78,30.69,30.69,0,0,0,5.86,2.21c1.3.46,2.65.65,4,1,3,.83,6.06,1.34,8.88,2.72,3.76,1.85,6.47,4.61,7.09,8.88.82,5.64-1.16,11.25-7.33,14.46a23.3,23.3,0,0,1-10.28,2.4,25.91,25.91,0,0,1-11.89-2.08,14.41,14.41,0,0,1-8.62-10.68,12.48,12.48,0,0,1-.25-2.93c0-.37.12-.49.48-.49h8.37c.35,0,.48.09.51.47.37,4.23,2.86,6.53,6.82,7.57a18.13,18.13,0,0,0,5.87.29,9.61,9.61,0,0,0,5.18-1.85,4.54,4.54,0,0,0,.08-7.37,14.21,14.21,0,0,0-4.85-2.24c-3.66-1.11-7.44-1.76-11-3-2.91-1-5.67-2.3-7.66-4.78a10.27,10.27,0,0,1-2.2-6c-.45-7.78,4.8-12.09,10.57-13.8a22.4,22.4,0,0,1,8.62-.9c1.49.15,3,.52,4.43.77A15.47,15.47,0,0,1,170,10.2a12.16,12.16,0,0,1,5.08,8.28,10.78,10.78,0,0,1,.18,1.5c0,1.38,0,1.38-1.3,1.38Z"></path><path class="cls-1" d="M61.8,30.63c0-7.27,0-14.54,0-21.81,0-.72.2-.86.88-.86Q78.73,8,94.78,8c.72,0,.88.18.87.88-.05,2.05-.05,4.11,0,6.16,0,.74-.13,1-.94,1-7.52,0-15,0-22.57,0-.77,0-1,.18-1,1q.06,4.06,0,8.11c0,.82.14,1.1,1,1.09,7-.05,13.92,0,20.88,0,.73,0,1,.15.93.91-.06,2-.06,4,0,5.92,0,.79-.15,1-1,1-6.93,0-13.86,0-20.79,0-.89,0-1.08.26-1.07,1.09.05,3.13,0,6.26,0,9.38,0,.66.16.85.84.85,7.58,0,15.16,0,22.74,0,.71,0,1,.13.93.9-.06,2.2,0,4.4,0,6.59,0,.52-.12.67-.65.67q-16.27,0-32.55,0c-.72,0-.65-.37-.65-.84Q61.8,41.58,61.8,30.63Z"></path><path class="cls-1" d="M99.78,30.57c0-7.23,0-14.47,0-21.71,0-.66.1-.91.85-.91,6.25,0,12.5,0,18.76,0,1,0,2.09.35,3.1.42a17.16,17.16,0,0,1,6,1.69,13.76,13.76,0,0,1,8.3,11c.67,4.64-.09,9-3.23,12.69a16.74,16.74,0,0,1-9,5.17,37.47,37.47,0,0,1-9.45.72c-1.7,0-3.39,0-5.08,0-.68,0-.9.16-.89.88,0,4,0,8,0,12,0,.68-.19.83-.84.82-2.59,0-5.18,0-7.78,0-.66,0-.77-.2-.77-.81C99.79,45.22,99.78,37.9,99.78,30.57Zm9.36-6.8c0,2.37,0,4.73,0,7.1,0,.65.19.79.81.78,2.67,0,5.35,0,8,0a15.39,15.39,0,0,0,3.87-.45,7.53,7.53,0,0,0,4.61-11.51c-1.56-2.42-4-3.23-6.74-3.53-3.28-.36-6.58-.08-9.87-.17-.57,0-.71.18-.7.72C109.16,19,109.14,21.41,109.14,23.77Z"></path><path class="cls-1" d="M253.39,66.33v.81c0,2.48,0,5,0,7.43,0,.49,0,.75-.65.73-1.39,0-1.4,0-1.4-1.41,0-3.46,0-6.92,0-10.39,0-.58.14-.69.72-.76a2.27,2.27,0,0,1,2.49,1.4c1.34,2.38,2.84,4.67,4.29,7,.13.21.19.53.62.62v-.83c0-2.48,0-5,0-7.44,0-.5.05-.74.66-.72,1.39,0,1.39,0,1.39,1.42,0,3.46,0,6.92,0,10.39,0,.59-.16.68-.74.75A2.19,2.19,0,0,1,258.35,74c-1.37-2.4-2.87-4.73-4.34-7.07C253.88,66.7,253.85,66.36,253.39,66.33Z"></path><path class="cls-1" d="M192.47,75.29a13.12,13.12,0,0,0-1.55,0c-.77.09-1-.28-1-1s-.09-1.22-.13-1.84c-.11-1.71-.8-2.4-2.53-2.44-.87,0-1.75,0-2.62,0-.51,0-.61.18-.6.64,0,1.32,0,2.65,0,4,0,.54-.15.64-.66.64-1.44,0-1.44,0-1.44-1.45,0-3.46,0-6.93,0-10.39,0-.56.15-.71.7-.7,1.94,0,3.89,0,5.83,0a3.3,3.3,0,0,1,3.2,1.75,3.68,3.68,0,0,1-.27,3.73,4.14,4.14,0,0,1-1.29,1,2.62,2.62,0,0,1,1.71,2.92A6.29,6.29,0,0,0,192.47,75.29Zm-6.1-10.76c-.64,0-1.17,0-1.7,0s-.57.09-.56.51c0,1,0,2,0,3,0,.25,0,.46.35.45a22.77,22.77,0,0,0,4.13-.13c.88-.19,1.31-1,1.23-2.13a1.54,1.54,0,0,0-1.45-1.57A14,14,0,0,0,186.37,64.53Z"></path><path class="cls-1" d="M124.31,69c0-1.86,0-3.71,0-5.57,0-.51.11-.67.64-.66,1.55,0,3.1,0,4.65,0a5.09,5.09,0,0,1,5.25,4.53,8.82,8.82,0,0,1-.51,5,4.79,4.79,0,0,1-4.57,3c-1.6.07-3.21,0-4.81,0-.52,0-.66-.13-.65-.65C124.33,72.76,124.31,70.88,124.31,69Zm2.09,0v2.28c0,2.47,0,2.47,2.47,2.32,2.09-.14,3.28-.93,3.72-2.53a7.86,7.86,0,0,0,.19-3.09c-.27-2.08-1.12-2.9-3.15-3.33a22.75,22.75,0,0,0-2.6-.13c-.56,0-.65.2-.64.68C126.42,66.42,126.4,67.69,126.4,69Z"></path><path class="cls-1" d="M236.45,69.21c0-3.33,1.52-5.63,4.15-6.47a5.89,5.89,0,0,1,7.73,5.06,7,7,0,0,1-1.65,6,5.9,5.9,0,0,1-10-3A4.14,4.14,0,0,1,236.45,69.21Zm9.83-.11a5.5,5.5,0,0,0-.19-1.76,3.86,3.86,0,0,0-3.35-3.16,3.53,3.53,0,0,0-3.38,1.76,6.36,6.36,0,0,0,0,6.13A3.53,3.53,0,0,0,244,73.46C245.82,72.58,246.17,70.88,246.28,69.1Z"></path><path class="cls-1" d="M153.56,68.94c0-3.14,1.51-5.36,4.14-6.19a5.91,5.91,0,0,1,7.77,5.45,8,8,0,0,1-.85,4.45,5.83,5.83,0,0,1-5.35,3c-3.06-.44-4.89-2-5.5-4.59A9.72,9.72,0,0,1,153.56,68.94Zm6,4.84a3.23,3.23,0,0,0,3.26-2,6.3,6.3,0,0,0,0-5.49,3.57,3.57,0,0,0-6.5,0,6.27,6.27,0,0,0,0,5.43A3.22,3.22,0,0,0,159.52,73.78Z"></path><path class="cls-1" d="M226.76,66.38c-.55.13-.93-.06-1.16-.82-.3-1-1.27-1.28-2.21-1.35a2.51,2.51,0,0,0-2.29.76,1.47,1.47,0,0,0,.84,2.38c1.19.39,2.4.68,3.61,1a3.4,3.4,0,0,1,2.8,3.11,3.44,3.44,0,0,1-2.56,3.67c-2.38.77-4.67.74-6.61-1.13a3.53,3.53,0,0,1-1-2.34c0-.36.08-.53.46-.49a1.94,1.94,0,0,0,.59,0c.7-.09,1.19,0,1.21.9a1.39,1.39,0,0,0,.46.78,4,4,0,0,0,4.52.48,1.74,1.74,0,0,0,.72-1.77,1.43,1.43,0,0,0-1.1-1.24c-1.17-.34-2.36-.64-3.54-1-2-.54-2.86-1.56-2.85-3.29a3.49,3.49,0,0,1,2.9-3.41,6.14,6.14,0,0,1,4.39.43,3.79,3.79,0,0,1,2,2.8c.08.36,0,.53-.42.49C227.35,66.36,227.12,66.38,226.76,66.38Z"></path><path class="cls-1" d="M61.8,69c0-1.89,0-3.77,0-5.66,0-.48.12-.61.6-.6q3.89,0,7.77,0c.46,0,.69.09.62.59a1.89,1.89,0,0,0,0,.67c.1.58-.22.62-.68.62-1.8,0-3.6,0-5.41,0-.51,0-.76.07-.71.67a16.5,16.5,0,0,1,0,2.11c0,.44.13.57.57.57,1.63,0,3.27,0,4.9,0,.79,0,.83.3.82.92s0,.9-.78.87c-1.64-.07-3.27,0-4.91,0-.46,0-.63.11-.61.6,0,.84,0,1.69,0,2.53,0,.47.12.61.61.61,1.88,0,3.77,0,5.66,0,.55,0,.77.14.68.69a3.86,3.86,0,0,0,0,.76c0,.33-.1.43-.43.43-2.76,0-5.52,0-8.28,0-.52,0-.42-.31-.42-.61Z"></path><path class="cls-1" d="M99.32,69c0-1.85,0-3.71,0-5.57,0-.47,0-.69.62-.68,2.59,0,5.18,0,7.77,0,.48,0,.61.12.61.6,0,1.27,0,1.27-1.28,1.27-1.64,0-3.27,0-4.9,0-.55,0-.78.13-.72.7.07.83-.34,1.9.15,2.45s1.6.16,2.43.19c1.09,0,2.19,0,3.29,0,.41,0,.51.12.52.52,0,1.23,0,1.23-1.15,1.23-1.52,0-3,0-4.56,0-.5,0-.72.1-.69.64a20,20,0,0,1,0,2.45c0,.55.19.65.69.65,1.86,0,3.71,0,5.57,0,.54,0,.72.13.7.69,0,1.19,0,1.19-1.2,1.19-2.28,0-4.56-.06-6.84,0-.9,0-1-.26-1-1.06C99.36,72.51,99.32,70.76,99.32,69Z"></path><path class="cls-1" d="M116.29,62.78c1.3,0,2.59,0,3.89,0,.54,0,.71.15.63.66a2.51,2.51,0,0,0,0,.67c.07.46-.13.56-.56.56-1.89,0-3.78,0-5.66,0-.54,0-.76.12-.71.7.06.83-.26,1.92.15,2.45s1.59.16,2.42.19c1.07,0,2.14.06,3.21,0s.58.57.64,1,0,.81-.67.79c-1.66-.06-3.33,0-5,0-.56,0-.81.09-.77.72a18.58,18.58,0,0,1,0,2.36c0,.53.14.67.66.66,1.85,0,3.71,0,5.57,0,.56,0,.8.07.77.71,0,1.16,0,1.17-1.15,1.17-2.42,0-4.84,0-7.26,0-.58,0-.69-.17-.69-.7q0-5.58,0-11.16c0-.57.18-.69.71-.68C113.76,62.8,115,62.78,116.29,62.78Z"></path><path class="cls-1" d="M168.27,67.47c0-1.35,0-2.7,0-4,0-.51.11-.66.64-.66,1.46,0,1.46,0,1.46,1.43,0,2.08,0,4.16,0,6.25,0,3,1.88,3.68,4.22,3.12a2.4,2.4,0,0,0,1.69-2.43c0-2.56,0-5.12,0-7.68,0-.57.15-.7.69-.69,1.52,0,1.52,0,1.52,1.54,0,2.2,0,4.39,0,6.59a4.32,4.32,0,0,1-4.17,4.61,6.79,6.79,0,0,1-3.89-.59,3.66,3.66,0,0,1-2.09-3.22c-.06-1.41,0-2.81,0-4.22Z"></path><path class="cls-1" d="M84.78,69A6.16,6.16,0,0,1,89,62.7a5.89,5.89,0,0,1,6.23,1.74,2.79,2.79,0,0,1,.37.55c.23.51.68,1.24.36,1.55s-1.22.11-1.86.12a.33.33,0,0,1-.29-.27A2.94,2.94,0,0,0,90.6,64.2a3.44,3.44,0,0,0-3.32,2.61,6.1,6.1,0,0,0,.57,5.52,3.32,3.32,0,0,0,3.6,1.4,2.9,2.9,0,0,0,2.38-2.51c.12-.62.38-.7.92-.69,1.51,0,1.49,0,1,1.48a5.19,5.19,0,0,1-5.68,3.52A6.05,6.05,0,0,1,84.78,69Z"></path><path class="cls-1" d="M83.55,62.78c-1.32,1.91-2.53,3.68-3.77,5.44a.84.84,0,0,0,0,1.14c1.35,1.92,2.66,3.86,4.07,5.93-.85,0-1.56,0-2.27,0-.4,0-.53-.25-.69-.51l-2.81-4.3c-.88,1.32-1.78,2.56-2.56,3.87a1.61,1.61,0,0,1-1.8,1,9.3,9.3,0,0,0-1.31,0l3-4.4c.47-.69,1.32-1.39,1.31-2.08s-.85-1.44-1.33-2.16L72.8,62.88c.08-.07.1-.09.12-.09,2.32-.11,2.32-.11,3.57,1.83l1.65,2.56C79,66,79.8,64.84,80.52,63.63a1.45,1.45,0,0,1,1.6-.86A13.19,13.19,0,0,0,83.55,62.78Z"></path><path class="cls-1" d="M205.47,72.68c.78-2.4,1.51-4.67,2.25-6.94.25-.78.56-1.56.76-2.36.12-.48.32-.65.81-.61s1,0,1.58,0c-.69,2-1.34,4-2,6s-1.35,3.93-2,5.9a.76.76,0,0,1-.87.64c-1.77,0-1.76,0-2.34-1.71-1.12-3.36-2.23-6.72-3.38-10.08-.2-.57-.19-.76.5-.75,1.47,0,1.47,0,1.93,1.42l2.49,7.76C205.25,72.14,205.34,72.34,205.47,72.68Z"></path><path class="cls-1" d="M141.48,62.78c.74,0,1.33,0,1.91,0a.89.89,0,0,1,.93.53c1,1.67,2,3.32,3,5.07.85-1.45,1.74-2.79,2.44-4.24a2,2,0,0,1,2.39-1.36,4.69,4.69,0,0,0,.86,0c-1.21,2-2.28,3.89-3.52,5.7a5.72,5.72,0,0,0-1.12,4c.08.76,0,1.53,0,2.28,0,.47-.15.55-.57.56-1.64,0-1.76,0-1.61-1.59a8.65,8.65,0,0,0-1.8-6.24C143.35,66,142.51,64.45,141.48,62.78Z"></path><path class="cls-1" d="M233.59,69c0,1.89,0,3.77,0,5.66,0,.48-.12.61-.6.61-1.61,0-1.61,0-1.61-1.54,0-3.43,0-6.87,0-10.3,0-.55.13-.71.69-.7,1.52,0,1.52,0,1.52,1.54Z"></path><path class="cls-1" d="M215.34,69c0,1.85,0,3.71,0,5.56,0,.54-.12.71-.68.7-1.42,0-1.42,0-1.42-1.38,0-3.46,0-6.92,0-10.38,0-.62.14-.81.78-.78,1.33.05,1.33,0,1.33,1.3Z"></path><path class="cls-1" d="M275.54,12.46a4.95,4.95,0,1,1-9.89,0,4.95,4.95,0,1,1,9.89,0ZM270.65,8a4.55,4.55,0,0,0-4.59,4.43A4.56,4.56,0,0,0,270.44,17a4.49,4.49,0,1,0,.21-9Z"></path><path class="cls-1" d="M270.14,12.33c.49,0,.8,0,1.11-.06a.8.8,0,0,0,.7-.64,1,1,0,0,0-.2-1,3.3,3.3,0,0,0-2-.27c-.23.16-.13.41-.14.63,0,1.24,0,2.47,0,3.71,0,.4,0,.69-.55.7s-.56-.31-.56-.7c0-1.55,0-3.1,0-4.65,0-.42.11-.6.57-.58.7,0,1.4,0,2.11,0A1.91,1.91,0,0,1,273,10.76a1.74,1.74,0,0,1-.81,2.09c-.31.21-.29.33-.11.58.42.61.83,1.25,1.26,1.9a1.28,1.28,0,0,1-1.76-.71C271.19,13.86,270.67,13.16,270.14,12.33Z"></path></svg>