<svg xmlns="http://www.w3.org/2000/svg" id="Layer_1" data-name="Layer 1" viewBox="0 0 337.32 82.2"><defs><style>.cls-1{fill:#fff;}</style></defs><path class="cls-1" d="M193.21,45.83H321.49c.31,0,.77-.25.8.45s-.4.59-.81.59H64.92c-.3,0-.72.23-.77-.43s.35-.61.78-.61Z"></path><path class="cls-1" d="M73.48,39.73H67.73c-2.52,0-3.5-.92-3.54-3.45,0-3.23,0-6.47,0-9.7a6.06,6.06,0,0,1,.15-1.2c.32-1.52,1.16-2.21,3.09-2.24,4-.05,8,0,12.06,0a5.7,5.7,0,0,1,1,.13,2.48,2.48,0,0,1,2.19,2.46c.17,1.55.17,1.55-1.37,1.55-1.37,0-1.39,0-1.38-1.34,0-.47-.15-.55-.58-.55-3.94,0-7.87,0-11.81,0-.46,0-.56.14-.56.57q0,5.46,0,10.92c0,.47.16.55.58.54q5.91,0,11.81,0c.45,0,.57-.13.56-.57,0-1.24,0-2.47,0-3.7,0-.44-.12-.59-.57-.58-1.85,0-3.7,0-5.55,0-.48,0-.6-.12-.6-.6,0-1.59,0-1.59,1.57-1.59h7.41c.3,0,.58,0,.57.43-.05,2,.07,4-.07,6s-1,2.81-2.9,2.87c-2.1.06-4.21,0-6.31,0Z"></path><path class="cls-1" d="M101.44,33.45l7.38,6.28a22.19,22.19,0,0,0-2.32,0,3.44,3.44,0,0,1-3.18-1.23c-1.59-1.69-3.34-3.21-5-4.83a1.23,1.23,0,0,0-.95-.39c-1.27,0-2.55,0-3.83,0-.39,0-.51.11-.5.51,0,1.76,0,3.53,0,5.3,0,.47-.08.69-.62.64a10.22,10.22,0,0,0-1.66,0c-.44,0-.52-.15-.52-.55q0-3.93,0-7.85c0-2.54,0-5.07,0-7.6,0-.52.16-.63.65-.63,4.3,0,8.6,0,12.9,0a5.93,5.93,0,0,1,1.26.14,2.33,2.33,0,0,1,2,2.18,29.4,29.4,0,0,1,0,5.55,2.4,2.4,0,0,1-2.22,2.19,15.28,15.28,0,0,1-2.62.11h-.74Zm-3.26-2.38h0c1.6,0,3.19,0,4.78,0,.91,0,1.23-.35,1.35-1.21a17.78,17.78,0,0,0,0-2.73c0-1.4-.46-1.8-1.88-1.81-3,0-5.9,0-8.86,0-.5,0-.59.16-.58.62,0,1.51,0,3,0,4.52,0,.56.18.67.69.66C95.21,31.05,96.7,31.07,98.18,31.07Z"></path><path class="cls-1" d="M243.43,33.34l7.5,6.39a16.1,16.1,0,0,0-2.1,0,3.89,3.89,0,0,1-3.66-1.47c-1.49-1.6-3.14-3.05-4.72-4.58a1.31,1.31,0,0,0-1-.4c-1.23,0-2.47,0-3.7,0-.44,0-.58.1-.57.56,0,1.79,0,3.57,0,5.36,0,.42-.11.55-.53.53a11.88,11.88,0,0,0-1.79,0c-.53,0-.51-.24-.51-.61,0-4.79,0-9.58,0-14.36,0-.53-.23-1.21.1-1.54s1-.1,1.53-.1h11.75a5.42,5.42,0,0,1,.57,0c2,.17,2.9,1.08,2.93,3.11,0,1.43,0,2.86,0,4.28a2.54,2.54,0,0,1-2.49,2.7C245.67,33.38,244.61,33.24,243.43,33.34Zm-3.13-2.27c1.53,0,3.06,0,4.59,0,1.13,0,1.53-.44,1.54-1.56,0-.81,0-1.61,0-2.42,0-1.33-.4-1.77-1.74-1.78-3,0-6,0-9.06,0-.37,0-.46.13-.46.48,0,1.59,0,3.19,0,4.78,0,.42.11.54.53.53C237.23,31.06,238.77,31.07,240.3,31.07Z"></path><path class="cls-1" d="M163.8,31.42c0-2.55,0-5.1,0-7.65,0-.47.07-.67.61-.66,3.13,0,6.26,0,9.39,0a15.17,15.17,0,0,1,3.35.39,7.25,7.25,0,0,1,5.55,6.27,10.87,10.87,0,0,1-.3,4.61,7.2,7.2,0,0,1-6.51,5.18,25.08,25.08,0,0,1-2.87.15c-2.87,0-5.74,0-8.61,0-.47,0-.62-.1-.61-.59C163.81,36.57,163.8,34,163.8,31.42Zm2.82,0c0,1.8,0,3.61,0,5.42,0,.45.12.57.57.57,1.87,0,3.74,0,5.62,0a12.63,12.63,0,0,0,3.71-.5,4.32,4.32,0,0,0,3.15-3.27,9.5,9.5,0,0,0,.1-4.11,4.37,4.37,0,0,0-3.06-3.58,8.1,8.1,0,0,0-1.67-.39c-2.67-.32-5.36-.1-8-.17-.41,0-.38.23-.38.5C166.62,27.73,166.62,29.58,166.62,31.43Z"></path><path class="cls-1" d="M197.37,39.73h-5c-2.9,0-3.68-1.07-3.65-4,0-.29.12-.35.38-.34.6,0,1.19,0,1.79,0,.35,0,.44.12.42.45s0,.76,0,1.14.13.49.51.49h11.36c.42,0,.49-.14.48-.51,0-1.3,0-2.6,0-3.89,0-.46-.14-.57-.58-.57q-5.21,0-10.4,0a5.58,5.58,0,0,1-1.08-.12,2.31,2.31,0,0,1-2.1-2.15,16.09,16.09,0,0,1,0-4.7,2.32,2.32,0,0,1,2.2-2.2,8.87,8.87,0,0,1,1.45-.12h9.13a6.39,6.39,0,0,1,1.58.19,3,3,0,0,1,2.12,3.56c-.06.21-.17.22-.32.22s-.47,0-.7,0c-.44,0-1,.18-1.3-.09s-.09-.81-.09-1.23-.11-.39-.41-.39c-3.62,0-7.23,0-10.85,0-.39,0-.45.16-.45.49,0,1.19,0,2.38,0,3.57,0,.45.11.57.56.57,3.28,0,6.55,0,9.83,0a9.38,9.38,0,0,1,1.59.12,2.37,2.37,0,0,1,2.16,2,15.33,15.33,0,0,1,0,5.32c-.26,1.52-1.07,2.17-2.74,2.22-2,.06-3.91,0-5.87,0Z"></path><path class="cls-1" d="M312,33.9l4.27-6.14c1-1.41,2-2.82,2.95-4.24a.78.78,0,0,1,.77-.4,14.23,14.23,0,0,0,1.6,0c.43,0,.53.14.53.55,0,2.64,0,5.27,0,7.91s0,5.06,0,7.59c0,.44-.1.61-.56.58-.66-.05-1.51.2-1.92-.12s-.13-1.24-.14-1.89c0-2.8,0-5.61,0-8.42V26.56c-1.09,1.87-2.37,3.57-3.56,5.33s-2.21,3.23-3.32,4.84c-.42.62-.87.62-1.33,0q-3.09-4.21-6.19-8.42c-.39-.54-.67-1.14-1.08-1.83,0,.6,0,1.06,0,1.53.11,3.74,0,7.48.05,11.22,0,.39-.1.53-.5.51a12,12,0,0,0-1.47,0c-.32,0-.44-.08-.44-.42q0-7.87,0-15.76c0-.34.11-.47.44-.43h.07A2.61,2.61,0,0,1,305,24.45C307.26,27.63,309.64,30.71,312,33.9Z"></path><path class="cls-1" d="M139.77,26.62c.23,2.83.1,5.61.13,8.39,0,1.38,0,2.76,0,4.15,0,.5-.14.62-.61.58a8.9,8.9,0,0,0-1.46,0c-.43,0-.53-.13-.53-.54,0-3.19,0-6.38,0-9.57,0-2,0-4,0-5.94,0-.43.1-.56.56-.59a2.58,2.58,0,0,1,2,.74c3.84,3.49,7.72,6.94,11.59,10.39a21.58,21.58,0,0,1,1.77,1.9c-.36-4.22-.13-8.37-.21-12.51,0-.38.1-.53.5-.51.6,0,1.19,0,1.79,0,.27,0,.39.1.37.37s0,.26,0,.38c0,5.05,0,10.09,0,15.13,0,.57-.12.75-.72.75a2.2,2.2,0,0,1-1.63-.64c-4.21-3.85-8.44-7.66-12.66-11.49C140.4,27.33,140.12,27,139.77,26.62Z"></path><path class="cls-1" d="M256.43,31.47c0-2.6,0-5.19,0-7.79,0-.45.13-.57.58-.57q7.47,0,14.94,0c.39,0,.59.07.54.51a6.12,6.12,0,0,0,0,1.21c0,.47-.14.56-.57.56-4,0-8,0-11.94,0-.62,0-.74.19-.72.75,0,1.08.05,2.17,0,3.25,0,.55.2.62.66.62,2.28,0,4.56,0,6.84,0,.46,0,.62.09.61.59,0,1.63,0,1.64-1.66,1.64-2,0-3.92,0-5.87,0-.46,0-.58.13-.57.57,0,1.36,0,2.73,0,4.09,0,.5.16.59.62.58,4,0,8,0,12,0,.55,0,.84.09.74.71s.23,1.22-.13,1.52-1,.09-1.48.09c-4.64,0-9.28,0-13.92,0-.54,0-.67-.15-.66-.67C256.45,36.53,256.43,34,256.43,31.47Z"></path><path class="cls-1" d="M296.78,39.73c-1,0-1.87,0-2.74,0a.57.57,0,0,1-.57-.39c-.56-1.1-1.14-2.18-1.69-3.29a.65.65,0,0,0-.68-.42H280.82a.61.61,0,0,0-.64.38c-.54,1.09-1.12,2.15-1.66,3.23a.71.71,0,0,1-.77.49c-.72,0-1.44,0-2.26,0,.38-.72.73-1.37,1.08-2q3.84-7,7.66-14a.89.89,0,0,1,1-.58c.78.08,1.7-.27,2.3.14s.81,1.26,1.18,1.93q3.85,6.91,7.7,13.85C296.51,39.23,296.61,39.43,296.78,39.73ZM286,25.1,281.8,33c-.16.31-.21.49.26.49,2.64,0,5.27,0,7.91,0,.45,0,.36-.19.22-.45-.4-.75-.8-1.5-1.19-2.25C288,28.94,287,27.07,286,25.1Z"></path><path class="cls-1" d="M111.09,39.73l2-3.72c2.24-4.1,4.49-8.19,6.71-12.3a1,1,0,0,1,1-.6,16.3,16.3,0,0,0,1.85,0,.63.63,0,0,1,.66.35q4.41,8,8.85,15.93a1.61,1.61,0,0,1,.13.33c-.94,0-1.83,0-2.72,0-.33,0-.44-.19-.56-.42-.55-1.08-1.12-2.14-1.66-3.23a.7.7,0,0,0-.72-.46c-3.41,0-6.81,0-10.22,0a.65.65,0,0,0-.69.41c-.53,1.08-1.12,2.14-1.65,3.23a.68.68,0,0,1-.72.46C112.67,39.71,111.93,39.73,111.09,39.73Zm10.5-14.64-4.08,7.77c-.33.64-.33.64.36.64h7.53c.17,0,.37.07.56-.12Z"></path><path class="cls-1" d="M219.13,23.12c2.81,0,5.62,0,8.43,0,.46,0,.66.09.6.59s.22,1.26-.1,1.6-1.05.1-1.6.1c-1.7,0-3.4,0-5.1,0-.62,0-.82.1-.81.78,0,4.3,0,8.59,0,12.89,0,.59-.17.74-.71.68-.69-.07-1.62.29-2-.14s-.11-1.29-.11-2c0-3.85,0-7.7,0-11.55,0-.59-.17-.7-.71-.69-2.13,0-4.26,0-6.38,0-.43,0-.56-.13-.52-.54a8.15,8.15,0,0,0,0-1.21c0-.46.12-.56.56-.56C213.51,23.13,216.32,23.12,219.13,23.12Z"></path><path class="cls-1" d="M188.75,59.14h-2.24c-.82,0-1.17-.29-1.19-1.1q-.07-2.07,0-4.14c0-.78.36-1,1.15-1.06,1.49,0,3,0,4.47,0a1,1,0,0,1,1.15.8c.16.68-.07.92-.76.79-.15,0-.26-.06-.24-.22.08-.55-.28-.51-.63-.5-1.19,0-2.39,0-3.58,0-.36,0-.53.06-.52.48,0,1.22,0,2.43,0,3.64,0,.33.1.44.44.43,1.27,0,2.55,0,3.83,0,.35,0,.46-.1.47-.46,0-1.35,0-1.35-1.3-1.35-.26,0-.52,0-.77,0s-.44,0-.42-.38,0-.48.4-.48c.92,0,1.83,0,2.75,0,.32,0,.39.12.38.41,0,.64,0,1.28,0,1.92,0,.89-.37,1.2-1.28,1.22Z"></path><path class="cls-1" d="M277.06,52.83c.78,0,1.57,0,2.36,0s1.1.32,1.11,1.09q0,2.07,0,4.14a.94.94,0,0,1-1.08,1.06c-1.62,0-3.23,0-4.85,0-.79,0-1.11-.35-1.12-1.15q0-2,0-4c0-.79.35-1.1,1.15-1.12S276.25,52.83,277.06,52.83ZM277,58.24c.72,0,1.45,0,2.17,0,.3,0,.4-.09.4-.4,0-1.23,0-2.46,0-3.69,0-.39-.13-.46-.48-.46q-2,0-4.08,0c-.37,0-.47.12-.47.47,0,1.21,0,2.43,0,3.64,0,.38.15.45.48.44C275.63,58.22,276.29,58.24,277,58.24Z"></path><path class="cls-1" d="M81.59,59.14c-.78,0-1.57,0-2.36,0S78.12,58.8,78.1,58c0-1.38,0-2.76,0-4.14,0-.73.36-1,1.09-1.06,1.64,0,3.27,0,4.91,0a1,1,0,0,1,1,1,32.16,32.16,0,0,1,0,4.39.94.94,0,0,1-1.07.94H81.59Zm.07-.9c.68,0,1.36,0,2,0,.32,0,.45-.08.44-.43q0-1.81,0-3.63c0-.35-.08-.49-.46-.49q-2,0-4.08,0c-.36,0-.49.1-.48.47,0,1.22,0,2.43,0,3.64,0,.33.09.45.43.44C80.25,58.22,81,58.24,81.66,58.24Z"></path><path class="cls-1" d="M292.59,56.69l2.71,2.4c-.85.09-1.6.21-2.16-.57-.28-.39-.73-.66-1-1.05a2.2,2.2,0,0,0-2.19-.79c-.27,0-.37.09-.36.37,0,.57,0,1.15,0,1.72s-.3.36-.55.37-.55.08-.55-.38c0-1.85,0-3.71,0-5.56,0-.33.14-.38.42-.38,1.57,0,3.15,0,4.72,0,.74,0,1.07.36,1.09,1.12,0,.51,0,1,0,1.53,0,.85-.35,1.18-1.21,1.2Zm-1.12-3h-.26c-1.71,0-1.7,0-1.65,1.75,0,.38.14.46.48.45.74,0,1.49,0,2.23,0,1.43,0,1.41,0,1.41-1.43,0-.56-.25-.77-.75-.77Z"></path><path class="cls-1" d="M260,57.69c.56-1.55,1-2.93,1.55-4.32.07-.18.05-.46.31-.52a.53.53,0,0,1,.72.39c.48,1.47,1,2.93,1.55,4.51l1.42-4.22c.25-.76.25-.76,1.17-.64-.71,2-1.42,4-2.1,6-.12.34-.36.21-.57.25s-.39-.17-.47-.39c-.44-1.22-.87-2.44-1.3-3.66-.05-.16-.12-.31-.23-.59l-1.17,3.13c-.12.34-.26.67-.37,1s-.19.51-.59.5-.5-.16-.61-.48c-.66-1.92-1.34-3.84-2-5.76,1-.18,1-.18,1.32.74.37,1.11.73,2.22,1.1,3.32C259.77,57.16,259.85,57.35,260,57.69Z"></path><path class="cls-1" d="M317.33,52.83c.53,0,1.06,0,1.6,0A3,3,0,0,1,322,56.59a2.72,2.72,0,0,1-2.81,2.52c-1.25,0-2.51,0-3.76,0-.37,0-.41-.15-.41-.46,0-1.8,0-3.61,0-5.42,0-.39.15-.46.49-.44C316.1,52.85,316.71,52.83,317.33,52.83ZM316.05,56v1.85c0,.22,0,.44.31.43a17.79,17.79,0,0,0,2.92-.1c1.22-.24,1.71-1,1.65-2.32a1.86,1.86,0,0,0-1.88-2.06c-.86-.07-1.74,0-2.61-.07-.31,0-.4.13-.39.42C316.06,54.73,316.05,55.35,316.05,56Z"></path><path class="cls-1" d="M235.92,56c0-.89,0-1.78,0-2.68,0-.34.07-.47.45-.47q2.52,0,5,0c.32,0,.43.08.43.42s-.12.47-.47.46c-1.28,0-2.55,0-3.83,0-.43,0-.58.09-.57.55,0,1.17,0,1.17,1.15,1.17h1.27c.3,0,.58-.07.57.42s-.19.47-.54.46c-.68,0-1.36,0-2,0-.29,0-.4.07-.41.39-.08,1.57-.09,1.57,1.45,1.57,1,0,2,0,3,0,.39,0,.44.15.45.48s-.08.44-.43.44q-2.55,0-5.1,0c-.35,0-.43-.11-.42-.44C235.93,57.8,235.92,56.89,235.92,56Z"></path><path class="cls-1" d="M122.71,56c0-.9,0-1.79,0-2.68,0-.34.06-.49.45-.49,1.68,0,3.36,0,5,0,.3,0,.47,0,.46.41s-.1.48-.47.48c-1.27,0-2.55,0-3.82,0-.44,0-.59.09-.58.55,0,1.17,0,1.17,1.16,1.17.46,0,.93,0,1.4,0s.42.13.41.44-.06.47-.42.45c-.7,0-1.4,0-2.1,0-.31,0-.44.06-.45.42-.06,1.54-.08,1.54,1.49,1.54,1,0,2,0,3,0,.42,0,.42.19.44.5s-.12.42-.44.42c-1.71,0-3.41,0-5.11,0-.39,0-.46-.15-.45-.49C122.72,57.77,122.71,56.88,122.71,56Z"></path><path class="cls-1" d="M113.73,57.56c0-1.5,0-2.88,0-4.25,0-.42.15-.49.51-.49s.5.11.5.5c0,1.75,0,3.49,0,5.23,0,.19.14.46-.13.56a.68.68,0,0,1-.75-.21c-1-1-2.1-2-3.16-3-.45-.42-.89-.84-1.35-1.25-.1-.09-.19-.29-.36-.17s-.06.23-.06.35c0,1.25,0,2.51,0,3.76,0,.43-.12.53-.54.54s-.48-.14-.48-.52c0-1.7,0-3.4,0-5.1,0-.23-.16-.56.13-.68a.77.77,0,0,1,.86.24c1,1,2.08,1.94,3.13,2.91C112.59,56.49,113.12,57,113.73,57.56Z"></path><path class="cls-1" d="M139.08,52.84c.7,0,1.4,0,2.1,0a1.47,1.47,0,0,1,1,2c-.17.26-.51.08-.77.11s-.26-.15-.25-.33a3.23,3.23,0,0,1,0-.44c0-.32-.08-.46-.43-.46-1.12,0-2.25,0-3.38,0-.3,0-.41.09-.4.4,0,1.26,0,2.51,0,3.76,0,.39.2.39.48.39,1,0,2,0,3.06,0,.58,0,.74-.16.69-.71,0-.28-.19-.69.42-.69s.64.14.63.64c0,1.39-.27,1.65-1.63,1.65H137.2c-.94,0-1.22-.26-1.29-1.2a28.25,28.25,0,0,1,0-4c.06-.82.35-1.07,1.18-1.1h2Z"></path><path class="cls-1" d="M94.12,54.3c0,1.52,0,2.91,0,4.31,0,.41-.09.54-.52.55s-.47-.19-.47-.53c0-1.75,0-3.49,0-5.23,0-.19-.15-.47.14-.55a.74.74,0,0,1,.76.18c1.25,1.18,2.52,2.34,3.78,3.51l1.08,1c0-1.43,0-2.78,0-4.12,0-.57.22-.62.66-.6.27,0,.37.08.37.36,0,1.87,0,3.74,0,5.62,0,.13.06.31-.17.34a.82.82,0,0,1-.7-.22c-1-.93-1.94-1.83-2.92-2.75Z"></path><path class="cls-1" d="M176.4,57.58c0-1.46,0-2.85,0-4.25,0-.38.09-.51.49-.51s.47.19.47.53c0,1.74,0,3.49,0,5.23,0,.18.14.46-.16.54a.69.69,0,0,1-.69-.21c-1.34-1.27-2.7-2.53-4.05-3.79l-.88-.82c0,1.5,0,2.89,0,4.28,0,.36,0,.59-.49.57s-.52-.1-.51-.5c0-1.74,0-3.49,0-5.23,0-.19-.13-.47.14-.56a.73.73,0,0,1,.77.16c.59.58,1.22,1.13,1.82,1.69Z"></path><path class="cls-1" d="M227.9,56c0,.87,0,1.74,0,2.61,0,.45-.15.51-.54.52s-.55-.14-.53-.54c0-.62,0-1.24,0-1.85,0-.38-.13-.47-.48-.46-1.27,0-2.55,0-3.83,0-.45,0-.53.16-.51.56,0,.59,0,1.19,0,1.78s-.16.52-.55.52-.53-.06-.52-.48c0-1.79,0-3.58,0-5.36,0-.42.14-.49.51-.49s.59,0,.56.51,0,1.11,0,1.66c0,.31.11.4.41.4,1.32,0,2.64,0,4,0,.39,0,.46-.15.45-.49s0-1,0-1.47,0-.61.51-.62.55.26.54.65C227.89,54.31,227.9,55.16,227.9,56Z"></path><path class="cls-1" d="M151.62,52.83c1,0,1.92,0,2.88,0,.29,0,.47,0,.46.4s-.08.5-.46.48c-.57,0-1.15,0-1.72,0s-.67.09-.65.62c0,1.44,0,2.89,0,4.34,0,.47-.18.49-.55.5s-.56-.08-.55-.52c0-1.47,0-2.94,0-4.41,0-.42-.13-.55-.54-.53-.62,0-1.24,0-1.85,0-.41,0-.37-.21-.39-.48s.09-.4.4-.4C149.67,52.84,150.65,52.83,151.62,52.83Z"></path><path class="cls-1" d="M211.08,52.83c1,0,2,0,2.94,0,.34,0,.42.12.42.45s-.11.45-.44.43c-.62,0-1.23,0-1.85,0-.4,0-.5.12-.5.5,0,1.47,0,2.94,0,4.41,0,.45-.13.56-.57.56s-.54-.13-.53-.54c0-1.41,0-2.81,0-4.21,0-.62-.19-.77-.75-.72s-1.11,0-1.66,0c-.36,0-.42-.14-.43-.45s.13-.43.45-.43C209.17,52.84,210.12,52.83,211.08,52.83Z"></path><path class="cls-1" d="M302.38,56c0-.91,0-1.83,0-2.74,0-.51.31-.38.58-.4s.52,0,.52.41c0,1.49,0,3,0,4.46,0,.41.09.56.52.55,1.19,0,2.38,0,3.57,0,.32,0,.56,0,.57.45s-.18.47-.53.47c-1.57,0-3.15,0-4.72,0-.4,0-.5-.11-.49-.5C302.4,57.76,302.38,56.86,302.38,56Z"></path><path class="cls-1" d="M162.53,56c0,.89,0,1.78,0,2.67,0,.4-.11.52-.5.5s-.56,0-.55-.46q0-2.7,0-5.4c0-.45.2-.45.54-.47s.52.08.51.49C162.51,54.2,162.53,55.09,162.53,56Z"></path><path class="cls-1" d="M24.84,29.93a12.24,12.24,0,0,0-2.07,1.42,7.94,7.94,0,0,0-1.29,1.49.25.25,0,0,0,0,.36,51.74,51.74,0,0,0,6.25,5.86c1,.79,2,1.52,3.09,2.23v20a4.38,4.38,0,0,1-1.79.3,2.15,2.15,0,0,1-1.18-.64,19,19,0,0,1-3.28-3.82,36.37,36.37,0,0,1-2.33-3.89A58.36,58.36,0,0,1,17.87,42a73,73,0,0,1-1.66-7.28q-.54-3-.85-6c-.12-1.12-.2-2.25-.31-3.37a2.33,2.33,0,0,1,1-2.28,9.1,9.1,0,0,1,1.24-.81c0,.14.11.2.19.28l7.15,7.15C24.73,29.75,24.82,29.81,24.84,29.93Z"></path><path class="cls-1" d="M30.85,61.25v-20c.8.5,1.6,1,2.42,1.48s1.56.8,2.35,1.17A31.06,31.06,0,0,0,44,46.54c.3.05.61.07.91.15a.28.28,0,0,0,.24,0c.06,0,0-.14,0-.21a25.55,25.55,0,0,0-2.74-5,46.54,46.54,0,0,0-5-6.09l-.3-.31h0a42.92,42.92,0,0,1,4.74,1.25A35.26,35.26,0,0,1,48,38.86c.61.33,1.21.68,1.79,1.06,0,0,.11,0,.13.11a.63.63,0,0,0,0,.3V44c0,.87,0,1.74,0,2.62,0,.15,0,.22.21.21s.41,0,.62-.05l1.09-.12c.43,0,.85-.15,1.28-.15,0,.07-.07.09-.11.13-4.76,3.7-9.59,7.29-14.64,10.57-1.43.93-2.89,1.82-4.4,2.62a20.36,20.36,0,0,1-3,1.38Z"></path><path class="cls-1" d="M24.84,29.93c0-.12-.11-.18-.19-.26L17.5,22.52c-.08-.08-.2-.14-.19-.28a10.55,10.55,0,0,1,3.35-1.18c.36-.06.72-.15,1.08-.2a22.22,22.22,0,0,1,4.61-.17c.58,0,1.14.08,1.71.14a51.57,51.57,0,0,1,13.51,3.74c2,.81,3.94,1.7,5.9,2.68L45,27.1C43.49,27,42,27,40.57,27c-1,0-1.93,0-2.89.1s-2,.13-3,.23a35,35,0,0,0-7,1.39A17.06,17.06,0,0,0,25,29.85Z"></path><path class="cls-1" d="M53.11,46.52c-.43,0-.85.11-1.28.15l-1.09.12c-.21,0-.42,0-.62.05s-.21-.06-.21-.21c0-.88,0-1.75,0-2.62V40.33a.63.63,0,0,1,0-.3,15.33,15.33,0,0,1,2.32,1.75,9.53,9.53,0,0,1,1.5,1.67,3.33,3.33,0,0,1,.46.9,1,1,0,0,1,0,.74,4,4,0,0,1-1.06,1.41s0,0,0,0Z"></path><polygon class="cls-1" points="37.11 35.02 37.11 35.01 37.11 35.02 37.11 35.02"></polygon><path class="cls-1" d="M53.11,46.52s0,0,0,0Z"></path></svg>