<svg xmlns="http://www.w3.org/2000/svg" id="Layer_1" data-name="Layer 1" viewBox="0 0 337.32 82.2"><defs><style>.cls-1{fill:#fff;}</style></defs><path class="cls-1" d="M99.49,50.34c0,1.46,0,2.77,0,4.08,0,.18-.31.42-.53.51a2,2,0,0,1-.73,0H33.57c-1.26,0-1.26,0-1.26-1.22,0-3.24,0-6.47,0-9.7,0-.77.22-1,1-1,10,0,19.9,0,29.84,0,7.12,0,14.24,0,21.35,0a19.56,19.56,0,0,0,4.32-.52,8.33,8.33,0,0,0,6.53-7.73,9.22,9.22,0,0,0-8.73-10.35c-1.34-.1-2.69-.15-4-.15H11.8c-1.51,0-1.35-.09-1.35,1.31V62.93c-1.44,0-2.77,0-4.11,0-.17,0-.38-.3-.47-.5a1.75,1.75,0,0,1,0-.65V21c0-1.23,0-1.23,1.19-1.23H84.77a18.16,18.16,0,0,1,5.9.93,13,13,0,0,1,9.1,10.87,13.23,13.23,0,0,1-3.91,12.23,14.09,14.09,0,0,1-8.45,3.67,35.23,35.23,0,0,1-4.11.18H38.13c-1.15,0-1.15,0-1.16,1.15v1.54Z"></path><path class="cls-1" d="M99.16,58.43c0,1.45,0,2.79,0,4.13,0,.17-.27.38-.47.49s-.37,0-.57,0c-21.13,0-42.26,0-63.39,0a28.41,28.41,0,0,1-7-1,13.48,13.48,0,0,1-8.69-6.45c0,.25-.05.5-.06.74,0,1.78,0,3.57,0,5.35,0,.61-.18.81-.8.79-1.25-.05-2.51,0-3.81,0V27.68h.92q34.62,0,69.25,0c.79,0,1,.22,1,1,0,3.34,0,6.68,0,10,0,1.08,0,1.08-1.1,1.08q-24.78,0-49.55,0a16.47,16.47,0,0,0-7.65,1.61,8.66,8.66,0,0,0,1,16,17.82,17.82,0,0,0,6.22,1H99.16ZM81,35.25a19.86,19.86,0,0,1,0-2.06c.08-.78-.25-1-1-1q-30,0-60.1,0c-.74,0-1,.21-1,1,0,3,0,5.91,0,8.87,0,.29.05.57.07.86a2.31,2.31,0,0,0,.69-.66A28.13,28.13,0,0,1,23,38.75c3.28-2.59,7.2-3.46,11.27-3.48,15.14-.06,30.28,0,45.42,0Z"></path><path class="cls-1" d="M137.3,42.49l.66.19c2.94.77,4.1,2.1,4.56,5.1.53,3.42,1.07,6.85,1.66,10.27a13.93,13.93,0,0,0,.75,2.59c.32.81.76,1.57,1.17,2.41a4.21,4.21,0,0,1-.55.06c-2.42,0-4.83,0-7.25,0-.62,0-.88-.2-1-.79-.59-3.61-1.25-7.21-1.78-10.83-.48-3.24-3.22-6.45-6.2-7.06a5.33,5.33,0,0,0-1-.08c-4.48,0-9,0-13.44,0-.77,0-1,.24-1,1,0,5.56,0,11.12,0,16.68v1.06c-.32,0-.58,0-.84,0-2.26,0-4.51,0-6.76,0-.78,0-1-.25-1-1,0-5.53,0-11.07,0-16.6V20.48c0-1.18,0-1.18,1.14-1.18,6.7,0,13.41,0,20.11,0a32,32,0,0,1,11.48,1.79c3,1.17,5.59,3,6.53,6.24a15,15,0,0,1-.62,10.27c-1.07,2.53-3.23,3.77-5.79,4.43-.31.09-.63.16-.94.24ZM114,25.64c0,.2,0,.33,0,.46,0,3.86,0,7.72,0,11.57,0,.74.42.69.9.69,4.59,0,9.17,0,13.75,0a17.79,17.79,0,0,0,4.29-.63A5.26,5.26,0,0,0,137,33.63a5.89,5.89,0,0,0-2-6.14,8.62,8.62,0,0,0-5.67-1.87c-4.85,0-9.71,0-14.57,0C114.55,25.6,114.33,25.62,114,25.64Z"></path><path class="cls-1" d="M314.76,63.11c-2.13,0-4.24,0-6.34,0-.19,0-.48-.33-.54-.56-.32-1.12-.58-2.26-.87-3.43-.08,0-.2.07-.26.15a13,13,0,0,1-7.95,4.44,18.7,18.7,0,0,1-11.44-1,14.78,14.78,0,0,1-8.79-11.17,15.41,15.41,0,0,1,4.55-15,16.58,16.58,0,0,1,9.43-4.3,18.06,18.06,0,0,1,10.91,1.48A44.86,44.86,0,0,1,307.28,36V19.36h7.16C314.69,33.89,314.17,48.43,314.76,63.11Zm-17.35-4.48.56,0a4.84,4.84,0,0,0,.65-.09A10.72,10.72,0,0,0,305.83,53a8.79,8.79,0,0,0,1.2-7.14,13.53,13.53,0,0,0-3.71-6,9.86,9.86,0,0,0-6.92-3,11.05,11.05,0,0,0-11.07,11C285.18,53.87,291.1,59.12,297.41,58.63Z"></path><path class="cls-1" d="M203.85,41.26a7.73,7.73,0,0,1,3.06-6.18,13.89,13.89,0,0,1,6.26-2.54,33.44,33.44,0,0,1,14.36.25c3.55.94,6.37,2.85,7.53,6.54a12.74,12.74,0,0,1,.58,3.62c.07,5.23,0,10.46.05,15.69,0,1.44.2,2.88.31,4.39h-6.82l-.42-3.69c-.09,0-.16,0-.19,0-2.21,2.48-5.15,3.56-8.29,4.19a22.73,22.73,0,0,1-11.55-.29c-3.1-1-5.57-2.78-6.42-6.12-.94-3.69.48-6.66,3.18-9.09,2.43-2.19,5.46-3.07,8.61-3.58A73,73,0,0,1,227,43.68c.87,0,1.14-.26,1-1.06a2.36,2.36,0,0,1,0-.65c.26-2-.75-3.18-2.46-3.9a12.72,12.72,0,0,0-11,0,5,5,0,0,0-2.74,2.82.55.55,0,0,1-.38.32C208.89,41.27,206.4,41.26,203.85,41.26ZM217.1,58.5c1-.08,2-.11,3-.25,5.38-.77,7.79-3.76,7.95-8.68,0-.53-.12-.76-.71-.82a37.37,37.37,0,0,0-8.78.07,14.59,14.59,0,0,0-5.77,1.81c-1.88,1.12-2.44,2.43-2,4.64a3.77,3.77,0,0,0,3.49,3C215.21,58.39,216.17,58.42,217.1,58.5Z"></path><path class="cls-1" d="M167.32,64.14a27.08,27.08,0,0,1-11.89-2.55c-4.05-2-7-5.07-7.82-9.66a15.92,15.92,0,0,1,7.71-16.67A23.22,23.22,0,0,1,168.14,32a24.07,24.07,0,0,1,12.54,4A14.84,14.84,0,0,1,179,61.59a23,23,0,0,1-8.59,2.34C169.4,64,168.36,64.07,167.32,64.14Zm0-5a11.27,11.27,0,0,0,8.92-4.2,10.25,10.25,0,0,0-1.26-15,12,12,0,0,0-15.76.34,9.92,9.92,0,0,0-3.44,9.24A11.66,11.66,0,0,0,167.32,59.1Z"></path><path class="cls-1" d="M241.11,31.81h7.25v4.77l.86-.81a15.76,15.76,0,0,1,22.12,0,8.15,8.15,0,0,1,2.39,6c.13,5.72.1,11.45.13,17.17,0,1.16,0,2.31,0,3.46,0,.37,0,.72-.54.71h-6.54v-1c0-5.67,0-11.34,0-17a12.07,12.07,0,0,0-.49-3.22c-1-3.53-3.75-4.92-7-4.66A15,15,0,0,0,250.47,41a5.79,5.79,0,0,0-2.13,4.68c.07,5.45,0,10.9,0,16.36v1h-7.25Z"></path><path class="cls-1" d="M190.29,19.34h8.27c0,.35.06.67.06,1q0,20.87,0,41.74c0,.8-.16,1.09-1,1.07-2.17-.07-4.34,0-6.51,0-.61,0-.87-.1-.87-.8q0-21.15,0-42.32C190.23,19.81,190.26,19.62,190.29,19.34Z"></path><path class="cls-1" d="M322.47,22.62a4.51,4.51,0,1,1,9,0,4.51,4.51,0,1,1-9,0ZM327,26.86a4.25,4.25,0,1,0,0-8.49,4.21,4.21,0,0,0-4.22,4.25A4.28,4.28,0,0,0,327,26.86Z"></path><path class="cls-1" d="M328.76,25a4.75,4.75,0,0,1-.19-.81A1.75,1.75,0,0,0,326,22.76c-.16.09-.24.4-.25.62,0,.5,0,1,0,1.51l-.28,0a2,2,0,0,1-.12-.53c0-1.26,0-2.52,0-3.78,0-.51.18-.68.67-.65s1.16,0,1.73,0a1.32,1.32,0,0,1,1.06,2.14,1.3,1.3,0,0,0,0,.76c.11.67.25,1.32.38,2Zm-1.87-2.5a6,6,0,0,0,1.05-.14,1,1,0,0,0,.57-1.47,2.91,2.91,0,0,0-2.66-.36.67.67,0,0,0-.09.14A1.2,1.2,0,0,0,326.89,22.46Z"></path></svg>