<svg xmlns="http://www.w3.org/2000/svg" id="Layer_1" data-name="Layer 1" viewBox="0 0 337.32 82.2"><defs><style>.cls-1{fill:#fff;}</style></defs><path class="cls-1" d="M138.57,14.24a9.93,9.93,0,0,0,2.63.59,23.61,23.61,0,0,1,18.27,19.85,29.23,29.23,0,0,1,.22,3.5q0,13.22,0,26.42c0,1.94-.47,2.42-2.38,2.42q-3.84,0-7.68,0c-1.76,0-2.23-.48-2.23-2.2q0-13.36,0-26.74a11.32,11.32,0,0,0-22.54-1.79,27.44,27.44,0,0,0-.15,2.87V64.94c0,1.61-.45,2.08-2.09,2.08-2.67,0-5.34,0-8,0-1.6,0-2.1-.53-2.1-2.11q0-13.63,0-27.28a11.31,11.31,0,0,0-22.45-1.85A12.72,12.72,0,0,0,89.87,38V64.85c0,1.67-.47,2.16-2.14,2.17-2.71,0-5.41,0-8.11,0-1.38,0-2-.5-2-1.69,0-9.56-.14-19.11,0-28.67.19-10.08,7.58-19,17.37-21.59a16,16,0,0,0,3.34-.83H99.7a9,9,0,0,0,3.84,0h.22c0,.06.06.16.11.17a23.46,23.46,0,0,1,14.37,7.17c.41.43.59.24.91-.09a23.48,23.48,0,0,1,11.67-6.63,12,12,0,0,0,2.84-.62Z"></path><path class="cls-1" d="M196.45,14.24c1.47.49,3,.56,4.5,1,10.78,3.51,17.3,10.84,19.13,22,2.29,14-7.76,27.7-21.74,30.09a21.93,21.93,0,0,1-3.7.4c-.2,0-.44-.07-.54.21h-1.28a7.24,7.24,0,0,0-2.77-.38,26.79,26.79,0,0,1-1.91-52.85,8.8,8.8,0,0,0,2.33-.49Zm-3,41.44a14.68,14.68,0,1,0-14.69-14.84A14.84,14.84,0,0,0,193.42,55.68Z"></path><path class="cls-1" d="M281.46,44.09c-.58,1.62-.67,3.35-1.24,5-3.5,10-10.37,16.23-20.75,18.23-15.89,3-29.37-8.47-31.44-22.81a39.47,39.47,0,0,1-.36-4.34c-.06-1.49.54-2.06,2-2.06h7.58c2.34,0,2.59.24,2.57,2.54A14.3,14.3,0,0,0,244,51.13a14.06,14.06,0,0,0,14.75,3.93c5.73-1.69,9.18-5.68,10.38-11.55a19.84,19.84,0,0,0,.22-3.61c0-1.27.54-1.81,1.81-1.81,2.75,0,5.49,0,8.23,0a2.37,2.37,0,0,1,2.11.9Z"></path><path class="cls-1" d="M281.46,31.3a2.62,2.62,0,0,1-2.24.87c-2.7-.06-5.4,0-8.11,0-1.26,0-1.8-.53-1.8-1.82q0-6.49,0-13c0-1.29.54-1.82,1.81-1.82,2.7,0,5.4,0,8.1,0a2.62,2.62,0,0,1,2.24.88Z"></path><path class="cls-1" d="M103.54,14.24a9,9,0,0,1-3.84,0Z"></path><path class="cls-1" d="M55.89,65.85q0-19.06,0-38.12c0-3.66,0-7.31,0-11,.18-.93.81-1.24,1.7-1.24H66.2c1.19,0,1.7.49,1.7,1.65q0,24.06,0,48.12c0,1.1-.49,1.69-1.59,1.7-2.95,0-5.9,0-8.85,0A1.49,1.49,0,0,1,55.89,65.85Z"></path><path class="cls-1" d="M239.84,23.91c0,2.13,0,4.26,0,6.39,0,1.38-.49,1.85-1.86,1.85h-8.43c-1.32,0-1.88-.53-1.89-1.87q0-6.39,0-12.78c0-1.47.56-2,2-2h8.11c1.6,0,2.05.46,2.05,2.1C239.85,19.72,239.85,21.81,239.84,23.91Z"></path></svg>