<svg xmlns="http://www.w3.org/2000/svg" id="Layer_1" data-name="Layer 1" viewBox="0 0 337.32 82.2"><defs><style>.cls-1{fill:#fff;}</style></defs><path class="cls-1" d="M36.36,62.91a2.73,2.73,0,0,1-.68,1.72A4.83,4.83,0,0,1,33,66.51a8.11,8.11,0,0,1-2.26.38q-3.75,0-7.51,0c-.23,0-.43-.19-.66-.07v-.41c.23.09.26-.09.26-.23,0-.75.33-1.44.42-2.18.06-.49.21-1,.31-1.46.19-1,.39-2,.64-3,.28-1.19.5-2.39.76-3.58a23.26,23.26,0,0,0,.49-2.46c.06-.49.27-1,.32-1.46,0-.25.24-.3.46-.3H28.5c.87,0,1.74,0,2.61,0a19.16,19.16,0,0,1,3,.13,3.09,3.09,0,0,1,2.78,2,4.37,4.37,0,0,1,.19,1.8,3.75,3.75,0,0,1-.6,1.82A3.3,3.3,0,0,1,35,58.7c-.08,0-.15,0-.17.15s.08.15.16.2a2.76,2.76,0,0,1,1.5,2.26,1.31,1.31,0,0,0,.06.27c0,.1.07.18.19.17s.12-.09.14-.17.08-.4.11-.6a6.45,6.45,0,0,1,2.41-4.23A5.64,5.64,0,0,1,43.7,55.6a4.79,4.79,0,0,1,3.19,1.51s0,.09.06.14a.25.25,0,0,1-.22-.08,4.24,4.24,0,0,0-2.79-1.33,6.08,6.08,0,0,0-.87-.16A9.4,9.4,0,0,0,41.4,56a4.6,4.6,0,0,0-2.25,1.19,6.88,6.88,0,0,0-2,3.78,13,13,0,0,0,0,2.07,4,4,0,0,0,1.24,2.78,3.75,3.75,0,0,0,1.94,1,11.14,11.14,0,0,0,2.31.07A4.85,4.85,0,0,0,45,66.21a5.07,5.07,0,0,0,2-2.36c.13-.28,0-.37-.24-.37-.59,0-1.17,0-1.75,0A1.09,1.09,0,0,0,44,64a2.27,2.27,0,0,1-1.37.9,5.12,5.12,0,0,1-1.24,0,1.8,1.8,0,0,1-1-.51,2,2,0,0,1-.62-1.82c0-.38.14-.53.53-.53l7,0a.42.42,0,0,0,.44-.26A3,3,0,0,0,47.76,60,3.38,3.38,0,0,0,47,57.58a.11.11,0,0,1,0-.17c.11,0,.24.05.27-.14.07-.34.18-.67.24-1s.18-.42.49-.4.78,0,1.18,0c.22,0,.32-.06.38-.31a15.67,15.67,0,0,0,.5-2.47c0-.36.24-.55.65-.54.74,0,1.49,0,2.23,0,.23,0,.34.09.34.3a1.47,1.47,0,0,1-.05.56A4.92,4.92,0,0,0,53,54.86a2.46,2.46,0,0,1-.19.58c-.12.27,0,.44.29.44s.81,0,1.22,0,.61.14.42.6c-.05.12,0,.28-.16.36-.17-.15-.06-.34,0-.49s0-.36-.29-.34a6.14,6.14,0,0,0-1.21.06c-.25.07-.42,0-.43-.33a2.05,2.05,0,0,1,.16-1,2,2,0,0,0,.17-.75,2,2,0,0,1,.19-.93c.1-.18,0-.29-.18-.28H50.62c-.2,0-.34.08-.32.28.06.81-.4,1.53-.37,2.35,0,.47-.39.69-.85.59A6.07,6.07,0,0,0,48,56c-.12,0-.19.06-.18.17a2.68,2.68,0,0,1-.3,1.28c-.07.24,0,.29.23.28s.71,0,1.06,0,.57.11.56.57a1.51,1.51,0,0,1-.11.43,12.05,12.05,0,0,0-.45,2.13A9.55,9.55,0,0,0,48.35,63c0,.07-.06.14-.09.22a6.09,6.09,0,0,0-.16,2.44.28.28,0,0,0,0,.12,2.19,2.19,0,0,0,1.59,1,19.86,19.86,0,0,0,2.56,0c.18,0,.29-.07.29-.26a3.14,3.14,0,0,1,.3-1.41c.11-.22,0-.36-.26-.34h-.73c-.54,0-1.21-.69-.94-1.24a1.51,1.51,0,0,0,.1-.76,1.31,1.31,0,0,1,.35-.91,1.7,1.7,0,0,1-.12.95,2.64,2.64,0,0,0-.17,1,.58.58,0,0,0,.7.63c.27,0,.54,0,.8,0s.46.08.46.43c0,.64-.32,1.22-.39,1.85,0,.13-.13.19-.26.21a9.43,9.43,0,0,1-3,0,2.16,2.16,0,0,1-1.51-1.33c-.39-.88,0-1.67.17-2.48.16-1,.42-2,.62-3,.11-.5.22-1,.31-1.5s0-.49-.4-.49h-.45c-.5,0-.63.12-.43.56A6.07,6.07,0,0,1,48,60.93a4.48,4.48,0,0,1-.16,1c-.07.29-.32.29-.55.29H40.7c-1,0-.86-.14-.83.91a1.86,1.86,0,0,0,1.49,1.56,2.36,2.36,0,0,0,2.67-1,1,1,0,0,1,1-.44c.66,0,1.32,0,2,0,.29,0,.45.21.33.45a6.83,6.83,0,0,1-1.51,2.18A5.12,5.12,0,0,1,43.21,67a10.76,10.76,0,0,1-1.69.12,4.75,4.75,0,0,1-3.58-1.49,4,4,0,0,1-1-2.52,1.36,1.36,0,0,0,0-.2.39.39,0,0,0-.2-.33c-.19-.1-.19.15-.31.18a3.19,3.19,0,0,1-.06-1.15,2.55,2.55,0,0,0-1.67-2.5c-.09,0-.17-.09-.18-.2a.2.2,0,0,1,.13-.22,4.44,4.44,0,0,1,.57-.3A3,3,0,0,0,36.88,56a4.41,4.41,0,0,0,0-1.66,2.47,2.47,0,0,0-.8-1.53A4.23,4.23,0,0,0,33.38,52c-2.22-.08-4.44,0-6.66,0-.7,0-.89.14-.91.82A15.43,15.43,0,0,1,25.37,55a19,19,0,0,1-.49,2.24c-.08.24,0,.51-.11.75-.26.84-.38,1.7-.56,2.56-.22,1-.43,2-.65,3.07a2,2,0,0,1-.09.47c-.28.68-.19,1.44-.5,2.11a1.27,1.27,0,0,0,0,.2c0,.21.09.29.3.28,2.74-.11,5.49.13,8.23-.13a6.35,6.35,0,0,0,3.08-1,3.56,3.56,0,0,0,1.14-1.26A11.17,11.17,0,0,1,36.36,62.91Z"></path><path class="cls-1" d="M62.62,47.66H24.08c-1.08,0-1,.09-1-1,0-1.42,0-2.84,0-4.26,0-.37.1-.54.51-.54H61.09a.79.79,0,0,0,.76-.47c.59-1.09,1.18-2.17,1.79-3.24s1.3-2.48,2-3.69c.49-.85,1-1.7,1.43-2.56.57-1,1.14-2.07,1.69-3.12.45-.87,1-1.7,1.44-2.56s.92-1.75,1.4-2.62c.56-1,1.13-2,1.69-3,.47-.84.93-1.69,1.39-2.54.7-1.26,1.4-2.51,2.09-3.77.49-.89,1-1.78,1.43-2.67.09-.17.17-.29.38-.27h42a5.69,5.69,0,0,1,3.51,1.2A2.71,2.71,0,0,1,125,15.3a5.9,5.9,0,0,1-.9,2.09l-1.39,2.54c-.38.69-.77,1.38-1.15,2.08s-.74,1.28-1.05,1.95a9.14,9.14,0,0,1-3.92,4.23,8.52,8.52,0,0,1-2.67,1.08c-.3.05-.26.22-.13.41a12.21,12.21,0,0,1,.85,1.27,3.91,3.91,0,0,1,.3,3,16.14,16.14,0,0,1-1.48,2.86c-.44.86-.94,1.69-1.41,2.53-.61,1.07-1.21,2.16-1.82,3.23a10.25,10.25,0,0,1-1.29,1.9,9.14,9.14,0,0,1-2.29,1.76,11.89,11.89,0,0,1-2.9,1.11,8.51,8.51,0,0,1-2.12.33q-19.48,0-39,0ZM96.82,26.6h0c1.25,0,2.49,0,3.74,0a6.23,6.23,0,0,0,3.3-.77,4.74,4.74,0,0,0,1.89-2c.44-.87.88-1.72,1.35-2.57a7.14,7.14,0,0,0,.72-1.62,1.5,1.5,0,0,0-.74-1.68,2.92,2.92,0,0,0-1.14-.25H96.8a.5.5,0,0,0-.52.29c-.51,1-1,1.91-1.56,2.87s-1,1.78-1.46,2.68S92.4,25.22,91.93,26c-.26.44-.14.58.38.58Zm-3.49,6.14c-1.68,0-3.06,0-4.44,0-.57,0-1.06,0-1.3.65a12.07,12.07,0,0,1-.74,1.37c-.27.55-.56,1.09-.85,1.62s-.69,1.24-1,1.86-.56,1.08-.85,1.62-.6,1.11-.88,1.67c-.17.36,0,.61.41.54a2.69,2.69,0,0,1,.56,0h8.86a1.85,1.85,0,0,0,.52,0,5.48,5.48,0,0,0,1.94-.75,4,4,0,0,0,1.14-1.22c.25-.54.58-1,.84-1.57.35-.72.78-1.41,1.16-2.12.27-.5.53-1,.77-1.53a1.47,1.47,0,0,0,0-1.18,1.61,1.61,0,0,0-1.59-1C96.28,32.74,94.66,32.71,93.33,32.74Z"></path><path class="cls-1" d="M158,11.34c6.32,0,12.63,0,19,0A3.36,3.36,0,0,1,179.9,13a2.51,2.51,0,0,1,.34,1.6A8.45,8.45,0,0,1,179,18.14c-.67,1.18-1.31,2.38-2,3.57L175.19,25c-.57,1-1.12,2.09-1.69,3.12-.48.88-1,1.76-1.48,2.64s-1.08,2-1.63,3c-.7,1.27-1.42,2.53-2.12,3.8-.56,1-1.13,2-1.67,3.09a14.14,14.14,0,0,1-4.56,5.3,10.43,10.43,0,0,1-2.93,1.41,7.25,7.25,0,0,1-2,.34q-18.89,0-37.77,0a3.41,3.41,0,0,1-3-1.46,2.48,2.48,0,0,1-.41-1.81,12.63,12.63,0,0,1,1.71-4.06c.59-1,1.12-2.08,1.69-3.12.47-.85,1-1.7,1.44-2.56s.89-1.68,1.35-2.52c.8-1.46,1.62-2.9,2.42-4.37.68-1.25,1.33-2.51,2-3.76.55-1,1.12-2,1.68-3l1.69-3.06a14,14,0,0,1,3-3.68,12,12,0,0,1,2.63-1.8,17,17,0,0,1,2-.77,11.1,11.1,0,0,1,3.76-.3Zm-3.71,6.21c-.66,0-1.33,0-2,0a2.89,2.89,0,0,0-1.29.36,5.31,5.31,0,0,0-2.33,2.68c-.33.67-.75,1.29-1.07,2s-.77,1.39-1.16,2.09-.77,1.39-1.17,2.08-.63,1.23-1,1.82-.73,1.41-1.14,2.09-.68,1.22-1,1.82c-.21.34-.39.72-.57,1.08-.33.62-.75,1.2-1,1.85a15.28,15.28,0,0,1-.79,1.43c-.26.48-.51,1-.8,1.45s-.58,1-.84,1.53-.62.84-.16,1.37a1.76,1.76,0,0,0,.85.69,4,4,0,0,0,1.08.16,29.85,29.85,0,0,0,3.78-.07,4.45,4.45,0,0,0,1.89-.66,3.71,3.71,0,0,0,1.16-1.14c.26-.43.47-.9.74-1.32.39-.61.68-1.28,1.07-1.9s.54-1,.83-1.55.74-1.23,1-1.88.57-1,.85-1.58.51-.9.76-1.36.48-1,.77-1.46.52-1,.79-1.43l.83-1.5c.24-.43.49-.85.72-1.29s.49-1,.79-1.5.68-1.3,1.08-1.92.75-1.42,1.16-2.11a1,1,0,0,0-.47-1.47,4.4,4.4,0,0,0-1.57-.32C155.5,17.59,154.9,17.55,154.3,17.55Z"></path><path class="cls-1" d="M288.28,17.28H262.66a.71.71,0,0,0-.76.43c-.66,1.27-1.38,2.52-2.08,3.77-.49.87-1,1.72-1.47,2.6s-.81,1.48-1.22,2.23c-.14.24-.07.39.23.39h26.55c.17,0,.38-.07.48.12s-.09.3-.16.43l-1.78,3.26-1,1.89a.48.48,0,0,1-.46.28h-.44q-13.21,0-26.43,0c-.62,0-.65.47-.83.78-.63,1-1.2,2.13-1.79,3.2l-1.73,3.18c-.27.49-.57,1-.84,1.47-.08.15-.25.29-.13.48s.29.11.45.11h26.1c.24.05.57-.15.69.06s-.14.49-.26.72c-.81,1.47-1.65,2.92-2.44,4.41a1.15,1.15,0,0,1-1.2.61H229.27l-4.83,0c-.31,0-.38-.13-.23-.41.81-1.47,1.6-3,2.41-4.42.48-.86,1-1.68,1.45-2.56.63-1.25,1.35-2.44,2-3.68.46-.88,1-1.73,1.46-2.6s1.08-2,1.63-3l1.54-2.78c.54-1,1.07-2,1.62-3s1-1.81,1.5-2.72c.67-1.23,1.33-2.48,2-3.72.47-.86,1-1.69,1.45-2.55s.92-1.73,1.39-2.59.79-1.47,1.18-2.2a.21.21,0,0,1,.22-.12h69.86c.68,0,.68,0,.68.66,0,1.64,0,3.28,0,4.91,0,.27-.11.34-.32.37a1.31,1.31,0,0,1-.28,0H288.28Z"></path><path class="cls-1" d="M194.34,11.35h38.22a.89.89,0,0,0,.72.37,2.82,2.82,0,0,1,.8.23c.3.12.52.41.86.42h0c-.09.32.26.43.35.69a3.53,3.53,0,0,1-.43,2.86c-.28.55-.56,1.12-.89,1.67s-.75,1.35-1.1,2a11.6,11.6,0,0,0-.74,1.5.88.88,0,0,1-.93.63H211.37c-.23,0-.46,0-.69,0s-.23.05-.29-.07a.25.25,0,0,1,.07-.3,2.84,2.84,0,0,0,.48-.82c.27-.58.6-1.12.91-1.68.18-.33.12-.89-.17-1a3,3,0,0,0-1-.33,5.3,5.3,0,0,0-3.78.89,5.8,5.8,0,0,0-1.42,1.59c-.38.6-.72,1.22-1,1.85s-.74,1.22-1.09,1.85c-.48.86-.93,1.74-1.41,2.6-.17.31-.13.42.21.47h20.58a5.76,5.76,0,0,1,2.79.6,2.14,2.14,0,0,1,1.32,2.08,4.55,4.55,0,0,1-.25,1.44,10.72,10.72,0,0,1-.74,1.61c-.28.56-.58,1.11-.91,1.64s-.65,1.23-1,1.84a15.31,15.31,0,0,0-.83,1.41c-.41.9-1,1.71-1.39,2.6s-1,1.75-1.52,2.63a11.55,11.55,0,0,1-2.5,2.76,8.6,8.6,0,0,1-1.56,1,5.4,5.4,0,0,1-1.27.59,2.62,2.62,0,0,0-.83.38l-.22,0c-.4-.17-.76.1-1.14.1q-18.34,0-36.68,0a11,11,0,0,1-2.14-.12,5.22,5.22,0,0,1-2-.74,2.28,2.28,0,0,1-1-1.71,4.29,4.29,0,0,1,.28-1.2,3.93,3.93,0,0,1,.54-1.24c.23-.42.5-.82.71-1.25s.55-1.07.86-1.59a10.67,10.67,0,0,0,.74-1.37.66.66,0,0,1,.73-.52h20.82c.12,0,.18.06.1.18-.33.5-.63,1-.94,1.54a1.14,1.14,0,0,0,.75,1.76,9.09,9.09,0,0,0,1.8.09,5,5,0,0,0,1.92-.36,3.26,3.26,0,0,0,1.45-1.44c.6-1.07,1.12-2.19,1.75-3.25s1.07-2,1.66-3a.49.49,0,0,0-.37-.76,2.27,2.27,0,0,0-.52,0c-5.91,0-11.82,0-17.73,0a10.94,10.94,0,0,1-3.9-.28,4.54,4.54,0,0,1-1.06-.52,2,2,0,0,1-.89-1.32,3.22,3.22,0,0,1,0-1.48,6.83,6.83,0,0,1,.39-1.42c.18-.37.36-.75.55-1.12s.49-.86.73-1.3c.35-.65.68-1.32,1.06-1.95s.77-1.36,1.17-2,1-1.68,1.44-2.53c.35-.62.67-1.27,1-1.87a12.34,12.34,0,0,1,1.1-1.48,12.67,12.67,0,0,1,2.07-1.8,6.14,6.14,0,0,1,1.23-.73c.32-.15.64-.3,1-.42a7.85,7.85,0,0,1,1.94-.57A1.69,1.69,0,0,0,194.34,11.35Z"></path><path class="cls-1" d="M232.69,62.12c-1.15,0-2.3,0-3.45,0-.4,0-.5.15-.51.49A2.05,2.05,0,0,0,231,64.78a2.23,2.23,0,0,0,2-1.05.89.89,0,0,1,.86-.47c1.6.09,3.2-.09,4.79-.08.35,0,.54.07.59.47.1.84.78,1.19,1.57,1.33a2.31,2.31,0,0,0,1.7-.22c.37-.23.76-.69.71-1a1.17,1.17,0,0,0-.76-1c-.92-.35-1.88-.59-2.8-.91a3,3,0,0,1-1.9-1.4,3.19,3.19,0,0,1-.19-1.83,2.94,2.94,0,0,1,1.9-2.37,7.12,7.12,0,0,1,4.19-.52,3.65,3.65,0,0,1,2.51,1.25,3,3,0,0,1,.59,1.84.27.27,0,0,1-.3.31H244.2c-.18,0-.26-.12-.31-.28a1.36,1.36,0,0,0-1.64-1.13,2.42,2.42,0,0,0-1.33.27.84.84,0,0,0,.15,1.49c.57.23,1.14.4,1.71.6a6.38,6.38,0,0,1,2.69,1.4,2.7,2.7,0,0,1,.73,2.06,3.19,3.19,0,0,1-1.76,2.77,7.24,7.24,0,0,1-4.86.65,4.34,4.34,0,0,1-2.21-1,2.93,2.93,0,0,1-1-1.77c0-.14,0-.33-.2-.34s-.19.15-.25.27a4.68,4.68,0,0,1-2.55,2.51,7.08,7.08,0,0,1-4.61.21,3.81,3.81,0,0,1-2.53-2.27,6.59,6.59,0,0,1-.2-4.16,3.47,3.47,0,0,1,.46-1.2c.22-.32.11-.52-.25-.62a3.14,3.14,0,0,0-3.84,1.79,11.2,11.2,0,0,0-.62,2.12c-.14.67-.26,1.35-.44,2s-.26,1.34-.44,2c-.07.26-.14.35-.42.34-.74,0-1.47,0-2.2,0-.36,0-.46-.15-.39-.47.23-1,.49-2.1.69-3.16.15-.84.37-1.66.51-2.5.11-.66.27-1.31.4-2s.4-1.62.5-2.45a.34.34,0,0,1,.37-.34h2.23c.3,0,.44.13.27.43a.19.19,0,0,0,0,.08c0,.23-.22.52,0,.67s.33-.22.47-.36a4.33,4.33,0,0,1,3.5-1.14c.25,0,.34.15.31.41,0,.54-.3,1-.34,1.58,0,.17-.13.38.08.48s.28-.14.39-.27a5.58,5.58,0,0,1,4.43-2.21,5.36,5.36,0,0,1,3.75,1.22,4.13,4.13,0,0,1,1.36,3.09,6.18,6.18,0,0,1-.07,1.82.46.46,0,0,1-.52.39Zm-1.17-1.94h2c.41,0,.53-.18.41-.57,0-.08,0-.16,0-.23a1.69,1.69,0,0,0-1.7-1.48,3,3,0,0,0-2.93,1.84c-.14.28,0,.43.29.44Z"></path><path class="cls-1" d="M36.36,62.91a11.17,11.17,0,0,0-.65,1.35,3.56,3.56,0,0,1-1.14,1.26,6.35,6.35,0,0,1-3.08,1c-2.74.26-5.49,0-8.23.13-.21,0-.3-.07-.3-.28a1.27,1.27,0,0,1,0-.2c.31-.67.22-1.43.5-2.11a2,2,0,0,0,.09-.47c.22-1,.43-2,.65-3.07.18-.86.3-1.72.56-2.56.07-.24,0-.51.11-.75A19,19,0,0,0,25.37,55a15.43,15.43,0,0,0,.44-2.25c0-.68.21-.83.91-.82,2.22,0,4.44,0,6.66,0a4.23,4.23,0,0,1,2.69.89,2.47,2.47,0,0,1,.8,1.53,4.41,4.41,0,0,1,0,1.66,3,3,0,0,1-1.72,2.35,4.44,4.44,0,0,0-.57.3.2.2,0,0,0-.13.22c0,.11.09.16.18.2a2.55,2.55,0,0,1,1.67,2.5,3.19,3.19,0,0,0,.06,1.15Zm-7.44,1.25c.59,0,1.19,0,1.78,0a2.36,2.36,0,0,0,2.49-2.25A1.58,1.58,0,0,0,32,60.27a8.61,8.61,0,0,0-1.6-.17c-.77,0-1.54,0-2.31,0s-.76,0-.88.75c0,.09,0,.18-.07.27-.19.86-.37,1.71-.57,2.56-.07.35.08.48.41.48Zm1.17-6.36c.52,0,1,0,1.55,0a2,2,0,0,0,1.22-.33,2,2,0,0,0,.86-2A1.51,1.51,0,0,0,32,54.36H29c-.27,0-.37.09-.44.35-.24.87-.31,1.78-.59,2.65-.1.3,0,.46.34.45C28.87,57.79,29.48,57.81,30.09,57.8Z"></path><path class="cls-1" d="M191.61,67.28h1.1a.47.47,0,0,1,.49.35,1.83,1.83,0,0,0,2,1.21,2.44,2.44,0,0,0,2.22-1.71,3.22,3.22,0,0,0,.43-1.18c0-.1.06-.22-.07-.29s-.2,0-.29.08a3.89,3.89,0,0,1-4,.57,4,4,0,0,1-2.54-3.78,7.66,7.66,0,0,1,1-4.09,5.1,5.1,0,0,1,3-2.56,4.69,4.69,0,0,1,3.32.08,2.8,2.8,0,0,1,1.08.82,1.64,1.64,0,0,0,.21.24c.21.18.37.19.41-.13a2,2,0,0,0,.05-.24c.09-.73.09-.73.84-.72h1.75c.32,0,.45.08.34.47-.19.67-.28,1.37-.42,2.06s-.37,1.61-.52,2.41c-.24,1.28-.53,2.54-.79,3.8a13.05,13.05,0,0,1-.94,3.42,4.39,4.39,0,0,1-2.43,2.3,8.07,8.07,0,0,1-5,.2,3.28,3.28,0,0,1-2.54-2.83c0-.44,0-.48.47-.47Zm2.29-5.4a4.38,4.38,0,0,0,.06.75A2.25,2.25,0,0,0,195,64.12a2.44,2.44,0,0,0,2.68-.54A4.57,4.57,0,0,0,199,60.12a2.24,2.24,0,0,0-.14-.92,2.19,2.19,0,0,0-3.64-.59A4.69,4.69,0,0,0,193.9,61.88Z"></path><path class="cls-1" d="M135.34,66.83c-.34,0-.68,0-1,0s-.52-.08-.39-.46a1.16,1.16,0,0,0,.05-.28.2.2,0,0,0-.12-.19c-.07,0-.12,0-.17.08a4.12,4.12,0,0,1-3.94,1,3.45,3.45,0,0,1-2.48-1.77,3.67,3.67,0,0,1-.47-1.36,9.21,9.21,0,0,1,.47-4.23,6.07,6.07,0,0,1,2.52-3.22,5.19,5.19,0,0,1,3.18-.73,3.36,3.36,0,0,1,2.43,1.18c.08.09.15.25.31.22s.13-.23.15-.34c.16-.92.36-1.83.57-2.73.13-.57.26-1.13.35-1.71.06-.32.17-.47.52-.47.75,0,1.49,0,2.24,0,.34,0,.39.16.31.43-.24.94-.39,1.91-.61,2.85-.39,1.64-.69,3.3-1.07,4.94s-.73,3.51-1.09,5.27c-.09.44-.2.87-.3,1.3,0,.22-.19.26-.39.26h-1.06Zm-5.62-4.52a2.79,2.79,0,0,0,.25,1.23,2.13,2.13,0,0,0,3.41.68,4.34,4.34,0,0,0,1.53-2.65,4.21,4.21,0,0,0,.1-2,2.05,2.05,0,0,0-.63-1.14,2.42,2.42,0,0,0-3.21.24A5.61,5.61,0,0,0,129.72,62.31Z"></path><path class="cls-1" d="M154,51.78h1.22c.28,0,.37.13.29.43-.2.82-.39,1.65-.52,2.48a10.52,10.52,0,0,0-.34,1.67c0,.12-.08.28.08.36s.24-.06.35-.15a4.56,4.56,0,0,1,4.09-.84c1.81.46,2.33,1.94,2,3.56l-1.08,5.06a11.57,11.57,0,0,0-.4,2c0,.3-.17.45-.5.44-.75,0-1.51,0-2.27,0-.27,0-.33-.15-.29-.36.12-.64.24-1.27.38-1.91.36-1.77.74-3.53,1.1-5.3a1.24,1.24,0,0,0-.9-1.16,2.56,2.56,0,0,0-2.87,1.25,7.87,7.87,0,0,0-.95,3.06c-.3,1.39-.61,2.77-.9,4.15-.05.2-.15.28-.34.27h-2.28c-.38,0-.45-.13-.36-.52.19-.83.35-1.66.53-2.49s.33-1.5.49-2.25.28-1.29.41-1.94c.16-.89.35-1.77.55-2.65.16-.68.27-1.37.41-2.06.2-.94.4-1.88.59-2.81a.36.36,0,0,1,.42-.33c.37,0,.74,0,1.1,0Z"></path><path class="cls-1" d="M206,51.78h1.05c.31,0,.46.08.38.43-.29,1.34-.57,2.69-.86,4,0,.08,0,.16,0,.24s0,.19.09.24.15,0,.22,0c.26-.15.47-.36.74-.5A4.93,4.93,0,0,1,211,55.7a2.44,2.44,0,0,1,2.13,2.56,14.6,14.6,0,0,1-.53,3.42c-.24,1.25-.54,2.48-.79,3.73-.07.38-.18.76-.27,1.14a.34.34,0,0,1-.37.29l-2.2,0c-.25,0-.48,0-.4-.41.4-1.93.78-3.86,1.19-5.78a8.57,8.57,0,0,0,.23-1.31,1.13,1.13,0,0,0-.93-1.23,2.61,2.61,0,0,0-2.9,1.43,6.15,6.15,0,0,0-.66,2c-.25,1.31-.57,2.61-.85,3.92-.06.29-.1.58-.15.88a.53.53,0,0,1-.62.49c-.67,0-1.35,0-2,0-.33,0-.46-.15-.4-.44.17-.86.36-1.72.54-2.57l.42-2c.19-.91.39-1.82.58-2.73.23-1.13.45-2.27.69-3.41.17-.8.35-1.6.52-2.41.07-.34.14-.68.18-1a.45.45,0,0,1,.52-.44Z"></path><path class="cls-1" d="M123.58,66.83c-.38,0-.76,0-1.14,0s-.37-.14-.31-.41c.4-1.83.81-3.65,1.17-5.49a8.27,8.27,0,0,0,.29-1.71,1.24,1.24,0,0,0-1-1.15,2.66,2.66,0,0,0-2.8,1.32,6.21,6.21,0,0,0-.67,1.88c-.23,1.23-.54,2.44-.8,3.67a13,13,0,0,1-.33,1.5c-.09.27-.19.39-.5.38-.69,0-1.39,0-2.08,0-.46,0-.5-.1-.4-.54.26-1.16.5-2.32.75-3.48.2-1,.42-2,.62-3,.25-1.21.48-2.41.72-3.62,0-.23.2-.3.41-.3h2.23c.29,0,.38.12.27.42s-.34.51-.06.68.35-.21.52-.35a4.74,4.74,0,0,1,4.3-.92,2.64,2.64,0,0,1,1.93,3.16c-.1.83-.34,1.64-.5,2.46s-.35,1.74-.53,2.61-.37,1.64-.52,2.46a.39.39,0,0,1-.47.37h-1.14Z"></path><path class="cls-1" d="M182.87,55.93h1.18c.26,0,.34.09.28.41-.14.77-.36,1.52-.48,2.3s-.35,1.52-.49,2.29a18.09,18.09,0,0,0-.46,2.63A1.24,1.24,0,0,0,184,64.64a2.6,2.6,0,0,0,2.45-1,4.6,4.6,0,0,0,.91-2.1c.29-1.42.57-2.85.91-4.27a8.89,8.89,0,0,0,.13-.88.41.41,0,0,1,.47-.43h2.28c.26,0,.36.1.31.38-.29,1.35-.57,2.69-.84,4s-.57,2.91-.9,4.36c-.12.52-.21,1.06-.32,1.58s-.23.58-.69.55a15.22,15.22,0,0,0-1.91,0c-.31,0-.41-.1-.36-.41s.22-.47,0-.59-.4.14-.58.29a4.16,4.16,0,0,1-2.25.9,4.81,4.81,0,0,1-2.13-.17,2.47,2.47,0,0,1-1.68-2.25,7.64,7.64,0,0,1,.29-2.33,11.09,11.09,0,0,0,.31-1.5c.11-.74.33-1.45.44-2.18s.35-1.61.53-2.41a.31.31,0,0,1,.35-.26h1.18Z"></path><path class="cls-1" d="M253.72,62.09c-1.16,0-2.33,0-3.49,0-.39,0-.51.14-.53.52a2,2,0,0,0,1.21,2,2.56,2.56,0,0,0,3-.81.91.91,0,0,1,.92-.49c.59,0,1.19,0,1.79,0s.57.13.4.53a4.71,4.71,0,0,1-2.68,2.73,7.57,7.57,0,0,1-4.34.24,3.74,3.74,0,0,1-2.71-2.21,6.5,6.5,0,0,1-.48-2.32,6.27,6.27,0,0,1,.26-1.92,6.39,6.39,0,0,1,1.77-3.17,5.67,5.67,0,0,1,4.83-1.54,4.69,4.69,0,0,1,3.14,1.49,4.15,4.15,0,0,1,.94,2.14,6.89,6.89,0,0,1-.05,2.48c-.05.24-.16.32-.42.32Zm-1.29-1.89c.68,0,1.35,0,2,0,.28,0,.46-.1.45-.39a1.7,1.7,0,0,0-1.57-1.89,2.87,2.87,0,0,0-3.14,1.83c-.13.25,0,.45.24.45Z"></path><path class="cls-1" d="M265.68,66.81a8.68,8.68,0,0,0-1,0c-.34,0-.43-.14-.43-.43,0-.13.07-.29-.07-.38s-.26.09-.37.17a5.1,5.1,0,0,1-4.43.63,2.62,2.62,0,0,1-2-2.58,3.15,3.15,0,0,1,1-2.49,4.48,4.48,0,0,1,2.31-1.09,25.68,25.68,0,0,1,3.29-.38,3.33,3.33,0,0,0,1.07-.33,1.16,1.16,0,0,0,.55-1.09,1.25,1.25,0,0,0-.9-1.05,3.19,3.19,0,0,0-1.91,0,1.61,1.61,0,0,0-1.1,1.05.53.53,0,0,1-.59.43c-.63,0-1.27,0-1.91,0-.31,0-.41-.14-.36-.43a3.31,3.31,0,0,1,1.46-2.28,6.77,6.77,0,0,1,4.59-.89,6.23,6.23,0,0,1,2.07.51,2.26,2.26,0,0,1,1.42,2.12,12.23,12.23,0,0,1-.37,2.76c-.33,1.38-.61,2.77-.91,4.15a4.17,4.17,0,0,0,0,1.17c0,.33-.12.44-.43.43S266,66.81,265.68,66.81ZM262.14,65a2.18,2.18,0,0,0,1.49-.51,4,4,0,0,0,1.28-2.4c.07-.26-.09-.36-.36-.3a10.69,10.69,0,0,1-1.95.3,3.16,3.16,0,0,0-1.33.31,1.47,1.47,0,0,0-.85,1.31,1.15,1.15,0,0,0,.69,1.09A2,2,0,0,0,262.14,65Z"></path><path class="cls-1" d="M91.91,59.1H91c-.26,0-.49-.09-.53-.34a1.28,1.28,0,0,0-1.4-1.08,2.23,2.23,0,0,0-1.69.38.82.82,0,0,0,.17,1.32,28.13,28.13,0,0,0,2.66,1,3.51,3.51,0,0,1,2.43,2.11,3.25,3.25,0,0,1-1.11,3.49,5.33,5.33,0,0,1-2.31,1,8.56,8.56,0,0,1-3.42-.06A3.26,3.26,0,0,1,83,63.66c0-.37.18-.48.5-.48h1.79c.3,0,.49.06.54.43.14,1,.61,1.12,1.53,1.36a2.34,2.34,0,0,0,1.82-.23,1.12,1.12,0,0,0,.61-1.1,1,1,0,0,0-.69-.9c-.91-.36-1.87-.59-2.79-.92a2.89,2.89,0,0,1-2-1.51,3.08,3.08,0,0,1,.24-2.87A4,4,0,0,1,87,55.88a7.62,7.62,0,0,1,3.25-.2,3.44,3.44,0,0,1,2.85,1.74,3.18,3.18,0,0,1,.29,1.33c0,.29-.22.34-.45.35Z"></path><path class="cls-1" d="M65,56l.22,0c.22.14.43,0,.62,0A3.85,3.85,0,0,1,68,55.82a1.64,1.64,0,0,0,1,.12l.22,0a.51.51,0,0,0,.33.28,3,3,0,0,1,1.26.88c.08.08.15.15.27.13h0c0,.3.23.44.33.67a6,6,0,0,1,.5,2.66,6.06,6.06,0,0,0-.15.95c0,.3-.06.43-.4.42-.82,0-1.63,0-2.44,0H64.46c-.24,0-.56,0-.63.24a2,2,0,0,0,.2,1.53,2.19,2.19,0,0,0,1.68,1.1,2.46,2.46,0,0,0,2.48-1,.7.7,0,0,1,.61-.4c.68,0,1.36,0,2,0,.35,0,.41.14.29.42,0,.1-.11.19-.16.29-.23.51-.67.9-.9,1.41h0c-.07,0-.12,0-.17.07A4.77,4.77,0,0,1,67,66.83H65.09c-.24,0-.48-.09-.72,0h-.14c-.35-.35-.85-.41-1.26-.65A3.78,3.78,0,0,1,61.3,63.8a7.23,7.23,0,0,1-.08-2.37,3.56,3.56,0,0,1,.15-1.12,11.3,11.3,0,0,1,.8-1.82A6.53,6.53,0,0,1,64,56.58C64.31,56.36,64.78,56.39,65,56Zm1.68,4.23h2a.36.36,0,0,0,.43-.32,1.84,1.84,0,0,0-.86-1.76,2.93,2.93,0,0,0-3.87,1.66c-.12.27,0,.42.32.42C65.34,60.19,66,60.2,66.64,60.2Z"></path><path class="cls-1" d="M47,57.41a.11.11,0,0,0,0,.17A3.38,3.38,0,0,1,47.76,60a3,3,0,0,1-.12,1.68.42.42,0,0,1-.44.26l-7,0c-.39,0-.51.15-.53.53a2,2,0,0,0,.62,1.82,1.8,1.8,0,0,0,1,.51,5.12,5.12,0,0,0,1.24,0A2.27,2.27,0,0,0,44,64a1.09,1.09,0,0,1,1-.48c.58,0,1.16,0,1.75,0,.27,0,.37.09.24.37a5.07,5.07,0,0,1-2,2.36,4.85,4.85,0,0,1-2.37.62,11.14,11.14,0,0,1-2.31-.07,3.75,3.75,0,0,1-1.94-1A4,4,0,0,1,37.09,63a13,13,0,0,1,0-2.07,6.88,6.88,0,0,1,2-3.78A4.6,4.6,0,0,1,41.4,56a9.4,9.4,0,0,1,1.67-.28,6.08,6.08,0,0,1,.87.16,4.24,4.24,0,0,1,2.79,1.33.25.25,0,0,0,.22.08Zm-4.56,3h0c.66,0,1.33,0,2,0s.93-.27.62-1a.9.9,0,0,1-.08-.23,1.68,1.68,0,0,0-1.44-1.37,2.84,2.84,0,0,0-2.52.73,4.87,4.87,0,0,0-.92,1.25.39.39,0,0,0,.36.62Z"></path><path class="cls-1" d="M58.52,66.87a8.13,8.13,0,0,1-1.21,0,1.93,1.93,0,0,1-1.85-2.45c.3-1.86.71-3.71,1.09-5.55.19-1,.2-1-.78-1s-.92-.2-.72-1c0-.13.08-.25.11-.39.15-.59.15-.59.78-.59h.57c.65,0,.78,0,.83-.67s.37-1.44.41-2.19c0-.28.17-.4.45-.4h2.28c.36,0,.34.23.29.47-.17.78-.34,1.55-.53,2.33-.09.34,0,.47.36.46s.87,0,1.3,0,.43.08.3.42A8.13,8.13,0,0,0,62,57.46a.5.5,0,0,1-.57.44c-.38,0-.76,0-1.14,0a.57.57,0,0,0-.65.56c-.26,1.38-.56,2.75-.83,4.12-.08.4-.15.8-.19,1.2s.24.79.78.83a4.45,4.45,0,0,0,.73,0c.4,0,.5,0,.43.43s-.19.76-.26,1.14c-.12.67-.11.68-.79.72-.31,0-.63,0-.94,0Z"></path><path class="cls-1" d="M51.4,61.85a1.31,1.31,0,0,0-.35.91,1.51,1.51,0,0,1-.1.76c-.27.55.4,1.26.94,1.24h.73c.27,0,.37.12.26.34a3.14,3.14,0,0,0-.3,1.41c0,.19-.11.26-.29.26a19.86,19.86,0,0,1-2.56,0,2.19,2.19,0,0,1-1.59-1,.28.28,0,0,1,0-.12,6.09,6.09,0,0,1,.16-2.44c0-.08.1-.15.09-.22a9.55,9.55,0,0,1,.41-2.13,12.05,12.05,0,0,1,.45-2.13,1.51,1.51,0,0,0,.11-.43c0-.46-.08-.57-.56-.57s-.71,0-1.06,0-.3,0-.23-.28a2.68,2.68,0,0,0,.3-1.28c0-.11.06-.17.18-.17a6.07,6.07,0,0,1,1.13,0c.46.1.86-.12.85-.59,0-.82.43-1.54.37-2.35,0-.2.12-.28.32-.28h2.31c.22,0,.28.1.18.28a2,2,0,0,0-.19.93,2,2,0,0,1-.17.75,2.05,2.05,0,0,0-.16,1c0,.28.18.4.43.33A6.14,6.14,0,0,1,54.23,56c.25,0,.33.09.29.34s-.14.34,0,.49l0,.31a.17.17,0,0,0-.15.16c-.08.4-.35.46-.7.44s-.71,0-1.06,0a.55.55,0,0,0-.6.56,2.49,2.49,0,0,1-.26,1.13.5.5,0,0,0,0,.57l0,.15a3,3,0,0,0-.29.83.78.78,0,0,0,0,.65Z"></path><path class="cls-1" d="M74.33,65.6v.15a1.48,1.48,0,0,0-.31.67c-.06.17-.12.3-.37.29-.64,0-1.29,0-1.94,0-.37,0-.47-.13-.41-.44.17-.79.35-1.57.54-2.35a2,2,0,0,0,.1-.48c0-.68.33-1.32.34-2a.6.6,0,0,1,.14-.29.84.84,0,0,0,.15-.46,12.93,12.93,0,0,1,.56-2.82.91.91,0,0,0,0-.67l0-.22a1.14,1.14,0,0,0,.26-.61c0-.29.17-.33.4-.32.65,0,1.3,0,2,0,.3,0,.43.05.25.36a1.2,1.2,0,0,0-.15.83c0,.11,0,.26.19.28a.26.26,0,0,0,.26-.21.74.74,0,0,1,.22-.33A4.66,4.66,0,0,1,79.2,55.7a4,4,0,0,1,.77,0c.15,0,.27.06.27.23a2,2,0,0,1-.12.92,1.91,1.91,0,0,0-.2.9c0,.64-.09.68-.74.59a3.41,3.41,0,0,0-2.34.41,3.88,3.88,0,0,0-1.58,2.17,18.68,18.68,0,0,0-.68,3,3.49,3.49,0,0,1-.22.9A1.1,1.1,0,0,0,74.33,65.6Z"></path><path class="cls-1" d="M169.42,57.89v.16a.63.63,0,0,1-.62.28,4.6,4.6,0,0,0-1.7,0,3.33,3.33,0,0,0-1.83,1.42,10.55,10.55,0,0,0-.69,1.66,15.88,15.88,0,0,0-.48,2.1,12.47,12.47,0,0,0-.44,2.3c0,.65-.3.82-1,.82s-1,0-1.54,0-.47-.16-.4-.46a6.1,6.1,0,0,0,.34-1.74.58.58,0,0,1,.06-.15,12,12,0,0,0,.51-2.3,11.88,11.88,0,0,0,.44-2.29.27.27,0,0,1,0-.15,1.4,1.4,0,0,0,.19-.77c0-.68.37-1.29.38-2,0-.21.2-.4.19-.65s.13-.18.26-.18h2.16c.22,0,.27.1.16.28a1.44,1.44,0,0,0-.2.93c0,.13,0,.29.19.31s.25-.1.28-.24c.08-.33.35-.48.58-.68a5.07,5.07,0,0,1,2.1-.85c.39-.11.91-.23,1.16,0s0,.76-.1,1.15A1.38,1.38,0,0,0,169.42,57.89Z"></path><path class="cls-1" d="M194.34,11.35a1.69,1.69,0,0,1-1.14.38,7.85,7.85,0,0,0-1.94.57c-.34.12-.66.27-1,.42a6.14,6.14,0,0,0-1.23.73,12.67,12.67,0,0,0-2.07,1.8,12.34,12.34,0,0,0-1.1,1.48c-.38.6-.7,1.25-1,1.87-.47.85-.94,1.7-1.44,2.53s-.76,1.37-1.17,2-.71,1.3-1.06,1.95c-.24.44-.5.86-.73,1.3s-.37.75-.55,1.12a6.83,6.83,0,0,0-.39,1.42,3.22,3.22,0,0,0,0,1.48,2,2,0,0,0,.89,1.32,4.54,4.54,0,0,0,1.06.52,10.94,10.94,0,0,0,3.9.28c5.91,0,11.82,0,17.73,0a2.27,2.27,0,0,1,.52,0,.49.49,0,0,1,.37.76c-.59,1-1.08,2-1.66,3s-1.15,2.18-1.75,3.25A3.26,3.26,0,0,1,199.12,41a5,5,0,0,1-1.92.36,9.09,9.09,0,0,1-1.8-.09,1.14,1.14,0,0,1-.75-1.76c.31-.52.61-1,.94-1.54.08-.12,0-.17-.1-.18H174.67a.66.66,0,0,0-.73.52,10.67,10.67,0,0,1-.74,1.37c-.31.52-.6,1-.86,1.59s-.48.83-.71,1.25a3.93,3.93,0,0,0-.54,1.24,4.29,4.29,0,0,0-.28,1.2,2.28,2.28,0,0,0,1,1.71,5.22,5.22,0,0,0,2,.74,11,11,0,0,0,2.14.12q18.35,0,36.68,0c.38,0,.74-.27,1.14-.1-.26.26-.61.22-.93.27a4,4,0,0,1-.69,0q-18.81,0-37.61,0a4.47,4.47,0,0,1-3.34-1.28,2.66,2.66,0,0,1-.36-2.7,31.76,31.76,0,0,1,1.77-3.43c.39-.8.9-1.53,1.26-2.34a.48.48,0,0,1,.46-.29h21.06c.13,0,.28,0,.36.1s-.07.26-.14.38c-.33.58-.66,1.17-.95,1.77a.83.83,0,0,0,.56,1.13,6.53,6.53,0,0,0,4.05-.32,3.13,3.13,0,0,0,1.16-1.33c.49-.93,1-1.85,1.52-2.77s1.08-2,1.64-3a1.17,1.17,0,0,0,.1-.64.31.31,0,0,0-.33-.33h-20.7a3.58,3.58,0,0,1-3-1.42,3,3,0,0,1-.36-2.63A18.74,18.74,0,0,1,181.6,24l1.92-3.45c.61-1.1,1.26-2.18,1.85-3.29a10.57,10.57,0,0,1,2.25-2.89,12.67,12.67,0,0,1,2-1.51,10.27,10.27,0,0,1,2.44-1.1A4.65,4.65,0,0,1,194.34,11.35Z"></path><path class="cls-1" d="M298.84,62.79a4.74,4.74,0,0,1,4.65-4.66,4.72,4.72,0,0,1,.3,9.44A4.73,4.73,0,0,1,298.84,62.79Zm.86.06a3.9,3.9,0,0,0,4,3.9,3.89,3.89,0,0,0-.1-7.77A3.93,3.93,0,0,0,299.7,62.85Z"></path><path class="cls-1" d="M214,47.43a2.62,2.62,0,0,1,.83-.38,5.4,5.4,0,0,0,1.27-.59,8.6,8.6,0,0,0,1.56-1,11.55,11.55,0,0,0,2.5-2.76c.51-.88,1.08-1.72,1.52-2.63s1-1.7,1.39-2.6a15.31,15.31,0,0,1,.83-1.41c.33-.61.63-1.24,1-1.84s.63-1.08.91-1.64a10.72,10.72,0,0,0,.74-1.61,4.55,4.55,0,0,0,.25-1.44,2.14,2.14,0,0,0-1.32-2.08,5.76,5.76,0,0,0-2.79-.6H202.11c-.34-.05-.38-.16-.21-.47.48-.86.93-1.74,1.41-2.6.35-.63.77-1.21,1.09-1.85s.67-1.25,1-1.85a5.8,5.8,0,0,1,1.42-1.59,5.3,5.3,0,0,1,3.78-.89,3,3,0,0,1,1,.33c.29.14.35.7.17,1-.31.56-.64,1.1-.91,1.68a2.84,2.84,0,0,1-.48.82.25.25,0,0,0-.07.3c.06.12.18.08.29.07s.46,0,.69,0h19.84a.88.88,0,0,0,.93-.63,11.6,11.6,0,0,1,.74-1.5c.35-.69.71-1.38,1.1-2s.61-1.12.89-1.67a3.53,3.53,0,0,0,.43-2.86c-.09-.26-.44-.37-.35-.69a2.16,2.16,0,0,1,.6,2.35,27.35,27.35,0,0,1-1.78,3.65c-.53,1.12-1.17,2.19-1.76,3.29a.58.58,0,0,1-.58.33H210.58c-.51,0-.56-.06-.34-.49.35-.69.74-1.37,1.11-2.05.14-.27.28-.55.4-.83a.56.56,0,0,0-.44-.67,2,2,0,0,0-.67-.11c-.62.08-1.25,0-1.87.06a3.74,3.74,0,0,0-2.47,1.3,12.07,12.07,0,0,0-1.69,2.69l-1.71,3c-.24.42-.5.83-.72,1.26s-.06.48.34.48h20.53a4.86,4.86,0,0,1,2.83.8,2.68,2.68,0,0,1,1,3,7.17,7.17,0,0,1-.77,1.85c-.58,1.09-1.18,2.17-1.78,3.25s-1.14,2-1.71,3.06c-.46.84-.94,1.66-1.37,2.51a12.83,12.83,0,0,1-4.45,5.13,13,13,0,0,1-2.35,1.12C214.34,47.44,214.18,47.54,214,47.43Z"></path><path class="cls-1" d="M310,18.72a4.71,4.71,0,1,1-4.7,4.72A4.67,4.67,0,0,1,310,18.72Zm2.73,2h0a.34.34,0,0,0-.37-.35h0c0-.18-.12-.21-.23-.28a7.22,7.22,0,0,0-1-.43,3.51,3.51,0,0,0-2.84.21c-.21.1-.57.17-.61.52h0a.25.25,0,0,0-.26.06,3.35,3.35,0,0,0-.89,1.12c-.1.26-.46.45-.26.81l0,.13a1.72,1.72,0,0,0,0,2v.14a1.31,1.31,0,0,0,.52,1h0c0,.17,0,.32.24.33h0a1.44,1.44,0,0,0,1.16,1h0a.13.13,0,0,0,.09.19,7.16,7.16,0,0,0,1.27.39,3.57,3.57,0,0,0,2-.34c.29-.17.71-.2.83-.62l.33-.33c.15,0,.25,0,.2-.2l0-.05c.16,0,.27-.07.22-.26l0-.06a1.61,1.61,0,0,0,.58-1.31l0-.14s.08-.05.08-.07a3.52,3.52,0,0,0-.5-2.65c-.11-.18-.14-.47-.45-.46h0C313,20.75,312.94,20.67,312.75,20.69Z"></path><path class="cls-1" d="M284.55,65.56a2.58,2.58,0,0,1-1.23,1,6.2,6.2,0,0,1-3.23.57,4.61,4.61,0,0,1-3.48-1.61,4.5,4.5,0,0,1-.85-2.68,13.05,13.05,0,0,1,.1-2.07,5.21,5.21,0,0,1,.52-1.56c.17-.36.15-.48-.22-.6a3.1,3.1,0,0,0-3.77,1.88,30.07,30.07,0,0,0-1,4.06,10,10,0,0,1-.47,2c-.08.2-.16.36-.42.35-.78,0-1.55,0-2.32,0-.32,0-.46-.14-.38-.46.27-1,.42-2,.64-3s.36-1.86.59-2.77c.17-.66.26-1.34.41-2a14.74,14.74,0,0,0,.46-2.29.46.46,0,0,1,.52-.49c.74,0,1.49,0,2.23,0,.35,0,.43.15.31.47s-.14.35-.2.53a.17.17,0,0,0,.07.21c.09,0,.15,0,.21-.08a4,4,0,0,1,3.54-1.45c.63,0,.64.11.58.62a11.91,11.91,0,0,1-.34,1.46c0,.13-.11.33.06.4s.23-.13.32-.24a5.54,5.54,0,0,1,2-1.64,6.35,6.35,0,0,1,4.06-.51,4.18,4.18,0,0,1,2.79,1.55,4,4,0,0,1,.79,2.21.33.33,0,0,1-.32.39c-.83,0-1.67,0-2.5,0-.23,0-.29-.15-.32-.34-.13-.88-.47-1.27-1.32-1.38-1.58-.2-2.43.43-3.07,2a5.35,5.35,0,0,0-.37,1.85,5.91,5.91,0,0,0,.08,1.68,1.57,1.57,0,0,0,1.11,1.09,2.24,2.24,0,0,0,2.61-1,1.22,1.22,0,0,0,.26-.45c.06-.49.36-.52.75-.51.69,0,1.39,0,2.08,0,.3,0,.48.13.35.41a6.36,6.36,0,0,1-1.48,2.38s-.09,0-.14.05,0-.18.09-.24a4.36,4.36,0,0,0,.6-.76c.32-.45.49-1,.77-1.43.14-.22-.07-.21-.2-.21h-2.32c-.17,0-.28,0-.31.23a2,2,0,0,1-.54.93,2.29,2.29,0,0,1-1.44.8,2.12,2.12,0,0,1-2.58-2A6.86,6.86,0,0,1,279,60.3a2.06,2.06,0,0,1,.36-.88,3.66,3.66,0,0,1,1.74-1.53,2.61,2.61,0,0,1,2.17.26,1.33,1.33,0,0,1,.56,1c0,.22.08.43.38.42h2.19c.17,0,.31-.05.27-.26a5.55,5.55,0,0,0-.28-1.22,3.46,3.46,0,0,0-2.7-2.12,2.59,2.59,0,0,1-.64-.11c-1.11-.51-2.16,0-3.21.2a4.11,4.11,0,0,0-1.53.83,6.07,6.07,0,0,0-2,2.94,8.17,8.17,0,0,0-.35,2.79,5.05,5.05,0,0,0,.59,2.38,3.16,3.16,0,0,0,2.38,1.71,7.53,7.53,0,0,0,3.88-.19,5.48,5.48,0,0,0,1.5-.88C284.38,65.6,284.44,65.52,284.55,65.56Zm-16.45.64c0,.16-.16.48.3.48q1,0,2.07,0c.17,0,.26-.07.28-.22,0-.49.35-.9.32-1.41a1.39,1.39,0,0,1,.1-.64,9.49,9.49,0,0,0,.47-2,8.62,8.62,0,0,1,.65-2.13,3.08,3.08,0,0,1,2.82-1.94,4,4,0,0,1,.85,0c.47.12.58-.18.69-.5a1.44,1.44,0,0,0,.07-.36,2.33,2.33,0,0,1,.2-.94,1.27,1.27,0,0,0,.06-.44c0-.28-.07-.41-.4-.41a5.26,5.26,0,0,0-2.63.71,1.8,1.8,0,0,0-.79.73c-.11.25-.31.28-.48.39s-.3,0-.22-.15c.2-.33.07-.73.26-1s.09-.31-.17-.31c-.68,0-1.35,0-2,0-.19,0-.31.06-.35.26-.15.73-.35,1.45-.46,2.19a8.73,8.73,0,0,0-.37,2.09.41.41,0,0,1,0,.08,10.59,10.59,0,0,0-.54,2.37,8.87,8.87,0,0,0-.43,2.12.21.21,0,0,1,0,.11A1.88,1.88,0,0,0,268.1,66.2Z"></path><path class="cls-1" d="M290.52,51.73c.39,0,.79,0,1.18,0s.46.15.3.49a3.57,3.57,0,0,0-.11.64c-.19.89-.33,1.8-.58,2.68a3.87,3.87,0,0,0-.1.67c0,.11-.07.24,0,.3a.3.3,0,0,0,.35,0,4.83,4.83,0,0,1,3.75-.87,2.7,2.7,0,0,1,2.28,1.89,4.67,4.67,0,0,1,0,2c-.24,1.3-.53,2.59-.8,3.88a11.63,11.63,0,0,1-.49,2.16,2.31,2.31,0,0,0-.12.84.51.51,0,0,1-.57.54h-2.19c-.3,0-.44-.12-.41-.45a13.34,13.34,0,0,1,.35-1.78c.29-1.41.59-2.81.88-4.22.08-.41.13-.83.17-1.24a1,1,0,0,0-.94-1.06,2.63,2.63,0,0,0-3,1.77,9.39,9.39,0,0,0-.58,2.17c-.25,1.21-.52,2.42-.78,3.63,0,.2-.09.39-.12.59-.07.51-.14.58-.63.59-.7,0-1.41,0-2.11,0-.35,0-.47-.13-.43-.45a2.85,2.85,0,0,1,0-.29c.37-1.54.68-3.1,1-4.66.24-1.26.6-2.51.82-3.78.13-.76.29-1.51.45-2.26s.3-1.69.53-2.52a2.43,2.43,0,0,0,0-.4c.1-.67.27-.81.94-.81h.81Zm0,.2h-1.06c-.14,0-.24,0-.3.19-.28.8-.25,1.67-.59,2.45a.63.63,0,0,0,0,.24c0,.77-.44,1.45-.36,2.22,0,0,0,0,0,0a11.79,11.79,0,0,0-.55,2.49,6.51,6.51,0,0,0-.35,1.85.52.52,0,0,1-.08.19,1.4,1.4,0,0,0-.21.77c0,.74-.42,1.41-.4,2.16a.44.44,0,0,1-.07.19,2,2,0,0,0-.18.83,1.19,1.19,0,0,1-.18.77c-.14.21-.1.4.24.36a8.2,8.2,0,0,1,2,0c.41,0,.58-.14.61-.56a1.46,1.46,0,0,1,.07-.72,2.19,2.19,0,0,0,.26-1.21.63.63,0,0,1,0-.31,8.22,8.22,0,0,0,.53-2.24,9,9,0,0,1,.62-1.92,3,3,0,0,1,2.19-1.79,1.9,1.9,0,0,1,1.67.43,1,1,0,0,1,.41.95,11.83,11.83,0,0,0-.31,1.66c0,.29-.25.54-.25.85,0,.81-.42,1.55-.41,2.37a.34.34,0,0,1,0,.11c-.28.63-.19,1.34-.48,2-.12.27.05.46.4.4a6.75,6.75,0,0,1,1.62,0c.6,0,.62,0,.81-.55a1.71,1.71,0,0,0,.11-.59,1.22,1.22,0,0,1,.09-.6,2,2,0,0,0,.23-1,1,1,0,0,1,.08-.44,2.15,2.15,0,0,0,.24-1.09,1.1,1.1,0,0,1,.08-.48,8.82,8.82,0,0,0,.45-1.89,5,5,0,0,0,.08-2.43,1.91,1.91,0,0,0-.48-.95,3.53,3.53,0,0,0-2.25-.91,5.84,5.84,0,0,0-1.5.27,3.39,3.39,0,0,0-1.76.88c-.13.11-.25.3-.44.18s-.19-.35-.1-.54a3.08,3.08,0,0,0,.26-1.3.83.83,0,0,1,.09-.39,1.88,1.88,0,0,0,.22-1,1.46,1.46,0,0,1,.11-.55,2.6,2.6,0,0,0,.22-1c0-.24-.07-.32-.29-.31Z"></path><path class="cls-1" d="M169.42,57.89a1.38,1.38,0,0,1,.09-.94c.15-.39.36-.86.1-1.15s-.77-.15-1.16,0a5.07,5.07,0,0,0-2.1.85c-.23.2-.5.35-.58.68,0,.14-.12.26-.28.24s-.18-.18-.19-.31a1.44,1.44,0,0,1,.2-.93c.11-.18.06-.28-.16-.28h-2.16c-.13,0-.26,0-.26.18s-.18.44-.19.65c0,.69-.35,1.3-.38,2a1.4,1.4,0,0,1-.19.77.27.27,0,0,0,0,.15,11.88,11.88,0,0,1-.44,2.29,12,12,0,0,1-.51,2.3.58.58,0,0,0-.06.15,6.1,6.1,0,0,1-.34,1.74c-.07.3,0,.48.4.46s1,0,1.54,0,1-.17,1-.82a12.47,12.47,0,0,1,.44-2.3,15.88,15.88,0,0,1,.48-2.1,10.55,10.55,0,0,1,.69-1.66,3.33,3.33,0,0,1,1.83-1.42,4.6,4.6,0,0,1,1.7,0,.63.63,0,0,0,.62-.28c.16.14.3.18.41-.06a1.22,1.22,0,0,1,.36-.42l.06,0a1.08,1.08,0,0,1-.08.19,7.45,7.45,0,0,0-1,1.75,6.29,6.29,0,0,0-.32,1.24,5.31,5.31,0,0,0,.37,4,3.77,3.77,0,0,0,3.29,2c.42,0,.84,0,1.26,0A4.94,4.94,0,0,0,177,65.9a5.72,5.72,0,0,0,2.37-3.63,6.5,6.5,0,0,1,.17-.79,3.65,3.65,0,0,0,.09-2A6.11,6.11,0,0,0,179.2,58a6.92,6.92,0,0,0-.74-.92,2.59,2.59,0,0,0-1.56-1,5.73,5.73,0,0,0-2.39-.36,8.77,8.77,0,0,0-2.18.52c-.52.22-1,.56-1.48.8l-.07-.07a6.16,6.16,0,0,1,4.71-1.36,4.85,4.85,0,0,1,3,1.2,4,4,0,0,1,1.35,3,10.27,10.27,0,0,1-.12,2.15,8,8,0,0,1-.62,1.73,5.55,5.55,0,0,1-2.1,2.45,6.36,6.36,0,0,1-1.95.82,6.71,6.71,0,0,1-2,.17,4.55,4.55,0,0,1-4.11-2.4,3.26,3.26,0,0,1-.41-1.38,9,9,0,0,1,.37-3.6c.09-.25.23-.48.33-.73s0-.25-.16-.34a3.1,3.1,0,0,0-3.7,1.34,13.19,13.19,0,0,0-.94,3.1c-.18.71-.24,1.43-.47,2.12a8.45,8.45,0,0,0-.19,1.12.61.61,0,0,1-.71.55c-.66,0-1.33,0-2,0s-.53,0-.46-.56c.13-.85.36-1.68.51-2.53s.36-1.85.58-2.76c.17-.71.25-1.43.45-2.14a23.6,23.6,0,0,0,.51-2.53.52.52,0,0,1,.6-.5h2.07c.39,0,.46.09.37.47a1.33,1.33,0,0,0,0,.19c0,.1-.07.23,0,.29s.24,0,.33-.1a4.26,4.26,0,0,1,3.43-1.17c.5,0,.55.14.43.63a5.54,5.54,0,0,1-.36,1.56A1,1,0,0,1,169.42,57.89Z"></path><path class="cls-1" d="M107.77,55.87c.36,0,.73,0,1.1,0s.46.08.39.46c-.28,1.48-.61,2.94-.91,4.42a21.67,21.67,0,0,0-.49,2.65,1.14,1.14,0,0,0,.57,1c.92.58,2.44-.12,3-.94a8.92,8.92,0,0,0,1-2.92c.18-.77.31-1.55.49-2.32a15.62,15.62,0,0,0,.39-1.9c0-.3.16-.44.46-.44h2.39c.28,0,.37.14.32.39-.13.66-.26,1.32-.4,2-.18.9-.38,1.81-.57,2.72-.16.73-.32,1.47-.47,2.2s-.29,1.51-.45,2.26c-.09.42-.2.84-.32,1.25,0,.16-.18.22-.35.22-.73,0-1.46,0-2.19,0-.39,0-.46-.13-.36-.52a.67.67,0,0,0,0-.19c0-.12.08-.26,0-.34s-.24,0-.32.1a4.54,4.54,0,0,1-3.71,1.17,2.65,2.65,0,0,1-2.71-2.78,13.51,13.51,0,0,1,.47-2.89c.21-1.25.54-2.48.77-3.72.08-.47.22-.94.28-1.42a.43.43,0,0,1,.49-.42Zm0,.14h-1.06c-.16,0-.34,0-.38.22s-.17.59-.2.91c-.06.76-.31,1.49-.43,2.24-.07.37-.18.74-.22,1.13a.84.84,0,0,1-.08.31,14.15,14.15,0,0,0-.45,2,7.07,7.07,0,0,0-.11,1.85A2.22,2.22,0,0,0,107,66.83c.59,0,1.19,0,1.78,0a3.37,3.37,0,0,0,1.94-.86c.22-.19.46-.37.69-.55.06-.05.13-.11.22-.06s.06.14.06.22a1.8,1.8,0,0,1-.15.5c-.14.47,0,.61.45.61s1.16,0,1.74,0c.31,0,.41-.11.4-.36,0-.73.49-1.37.37-2.12,0,0,0-.08,0-.12a18,18,0,0,0,.53-2.42,6.58,6.58,0,0,0,.34-1.81.22.22,0,0,1,0-.11,1.81,1.81,0,0,0,.25-1,1.39,1.39,0,0,1,.15-.75,1.47,1.47,0,0,0,.17-.74,1.37,1.37,0,0,1,.21-.85c.16-.23.12-.39-.23-.38-.71,0-1.41,0-2.11,0-.37,0-.52.13-.51.5,0,.79-.41,1.52-.4,2.32,0,0,0,0,0,0a8.93,8.93,0,0,0-.5,2.22,6.74,6.74,0,0,1-.77,2.21,2.76,2.76,0,0,1-2.62,1.5,1.44,1.44,0,0,1-1.35-1.88,2.89,2.89,0,0,0,.1-.6,2.29,2.29,0,0,1,.12-.79,8.78,8.78,0,0,0,.47-2.06,12.32,12.32,0,0,0,.46-2.33c0-.09.07-.17.1-.26s.09-.37.13-.55,0-.33-.27-.32S108.13,56,107.78,56Z"></path><path class="cls-1" d="M147.37,67a5.21,5.21,0,0,1-2.18-.31,2,2,0,0,1-1.16-2.3c.14-.81.35-1.61.5-2.41a16.94,16.94,0,0,0,.44-2.21,12.07,12.07,0,0,1,.3-1.22c.08-.45,0-.53-.45-.53h-1c-.32,0-.48-.21-.36-.5a4,4,0,0,0,.27-1.22c0-.33.28-.41.55-.42s.76,0,1.14,0,.4-.09.45-.39c.13-.82.31-1.64.48-2.45a.54.54,0,0,1,.64-.51c.69,0,1.38,0,2.07,0,.46,0,.53.14.43.58-.19.8-.33,1.6-.49,2.41-.06.26.07.34.31.34h1.3c.28,0,.37.11.35.4,0,.52-.3,1-.37,1.49,0,.23-.24.27-.45.27-.44,0-.89,0-1.34,0a.34.34,0,0,0-.41.32c-.29,1.4-.59,2.79-.88,4.18-.08.39-.11.77-.21,1.16s.28.83.8.79a7.32,7.32,0,0,1,.81,0c.32,0,.48.19.37.5a8.77,8.77,0,0,0-.35,1.58.42.42,0,0,1-.42.4A7,7,0,0,1,147.37,67Zm-.2-.22h1.22c.13,0,.3,0,.3-.14,0-.42.3-.74.29-1.17,0-.7,0-.69-.72-.7a1.07,1.07,0,0,1-1.07-1.62,12.66,12.66,0,0,0,.44-2c.24-1,.41-2,.67-3a.47.47,0,0,1,.55-.4c.43,0,.86,0,1.3,0,.15,0,.37,0,.36-.23a2.52,2.52,0,0,1,.29-1.08c.13-.32,0-.44-.33-.43s-.92,0-1.38,0c-.24,0-.44-.09-.31-.41.29-.68.18-1.46.5-2.14a1.2,1.2,0,0,0,0-.33c0-.2-.06-.3-.27-.29h-2.12c-.14,0-.26,0-.31.19-.27.84-.29,1.74-.57,2.58-.09.29-.18.42-.48.41s-.68,0-1,0a.48.48,0,0,0-.58.4c-.11.36-.12.72-.2,1.07s.09.27.26.27h.81c.63,0,.71.12.61.72s-.23,1-.3,1.53a19.87,19.87,0,0,0-.45,2.4c0,.08-.06.15-.08.23a20.13,20.13,0,0,1-.47,2.18.11.11,0,0,0,0,.08,2,2,0,0,0,2,1.89A7.85,7.85,0,0,0,147.17,66.78Z"></path><path class="cls-1" d="M73.11,57.16a.91.91,0,0,1,0,.67,12.93,12.93,0,0,0-.56,2.82.84.84,0,0,1-.15.46.6.6,0,0,0-.14.29c0,.69-.32,1.33-.34,2a2,2,0,0,1-.1.48c-.19.78-.37,1.56-.54,2.35-.06.31,0,.46.41.44.65,0,1.3,0,1.94,0,.25,0,.31-.12.37-.29a1.48,1.48,0,0,1,.31-.67,1.7,1.7,0,0,1-.14.8.51.51,0,0,1-.54.34c-.73,0-1.46,0-2.19,0-.3,0-.41-.07-.36-.43.1-.79.35-1.54.47-2.32,0-.14.1-.33-.08-.38s-.22.14-.28.29a5.57,5.57,0,0,1-1,1.48.16.16,0,0,1-.17.07c.23-.51.67-.9.9-1.41.05-.1.12-.19.16-.29.12-.28.06-.43-.29-.42-.67,0-1.35,0-2,0a.7.7,0,0,0-.61.4,2.46,2.46,0,0,1-2.48,1A2.19,2.19,0,0,1,64,63.73a2,2,0,0,1-.2-1.53c.07-.28.39-.24.63-.24h4.48c.81,0,1.62,0,2.44,0,.34,0,.44-.12.4-.42a6.06,6.06,0,0,1,.15-.95,6,6,0,0,0-.5-2.66c-.1-.23-.38-.37-.33-.67a3.91,3.91,0,0,1,1,2.19c0,.14,0,.3.05.44s0,.36.15.37.18-.24.2-.38c.14-.7.25-1.4.39-2.1A1.13,1.13,0,0,1,73.11,57.16Zm-5.2,5.06H64.42c-.32,0-.41.1-.41.42a1.74,1.74,0,0,0,1.06,1.77,2.06,2.06,0,0,0,2.25-.06,3.59,3.59,0,0,0,.83-.82c.14-.18.29-.37.56-.35.74.08,1.48,0,2.23,0a.92.92,0,0,1,.43.06c.13.06.14.35.31.24s.08-.33.1-.5,0-.19,0-.28c0-.51,0-.52-.5-.52Z"></path><path class="cls-1" d="M95.47,57A6.11,6.11,0,0,1,100,55.57a5.48,5.48,0,0,1,2.31.61,3.69,3.69,0,0,1,1.89,2.14,7.18,7.18,0,0,1-.23,4.9,6.22,6.22,0,0,1-1.1,1.86,5.5,5.5,0,0,1-2.14,1.54,6.61,6.61,0,0,1-4.51.25,3.88,3.88,0,0,1-2.82-2.67,6.5,6.5,0,0,1-.2-3.09,6.2,6.2,0,0,1,1.93-3.84l0,.06a.51.51,0,0,1-.15.23,7.38,7.38,0,0,0-.82,1.13,10.5,10.5,0,0,0-.73,2.06,6,6,0,0,0,.17,3.69,3.52,3.52,0,0,0,3.14,2.34,7.57,7.57,0,0,0,3.59-.23A5.68,5.68,0,0,0,104.14,62a11.07,11.07,0,0,0,.26-1.3,8.1,8.1,0,0,0-.26-2.07,3.51,3.51,0,0,0-1.81-2.29,7.14,7.14,0,0,0-2.75-.68c-.79-.09-1.49.34-2.26.35-.06,0-.12.06-.18.09-.53.3-1.07.59-1.61.88Z"></path><path class="cls-1" d="M74.33,65.6a1.1,1.1,0,0,1,0-.82,3.49,3.49,0,0,0,.22-.9,18.68,18.68,0,0,1,.68-3,3.88,3.88,0,0,1,1.58-2.17,3.41,3.41,0,0,1,2.34-.41c.65.09.7,0,.74-.59a1.91,1.91,0,0,1,.2-.9,2,2,0,0,0,.12-.92c0-.17-.12-.23-.27-.23a4,4,0,0,0-.77,0,4.66,4.66,0,0,0-2.68,1.24.74.74,0,0,0-.22.33.26.26,0,0,1-.26.21c-.15,0-.17-.17-.19-.28a1.2,1.2,0,0,1,.15-.83c.18-.31,0-.37-.25-.36-.65,0-1.3,0-2,0-.23,0-.37,0-.4.32a1.14,1.14,0,0,1-.26.61c-.14-.8.07-1.07.84-1.07h1.83c.41,0,.49.1.39.49a.86.86,0,0,0,0,.23c0,.09-.07.2.06.25a.24.24,0,0,0,.26-.07,4,4,0,0,1,1.75-1,4.66,4.66,0,0,1,2-.14c.21,0,.28.14.23.37-.15.73-.28,1.45-.41,2.18-.1.53-.24.63-.75.42a3.25,3.25,0,0,0-3,.87,5.89,5.89,0,0,0-1.09,2.45c-.24,1.18-.5,2.36-.75,3.54A.7.7,0,0,1,74.33,65.6Z"></path><path class="cls-1" d="M65,56c-.18.42-.65.39-1,.61a6.53,6.53,0,0,0-1.83,1.91,11.3,11.3,0,0,0-.8,1.82,3.56,3.56,0,0,0-.15,1.12,7.23,7.23,0,0,0,.08,2.37A3.78,3.78,0,0,0,63,66.21c.41.24.91.3,1.26.65-.42.12-.73-.18-1-.34A4.23,4.23,0,0,1,61.1,63.7a6.59,6.59,0,0,1,.13-3.5,6.68,6.68,0,0,1,1.15-2.33A6.49,6.49,0,0,1,64.84,56S64.92,56,65,56Z"></path><path class="cls-1" d="M64.37,66.87c.24-.12.48,0,.72,0H67a4.77,4.77,0,0,0,2.92-1.16c.05,0,.1-.09.17-.07a2.52,2.52,0,0,1-1.28,1,7.42,7.42,0,0,1-3.58.55A1.35,1.35,0,0,1,64.37,66.87Z"></path><path class="cls-1" d="M51.75,60a.5.5,0,0,1,0-.57A2.49,2.49,0,0,0,52,58.3a.55.55,0,0,1,.6-.56c.35,0,.71,0,1.06,0s.62,0,.7-.44a.17.17,0,0,1,.15-.16c.06.58-.17.85-.71.85h-.9c-.63,0-.78.13-.81.76A2.81,2.81,0,0,1,51.75,60Z"></path><path class="cls-1" d="M69,55.94a1.64,1.64,0,0,1-1-.12,3.85,3.85,0,0,0-2.23.07c-.19.07-.4.19-.62,0a2.44,2.44,0,0,1,1.29-.36,7.33,7.33,0,0,1,2.09.12A.63.63,0,0,1,69,55.94Z"></path><path class="cls-1" d="M234.94,12.37c-.34,0-.56-.3-.86-.42a2.82,2.82,0,0,0-.8-.23.89.89,0,0,1-.72-.37A3.25,3.25,0,0,1,234.94,12.37Z"></path><path class="cls-1" d="M71.09,57.26c-.12,0-.19,0-.27-.13a3,3,0,0,0-1.26-.88.51.51,0,0,1-.33-.28,2.38,2.38,0,0,1,1.31.68A1.55,1.55,0,0,1,71.09,57.26Z"></path><path class="cls-1" d="M51.42,61.63a.78.78,0,0,1,0-.65,3,3,0,0,1,.29-.83A2.26,2.26,0,0,1,51.42,61.63Z"></path><path class="cls-1" d="M95.15,57.27c.1-.11.21-.21.32-.32l.06.06a.46.46,0,0,1-.33.32Z"></path><path class="cls-1" d="M170.18,57.57a1,1,0,0,1,.33-.33l.05.06a.49.49,0,0,1-.32.32Z"></path><path class="cls-1" d="M170.51,57.24l.27-.29.07.07a.43.43,0,0,1-.29.28Z"></path><path class="cls-1" d="M93.33,32.74c1.33,0,3,0,4.57,0a1.61,1.61,0,0,1,1.59,1,1.47,1.47,0,0,1,0,1.18c-.24.52-.5,1-.77,1.53-.38.71-.81,1.4-1.16,2.12-.26.53-.59,1-.84,1.57a4,4,0,0,1-1.14,1.22,5.48,5.48,0,0,1-1.94.75,1.85,1.85,0,0,1-.52,0H84.22a2.69,2.69,0,0,0-.56,0c-.38.07-.58-.18-.41-.54.28-.56.59-1.11.88-1.67s.56-1.08.85-1.62.69-1.23,1-1.86.58-1.07.85-1.62a12.07,12.07,0,0,0,.74-1.37c.24-.65.73-.66,1.3-.65C90.27,32.76,91.65,32.74,93.33,32.74ZM88.69,41.8h4a4.51,4.51,0,0,0,2-.31,3.35,3.35,0,0,0,1.56-1.29c.37-.63.74-1.27,1.08-1.93a22.72,22.72,0,0,0,1.82-3.58A1.15,1.15,0,0,0,98.16,33c-.57-.05-1.14,0-1.71,0H88.53c-.2,0-.43-.06-.56.15s-.26.45-.38.67l-1.43,2.71-1.45,2.69c-.36.68-.73,1.35-1.1,2-.08.14-.21.27-.12.44s.26.11.41.11Z"></path><path class="cls-1" d="M154.3,17.55c.6,0,1.2,0,1.79,0a4.4,4.4,0,0,1,1.57.32,1,1,0,0,1,.47,1.47c-.41.69-.73,1.44-1.16,2.11s-.7,1.29-1.08,1.92-.52,1-.79,1.5-.48.86-.72,1.29l-.83,1.5c-.27.47-.5,1-.79,1.43s-.51,1-.77,1.46-.52.9-.76,1.36-.6,1-.85,1.58-.71,1.25-1,1.88-.52,1.06-.83,1.55-.68,1.29-1.07,1.9c-.27.42-.48.89-.74,1.32a3.71,3.71,0,0,1-1.16,1.14,4.45,4.45,0,0,1-1.89.66,29.85,29.85,0,0,1-3.78.07,4,4,0,0,1-1.08-.16,1.76,1.76,0,0,1-.85-.69c-.46-.53,0-.95.16-1.37s.54-1,.84-1.53.54-1,.8-1.45a15.28,15.28,0,0,0,.79-1.43c.28-.65.7-1.23,1-1.85.18-.36.36-.74.57-1.08.35-.6.68-1.22,1-1.82s.72-1.42,1.14-2.09.66-1.21,1-1.82.78-1.39,1.17-2.08.83-1.37,1.16-2.09.74-1.29,1.07-2A5.31,5.31,0,0,1,151,17.9a2.89,2.89,0,0,1,1.29-.36C153,17.57,153.64,17.55,154.3,17.55ZM141.62,41.81a8.93,8.93,0,0,0,2.95-.3,3.82,3.82,0,0,0,2-1.56c.37-.59.68-1.21,1-1.82.69-1.25,1.39-2.49,2.07-3.74s1.32-2.49,2-3.72c.57-1.05,1.18-2.07,1.75-3.12.68-1.25,1.34-2.51,2-3.76.83-1.53,1.64-3.06,2.51-4.56a.85.85,0,0,0-.6-1.26,6.59,6.59,0,0,0-1.17-.09c-1.26,0-2.52,0-3.78,0a2.86,2.86,0,0,0-1.85.58,8.81,8.81,0,0,0-2,2.85c-.62,1.07-1.18,2.17-1.78,3.25s-1.35,2.42-2,3.64c-.47.84-.91,1.7-1.38,2.54-.78,1.4-1.59,2.77-2.34,4.18s-1.43,2.59-2.14,3.89c-.22.42-.46.84-.7,1.26-.42.74.19,1.59,1.14,1.69C140,41.83,140.78,41.79,141.62,41.81Z"></path><path class="cls-1" d="M42.47,60.38h-2a.39.39,0,0,1-.36-.62A4.87,4.87,0,0,1,41,58.51a2.84,2.84,0,0,1,2.52-.73A1.68,1.68,0,0,1,45,59.15a.9.9,0,0,0,.08.23c.31.72.16,1-.62,1s-1.33,0-2,0Zm.16-.34h1.91c.22,0,.41-.07.38-.3a1.9,1.9,0,0,0-.62-1.4A2.29,2.29,0,0,0,42.71,58a2.53,2.53,0,0,0-2.21,1.52c-.2.37-.1.49.31.49Z"></path><path class="cls-1" d="M307.05,25.9l1.16,1A1.44,1.44,0,0,1,307.05,25.9Z"></path><path class="cls-1" d="M312.75,20.69a.47.47,0,0,1-.37-.35A.34.34,0,0,1,312.75,20.69Z"></path><path class="cls-1" d="M313,25.89a.26.26,0,0,1,.22-.26C313.28,25.82,313.17,25.88,313,25.89Z"></path><path class="cls-1" d="M313,20.94a.25.25,0,0,1-.24-.25C312.94,20.67,313,20.75,313,20.94Z"></path><path class="cls-1" d="M312.77,26.14a.2.2,0,0,1,.2-.2C313,26.12,312.92,26.16,312.77,26.14Z"></path><path class="cls-1" d="M284.55,65.56c-.11,0-.17,0-.25.1a5.48,5.48,0,0,1-1.5.88,7.53,7.53,0,0,1-3.88.19A3.16,3.16,0,0,1,276.54,65a5.05,5.05,0,0,1-.59-2.38,8.17,8.17,0,0,1,.35-2.79,6.07,6.07,0,0,1,2-2.94,4.11,4.11,0,0,1,1.53-.83c1.05-.22,2.1-.71,3.21-.2a2.59,2.59,0,0,0,.64.11,3.46,3.46,0,0,1,2.7,2.12,5.55,5.55,0,0,1,.28,1.22c0,.21-.1.26-.27.26H284.2c-.3,0-.38-.2-.38-.42a1.33,1.33,0,0,0-.56-1,2.61,2.61,0,0,0-2.17-.26,3.66,3.66,0,0,0-1.74,1.53,2.06,2.06,0,0,0-.36.88,6.86,6.86,0,0,0-.35,2.58,2.12,2.12,0,0,0,2.58,2,2.29,2.29,0,0,0,1.44-.8,2,2,0,0,0,.54-.93c0-.19.14-.23.31-.23h2.32c.13,0,.34,0,.2.21-.28.46-.45,1-.77,1.43a4.36,4.36,0,0,1-.6.76c-.07.06-.14.13-.09.24Z"></path><path class="cls-1" d="M268.1,66.2a1.88,1.88,0,0,1,.2-1,.21.21,0,0,0,0-.11,8.87,8.87,0,0,1,.43-2.12,10.59,10.59,0,0,1,.54-2.37.41.41,0,0,0,0-.08,8.73,8.73,0,0,1,.37-2.09c.11-.74.31-1.46.46-2.19,0-.2.16-.26.35-.26.68,0,1.35,0,2,0,.26,0,.31.07.17.31s-.06.71-.26,1c-.08.12.09.23.22.15s.37-.14.48-.39a1.8,1.8,0,0,1,.79-.73,5.26,5.26,0,0,1,2.63-.71c.33,0,.43.13.4.41a1.27,1.27,0,0,1-.06.44,2.33,2.33,0,0,0-.2.94,1.44,1.44,0,0,1-.07.36c-.11.32-.22.62-.69.5a4,4,0,0,0-.85,0,3.08,3.08,0,0,0-2.82,1.94,8.62,8.62,0,0,0-.65,2.13,9.49,9.49,0,0,1-.47,2,1.39,1.39,0,0,0-.1.64c0,.51-.28.92-.32,1.41,0,.15-.11.22-.28.22q-1,0-2.07,0C267.94,66.68,268.12,66.36,268.1,66.2Z"></path><path class="cls-1" d="M290.49,51.93h1c.22,0,.31.07.29.31a2.6,2.6,0,0,1-.22,1,1.46,1.46,0,0,0-.11.55,1.88,1.88,0,0,1-.22,1,.83.83,0,0,0-.09.39,3.08,3.08,0,0,1-.26,1.3c-.09.19-.11.42.1.54s.31-.07.44-.18A3.39,3.39,0,0,1,293.2,56a5.84,5.84,0,0,1,1.5-.27,3.53,3.53,0,0,1,2.25.91,1.91,1.91,0,0,1,.48.95,5,5,0,0,1-.08,2.43,8.82,8.82,0,0,1-.45,1.89,1.1,1.1,0,0,0-.08.48,2.15,2.15,0,0,1-.24,1.09,1,1,0,0,0-.08.44,2,2,0,0,1-.23,1,1.22,1.22,0,0,0-.09.6,1.71,1.71,0,0,1-.11.59c-.19.58-.21.57-.81.55a6.75,6.75,0,0,0-1.62,0c-.35.06-.52-.13-.4-.4.29-.64.2-1.35.48-2a.34.34,0,0,0,0-.11c0-.82.41-1.56.41-2.37,0-.31.21-.56.25-.85a11.83,11.83,0,0,1,.31-1.66,1,1,0,0,0-.41-.95,1.9,1.9,0,0,0-1.67-.43,3,3,0,0,0-2.19,1.79,9,9,0,0,0-.62,1.92,8.22,8.22,0,0,1-.53,2.24.63.63,0,0,0,0,.31,2.19,2.19,0,0,1-.26,1.21,1.46,1.46,0,0,0-.07.72c0,.42-.2.6-.61.56a8.2,8.2,0,0,0-2,0c-.34,0-.38-.15-.24-.36a1.19,1.19,0,0,0,.18-.77,2,2,0,0,1,.18-.83.44.44,0,0,0,.07-.19c0-.75.38-1.42.4-2.16a1.4,1.4,0,0,1,.21-.77.52.52,0,0,0,.08-.19,6.51,6.51,0,0,1,.35-1.85,11.79,11.79,0,0,1,.55-2.49s0,0,0,0c-.08-.77.38-1.45.36-2.22a.63.63,0,0,1,0-.24c.34-.78.31-1.65.59-2.45.06-.18.16-.19.3-.19Z"></path><path class="cls-1" d="M170.56,57.3a.43.43,0,0,0,.29-.28c.51-.24,1-.58,1.48-.8a8.77,8.77,0,0,1,2.18-.52,5.73,5.73,0,0,1,2.39.36,2.59,2.59,0,0,1,1.56,1,6.92,6.92,0,0,1,.74.92,6.11,6.11,0,0,1,.46,1.57,3.65,3.65,0,0,1-.09,2,6.5,6.5,0,0,0-.17.79A5.72,5.72,0,0,1,177,65.9a4.94,4.94,0,0,1-3.28.94c-.42,0-.84,0-1.26,0a3.77,3.77,0,0,1-3.29-2,5.31,5.31,0,0,1-.37-4,6.29,6.29,0,0,1,.32-1.24,7.45,7.45,0,0,1,1-1.75,1.08,1.08,0,0,0,.08-.19A.49.49,0,0,0,170.56,57.3Zm6.21,3V60a1.89,1.89,0,0,0-1.09-1.84,2.47,2.47,0,0,0-3.14,1,5.6,5.6,0,0,0-1,3.56,2.12,2.12,0,0,0,1.27,2,2.15,2.15,0,0,0,2.32-.4A5,5,0,0,0,176.77,60.32Z"></path><path class="cls-1" d="M107.78,56c.35,0,.7,0,1.06,0s.32.09.27.32-.08.36-.13.55-.1.17-.1.26a12.32,12.32,0,0,1-.46,2.33,8.78,8.78,0,0,1-.47,2.06,2.29,2.29,0,0,0-.12.79,2.89,2.89,0,0,1-.1.6,1.44,1.44,0,0,0,1.35,1.88,2.76,2.76,0,0,0,2.62-1.5,6.74,6.74,0,0,0,.77-2.21,8.93,8.93,0,0,1,.5-2.22s0,0,0,0c0-.8.41-1.53.4-2.32,0-.37.14-.51.51-.5.7,0,1.4,0,2.11,0,.35,0,.39.15.23.38a1.37,1.37,0,0,0-.21.85,1.47,1.47,0,0,1-.17.74,1.39,1.39,0,0,0-.15.75,1.81,1.81,0,0,1-.25,1,.22.22,0,0,0,0,.11,6.58,6.58,0,0,1-.34,1.81,18,18,0,0,1-.53,2.42s0,.08,0,.12c.12.75-.38,1.39-.37,2.12,0,.25-.09.38-.4.36-.58,0-1.16,0-1.74,0s-.59-.14-.45-.61a1.8,1.8,0,0,0,.15-.5c0-.08,0-.17-.06-.22s-.16,0-.22.06c-.23.18-.47.36-.69.55a3.37,3.37,0,0,1-1.94.86c-.59,0-1.19,0-1.78,0a2.22,2.22,0,0,1-2.15-2.21,7.07,7.07,0,0,1,.11-1.85,14.15,14.15,0,0,1,.45-2,.84.84,0,0,0,.08-.31c0-.39.15-.76.22-1.13.12-.75.37-1.48.43-2.24,0-.32.15-.61.2-.91s.22-.22.38-.22Z"></path><path class="cls-1" d="M147.17,66.78a7.85,7.85,0,0,1-1,0,2,2,0,0,1-2-1.89.11.11,0,0,1,0-.08,20.13,20.13,0,0,0,.47-2.18c0-.08.08-.15.08-.23a19.87,19.87,0,0,1,.45-2.4c.07-.51.21-1,.3-1.53s0-.72-.61-.72H144c-.17,0-.31-.07-.26-.27s.09-.71.2-1.07a.48.48,0,0,1,.58-.4c.33,0,.67,0,1,0s.39-.12.48-.41c.28-.84.3-1.74.57-2.58.05-.16.17-.19.31-.19H149c.21,0,.29.09.27.29a1.2,1.2,0,0,1,0,.33c-.32.68-.21,1.46-.5,2.14-.13.32.07.4.31.41.46,0,.92,0,1.38,0s.46.11.33.43a2.52,2.52,0,0,0-.29,1.08c0,.22-.21.22-.36.23-.44,0-.87,0-1.3,0a.47.47,0,0,0-.55.4c-.26,1-.43,2-.67,3a12.66,12.66,0,0,1-.44,2,1.07,1.07,0,0,0,1.07,1.62c.74,0,.71,0,.72.7,0,.43-.29.75-.29,1.17,0,.14-.17.14-.3.14h-1.22Z"></path><path class="cls-1" d="M95.2,57.33a.46.46,0,0,0,.33-.32c.54-.29,1.08-.58,1.61-.88.06,0,.12-.09.18-.09.77,0,1.47-.44,2.26-.35a7.14,7.14,0,0,1,2.75.68,3.51,3.51,0,0,1,1.81,2.29,8.1,8.1,0,0,1,.26,2.07,11.07,11.07,0,0,1-.26,1.3,5.68,5.68,0,0,1-3.74,4.52,7.57,7.57,0,0,1-3.59.23,3.52,3.52,0,0,1-3.14-2.34,6,6,0,0,1-.17-3.69,10.5,10.5,0,0,1,.73-2.06,7.38,7.38,0,0,1,.82-1.13A.51.51,0,0,0,95.2,57.33Zm6.24,3a5,5,0,0,0-.07-1,1.55,1.55,0,0,0-.49-.86,2.36,2.36,0,0,0-3.26.16,4.79,4.79,0,0,0-1.38,3.27,3.23,3.23,0,0,0,.34,1.91,2.18,2.18,0,0,0,3.28.41A5,5,0,0,0,101.44,60.34Z"></path><path class="cls-1" d="M301.87,62.89c0-.62,0-1.24,0-1.86,0-.33.11-.47.45-.46.73,0,1.47,0,2.2,0a1.28,1.28,0,0,1,1.05.94,1.08,1.08,0,0,1-.27,1.16c-.16.19-.22.31,0,.51a.82.82,0,0,1,.16.57,2.16,2.16,0,0,0,.18,1.23.16.16,0,0,1,0,.22c-.25.2-1-.08-1.08-.4s0-.51,0-.77c0-.43-.19-.61-.62-.65-1-.09-1.05-.08-1.05,1a2.29,2.29,0,0,0,0,.37c.06.43-.21.49-.54.5s-.38-.24-.38-.5V62.89Zm1.67-.31h0l.52,0a.55.55,0,0,0,.09-1.08,3.33,3.33,0,0,0-1-.12c-.16,0-.26.08-.32.25-.22.66,0,1,.66,1Z"></path><path class="cls-1" d="M308.26,23.49V21.71c0-.52,0-.56.55-.56s1.21,0,1.82,0a1.32,1.32,0,0,1,1.11,2.14.4.4,0,0,0-.05.52,1.4,1.4,0,0,1,.2.93,1.57,1.57,0,0,0,.08.68c.09.22,0,.33-.22.36-.71.09-.86-.07-.88-.91,0-.3,0-.6-.29-.78a1.88,1.88,0,0,0-1.19-.1c-.18,0-.2.19-.2.35,0,.35,0,.71,0,1.06s-.15.4-.43.38-.53.05-.52-.37C308.28,24.76,308.26,24.13,308.26,23.49Zm2.29-1.5h-.32a.47.47,0,0,0-.57,0h-.23c-.21-.09-.33,0-.34.2a8,8,0,0,0,0,.85.25.25,0,0,0,.2.23A2,2,0,0,0,311,23a.55.55,0,0,0,.1-.67C311,22.12,310.85,21.91,310.55,22Z"></path><path class="cls-1" d="M309.43,22a.85.85,0,0,0-.08,1c.09.26.43.19.68.17a2.47,2.47,0,0,0,.47-.11c.55-.19.61-.45.2-.86-.05-.05-.15-.07-.15-.17.3-.08.43.13.51.34a.55.55,0,0,1-.1.67,2,2,0,0,1-1.67.28.25.25,0,0,1-.2-.23,8,8,0,0,1,0-.85C309.1,22,309.22,21.91,309.43,22Z"></path></svg>