<svg xmlns="http://www.w3.org/2000/svg" id="Layer_1" data-name="Layer 1" viewBox="0 0 337.32 82.2"><defs><style>.cls-1{fill:#fff;}</style></defs><path class="cls-1" d="M286.76,45.32c-1.28,0-2.56,0-3.84,0a4.18,4.18,0,0,0-3.7,2,13.94,13.94,0,0,0-1.3,2.66,22.26,22.26,0,0,1-2.05,4.08,14.17,14.17,0,0,1-1.17,1.51A34.91,34.91,0,0,1,271.5,59c-.21.19-.39.41-.58.62a11.12,11.12,0,0,1-1.82,1.37,19.5,19.5,0,0,1-7.58,3.48c-.71.16-1.44.25-2.15.39a30.08,30.08,0,0,1-6.22.21,19.08,19.08,0,0,1-3.26-.45A20.89,20.89,0,0,1,245.08,63a19.76,19.76,0,0,1-1.81-1A25.8,25.8,0,0,1,240,59.71a18.29,18.29,0,0,1-1.43-1.36,38.44,38.44,0,0,1-2.72-3,20.85,20.85,0,0,1-2.4-3.83,22.44,22.44,0,0,1-.89-2.28A6.88,6.88,0,0,0,231,46.65a4.14,4.14,0,0,0-3-1.33c-2.65,0-5.29,0-7.94,0-.65,0-.65,0-.65-.63V37.48c0-.11,0-.22,0-.32s.11-.29.3-.28h7.73a5.3,5.3,0,0,0,2.48-.49,5.21,5.21,0,0,0,2-1.91,17.24,17.24,0,0,0,1.28-2.92,20.83,20.83,0,0,1,3-5,40,40,0,0,1,3.41-3.6,20.8,20.8,0,0,1,2.49-2,21.74,21.74,0,0,1,5.76-2.83,8.63,8.63,0,0,1,1.58-.53,35.56,35.56,0,0,1,9.72-.27,17.8,17.8,0,0,1,3.08.58,28.24,28.24,0,0,1,4.06,1.59,23.77,23.77,0,0,1,3.61,2.35,18.36,18.36,0,0,1,2.38,2.2c.44.48,1,.87,1.4,1.37.78.9,1.55,1.82,2.25,2.77a14.81,14.81,0,0,1,1.81,3.43,22.94,22.94,0,0,0,1.35,2.94,4.06,4.06,0,0,0,3.7,2.27c2.47,0,4.95,0,7.42,0H291c.26,0,.35.1.33.35v7.46a.86.86,0,0,1,0,.16c0,.44,0,.45-.44.45h-4.16ZM239.92,43a16.79,16.79,0,0,0,.81,3.57A15.1,15.1,0,0,0,244,51.73a18.43,18.43,0,0,0,2.36,2.06,13.13,13.13,0,0,0,4.76,2.29,17.41,17.41,0,0,0,3,.52c.31.22.65.1,1,.09h.5c.33,0,.67.13,1-.09l.69-.09a12.56,12.56,0,0,0,2.65-.52,14.47,14.47,0,0,0,5.18-2.75,17.54,17.54,0,0,0,3.29-3.54,15.47,15.47,0,0,0,1.88-3.8,13.26,13.26,0,0,0,.68-3.6,16.27,16.27,0,0,0-.18-3.82,14.42,14.42,0,0,0-.89-3.16,14.07,14.07,0,0,0-2.37-4,15.51,15.51,0,0,0-7.91-5.22,15.46,15.46,0,0,0-4.64-.52,14.08,14.08,0,0,0-4.94.91,15.5,15.5,0,0,0-5.39,3.43,21.49,21.49,0,0,0-1.89,2.16,12.5,12.5,0,0,0-1.81,3.17,15.62,15.62,0,0,0-1.1,7.25A.45.45,0,0,0,239.92,43Z"></path><path class="cls-1" d="M79.27,39.7l1.18.86a12.37,12.37,0,0,1,4.06,4.84,13.78,13.78,0,0,1,1.15,6.18A14,14,0,0,1,84.43,57a12.87,12.87,0,0,1-2.14,3.23,16.12,16.12,0,0,1-2.61,2.41,13.9,13.9,0,0,1-5.16,2.19,10.09,10.09,0,0,1-2.32.23H46.67c-.79,0-.71.09-.71-.71V17.85c0-.8-.08-.71.71-.71H69.32a14.5,14.5,0,0,1,5.24.78,13.41,13.41,0,0,1,4.9,2.93c.4.4.84.76,1.23,1.17a11.69,11.69,0,0,1,2.1,3.19,10.9,10.9,0,0,1,1,5.33,17.3,17.3,0,0,1-.27,2.86,9,9,0,0,1-1.46,3.22,11,11,0,0,1-2.43,2.67c-.11.09-.21.19-.31.29S79.3,39.63,79.27,39.7ZM72.14,56.6l.31-.07a5.35,5.35,0,0,0,2.82-1.29,5.87,5.87,0,0,0,2.09-5,6.17,6.17,0,0,0-4-5.22,8.06,8.06,0,0,0-2.58-.33H58.19c-.19,0-.29-.08-.29-.28s0-.29,0-.43V37c0-.81-.07-.73.71-.73H70.07a4.88,4.88,0,0,0,4.07-1.94A4.93,4.93,0,0,0,75.28,32a5.9,5.9,0,0,0,0-2,4.44,4.44,0,0,0-.67-1.78,7.72,7.72,0,0,0-1.37-1.54,4.15,4.15,0,0,0-1.3-.8,6.79,6.79,0,0,0-2.41-.33H55c-.68,0-.63-.05-.63.64V56c0,.73,0,.66.67.66H71.52C71.73,56.71,72,56.79,72.14,56.6Z"></path><path class="cls-1" d="M173.54,50.85a5.93,5.93,0,0,0-1.6-3.79,15.63,15.63,0,0,0-1.78-1.67,2.83,2.83,0,0,0-1.62-.61,11.25,11.25,0,0,0-1.65-.1H154.53c-.53,0-.53,0-.53-.53V36.79c0-.11,0-.21,0-.32a.19.19,0,0,1,.2-.2h12.1a4.79,4.79,0,0,0,3.57-1.39,5.2,5.2,0,0,0,1.36-6,4.66,4.66,0,0,0-1.57-2.06,3.76,3.76,0,0,0-.91-.72,5.72,5.72,0,0,0-2.15-.53l-10.77,0H151c-.5,0-.5,0-.51.5V64.27c0,.86.1.77-.76.77h-7.25c-.4,0-.4,0-.41-.43,0-.12,0-.25,0-.37q0-23.16,0-46.33c0-.86-.11-.77.75-.77h22.66a18.94,18.94,0,0,1,4.44.48,11.91,11.91,0,0,1,2,.74,13.27,13.27,0,0,1,3.48,2.14,15.54,15.54,0,0,1,2.56,2.69,13,13,0,0,1,1.54,2.9,10.16,10.16,0,0,1,.55,2.38,22.87,22.87,0,0,1-.24,5.42,5.93,5.93,0,0,1-1.27,2.66,12.8,12.8,0,0,1-1.75,2c-.25.22-.52.43-.78.64a2,2,0,0,0-.47.48,4,4,0,0,0,.92.67,9.61,9.61,0,0,1,2.51,2.2,17,17,0,0,1,1.36,1.83A11,11,0,0,1,182,50.08c0,.17,0,.35,0,.53s0,.49,0,.74V65l-1.49,0h-6.2l-.63,0V51.53A1.22,1.22,0,0,0,173.54,50.85Z"></path><path class="cls-1" d="M94.09,49.86V37.34a20.5,20.5,0,0,1,1-6.51,17.28,17.28,0,0,1,1.89-4,24.72,24.72,0,0,1,2.42-3.16,19.74,19.74,0,0,1,3-2.66,18.08,18.08,0,0,1,2.22-1.46,19.86,19.86,0,0,1,3.17-1.38,20.63,20.63,0,0,1,10.46-.59,18.21,18.21,0,0,1,7.23,3.1,21.15,21.15,0,0,1,4.05,3.75,21.38,21.38,0,0,1,3,4.71,18.56,18.56,0,0,1,1.64,8.07V64.31c0,.83.1.73-.74.73h-7.41a.23.23,0,0,1-.26-.26c0-.16,0-.31,0-.47V50.07c0-.52,0-.52-.53-.52H106.57c-.53,0-.54,0-.54-.53V41.71c0-.58,0-.58.58-.58H124.9c.81,0,.76.1.75-.74,0-1.45.06-2.91,0-4.37a10.49,10.49,0,0,0-2.1-5.6A11.89,11.89,0,0,0,119.69,27a10.33,10.33,0,0,0-4.85-1.43,12.68,12.68,0,0,0-4.11.42,13.89,13.89,0,0,0-2.23,1A9.78,9.78,0,0,0,106,28.86a11.05,11.05,0,0,0-3.35,6.5,13.53,13.53,0,0,0-.14,1.91q0,13.51,0,27c0,.84.1.74-.73.74h-7.3c-.26,0-.41-.08-.38-.36s0-.29,0-.43Z"></path><path class="cls-1" d="M197.26,41.67a16.68,16.68,0,0,0,.63,4.09,13.37,13.37,0,0,0,1.21,2.77,15.73,15.73,0,0,0,4.34,5A14.07,14.07,0,0,0,208.23,56a19.12,19.12,0,0,0,3.35.59c.31.22.65.1,1,.09h13.75c.52,0,.52,0,.52.53v7.3c0,.51,0,.51-.54.51H211.05a15.05,15.05,0,0,1-2.11-.28,23.12,23.12,0,0,1-5.87-1.65,19.1,19.1,0,0,1-2.84-1.56,25.11,25.11,0,0,1-3.51-2.66,30.57,30.57,0,0,1-3.41-3.79,23.62,23.62,0,0,1-2.78-5,21.74,21.74,0,0,1-1.5-5.69,17,17,0,0,1-.19-2.76,6.32,6.32,0,0,0,0-1.23,22.72,22.72,0,0,1,.55-4.8,21.81,21.81,0,0,1,1.14-3.6,23.19,23.19,0,0,1,2.12-4,24.48,24.48,0,0,1,3-3.71A28.27,28.27,0,0,1,199.72,21a23.31,23.31,0,0,1,13.45-3.84h13.37c.2,0,.3.08.29.28v7.89a.22.22,0,0,1-.23.24H214.29q-1.2,0-2.4,0a12.28,12.28,0,0,0-3.71.62,15.21,15.21,0,0,0-5,2.66,16.79,16.79,0,0,0-4.49,5.61,14.91,14.91,0,0,0-1.44,6.22A1.43,1.43,0,0,0,197.26,41.67Z"></path><path class="cls-1" d="M181.94,65V51.35c0-.25,0-.49,0-.74a.93.93,0,0,1,.07.57c0,4.43,0,8.86,0,13.29C182,64.66,182.12,64.87,181.94,65Z"></path><path class="cls-1" d="M173.54,50.85a1.22,1.22,0,0,1,.08.68V65c-.16-.11-.1-.29-.1-.44q0-6.7,0-13.41C173.52,51.06,173.53,51,173.54,50.85Z"></path><path class="cls-1" d="M188.84,40.48a6.32,6.32,0,0,1,0,1.23A2.06,2.06,0,0,1,188.84,40.48Z"></path><path class="cls-1" d="M197.26,41.67a1.43,1.43,0,0,1,0-1A3.22,3.22,0,0,1,197.26,41.67Z"></path><path class="cls-1" d="M212.56,56.69c-.33,0-.67.13-1-.09C211.91,56.58,212.25,56.47,212.56,56.69Z"></path><path class="cls-1" d="M254.13,56.6c.33,0,.67-.13,1,.09C254.78,56.7,254.44,56.82,254.13,56.6Z"></path><path class="cls-1" d="M255.61,56.69c.31-.22.65-.11,1-.09C256.28,56.82,255.94,56.7,255.61,56.69Z"></path><path class="cls-1" d="M239.84,42.49c.17.14.11.31.08.48A.45.45,0,0,1,239.84,42.49Z"></path><path class="cls-1" d="M71.52,56.69c.18-.19.41-.12.62-.09C72,56.79,71.73,56.71,71.52,56.69Z"></path><path class="cls-1" d="M255.41,31.53a9.57,9.57,0,1,1-9.64,9.64A9.67,9.67,0,0,1,255.41,31.53Z"></path></svg>